<svg width="96" height="96" viewBox="0 0 96 96" fill="none" xmlns="http://www.w3.org/2000/svg">
<path d="M95.0237 38.3469C93.1142 28.8508 88.1803 20.0004 81.179 13.315C74.1731 6.625 65.1369 2.06741 55.5478 0.603962C53.0483 0.223001 50.5303 0.00464586 48.0029 0C38.1351 0.0185834 28.3184 3.07556 20.2764 8.82249C12.3366 14.4997 6.25984 22.4256 2.88694 31.5872C-0.574224 40.9858 -0.918017 51.5365 1.82769 61.1628C4.45725 70.3848 9.92078 78.7985 17.3216 84.9031C25.0198 91.2587 34.4695 95.0961 44.4302 95.8627C54.2888 96.62 64.3424 94.2274 72.7979 89.1076C81.0071 84.1366 87.725 76.6707 91.6787 67.9132C95.8506 58.6586 97.0307 48.303 95.0283 38.3469H95.0237ZM91.4975 53.4878C91.4789 53.6365 91.4649 53.7851 91.4417 53.9338C91.4417 53.9431 91.4417 53.9524 91.4417 53.9617C91.3999 54.2497 91.3581 54.5378 91.3116 54.8258C91.2141 55.4251 91.1072 56.0198 90.9864 56.6145C90.7541 57.7666 90.4754 58.9142 90.1502 60.0431C89.8389 61.1395 89.4858 62.2267 89.0909 63.2952C88.8958 63.8295 88.6914 64.3545 88.473 64.8795C88.4637 64.9027 88.4405 64.9584 88.4219 65.0142C88.4312 64.991 88.4358 64.977 88.4451 64.9492C88.408 65.0467 88.3615 65.1396 88.3244 65.2325C88.1803 65.5624 88.0317 65.8876 87.883 66.2175C86.9399 68.257 85.8434 70.2222 84.6123 72.0991C84.3057 72.5684 83.9898 73.0283 83.6645 73.4836C83.5159 73.6927 83.3672 73.8971 83.2185 74.1015C83.1303 74.2223 83.0374 74.3477 82.9444 74.4685C82.9119 74.5103 82.8004 74.6544 82.7307 74.7473C82.071 75.5928 81.3834 76.4151 80.6633 77.2142C79.1395 78.91 77.4902 80.4896 75.7294 81.9391C75.5343 82.1017 75.3392 82.2596 75.1394 82.4176C75.0325 82.5012 74.921 82.5895 74.8142 82.6731C74.3357 83.0355 73.8571 83.3886 73.3693 83.7324C72.4541 84.3781 71.5156 84.9868 70.5586 85.5628C69.5504 86.1668 68.5237 86.7336 67.4737 87.2586C66.9906 87.5002 66.5074 87.7325 66.0196 87.9555C65.764 88.0716 65.5039 88.1878 65.2483 88.2993C65.2437 88.2993 65.1973 88.3225 65.1508 88.3411C65.0997 88.3596 64.793 88.4897 64.7559 88.5037C62.5956 89.3817 60.3655 90.0972 58.0937 90.6361C56.9648 90.9056 55.8312 91.1286 54.6837 91.3098C54.4049 91.3516 54.1308 91.3934 53.8521 91.4352C53.8428 91.4352 53.8335 91.4352 53.8195 91.4352C53.6616 91.4538 53.5036 91.4724 53.341 91.491C52.7278 91.5606 52.1145 91.621 51.5012 91.6675C49.0993 91.8487 46.6788 91.844 44.2769 91.6489C43.6916 91.6025 43.1062 91.5421 42.5208 91.4724C42.3861 91.4584 42.2467 91.4445 42.1073 91.4213C41.7728 91.3748 41.4383 91.3237 41.1038 91.268C39.9377 91.0775 38.7762 90.8405 37.6241 90.5618C35.3569 90.0089 33.1454 89.2702 30.9898 88.3875C30.869 88.3364 30.7482 88.2853 30.632 88.2342C30.3951 88.132 30.1628 88.0251 29.9305 87.9183C29.373 87.6628 28.8201 87.3933 28.2719 87.1146C27.2731 86.6035 26.2881 86.0599 25.3311 85.4792C24.3322 84.8753 23.352 84.2295 22.4042 83.5512C22.014 83.2724 21.6283 82.9844 21.2474 82.6963C21.1963 82.6592 21.1452 82.6174 21.122 82.5988C21.0012 82.5059 20.885 82.4083 20.7642 82.3154C20.5273 82.1249 20.2903 81.9298 20.058 81.7346C18.3112 80.2712 16.6712 78.6823 15.1567 76.9773C14.8222 76.5963 14.4923 76.2154 14.1671 75.8251C13.972 75.5928 13.7815 75.3559 13.591 75.1189C13.512 75.0214 13.4331 74.9192 13.3541 74.8216C13.3308 74.7891 13.3169 74.7752 13.303 74.7566C13.2937 74.7426 13.2844 74.7287 13.2658 74.7055C12.5968 73.8088 11.9464 72.9029 11.3331 71.9644C10.0787 70.041 8.96838 68.0201 8.01598 65.9294C7.89983 65.6739 7.78832 65.4137 7.67218 65.1536C7.66288 65.135 7.65359 65.1164 7.6443 65.0932C7.5932 64.9724 7.54209 64.8516 7.49563 64.7308C7.27263 64.1826 7.05892 63.6297 6.85915 63.0722C6.45961 61.9758 6.10653 60.8608 5.79526 59.7365C5.48863 58.6261 5.21917 57.5065 4.99617 56.3729C4.88467 55.8014 4.78246 55.23 4.68954 54.6586C4.64773 54.3984 4.61056 54.1336 4.57339 53.8734C4.57339 53.8641 4.57339 53.8595 4.57339 53.8502C4.57339 53.8316 4.57339 53.8177 4.56874 53.7991C4.54551 53.6132 4.52229 53.4274 4.50371 53.2416C4.2296 50.849 4.14597 48.4378 4.24818 46.0312C4.29928 44.7954 4.40149 43.5642 4.55016 42.3377C4.5548 42.2913 4.60126 42.059 4.59197 42.0265C4.59197 41.9986 4.60127 41.9707 4.60592 41.9428C4.64309 41.6827 4.68489 41.4179 4.7267 41.1577C4.82891 40.5305 4.94042 39.908 5.0705 39.2901C5.53974 36.995 6.1855 34.7371 7.00317 32.5396C7.18436 32.0564 7.3702 31.5779 7.56533 31.0994C7.57462 31.0762 7.59319 31.0297 7.61178 30.9833C7.60713 31.0018 7.6025 31.0111 7.5932 31.0297C7.64895 30.8857 7.71399 30.7463 7.77904 30.6069C7.90447 30.3235 8.02992 30.0448 8.16 29.766C8.63388 28.7439 9.14491 27.7404 9.68848 26.7602C10.2599 25.7381 10.8685 24.7346 11.5143 23.7589C11.7931 23.3362 12.0811 22.918 12.3738 22.4999C12.5503 22.2537 12.7269 22.0028 12.9081 21.7612C12.9824 21.659 13.0614 21.5568 13.1357 21.4546C13.1636 21.4174 13.2333 21.3245 13.2937 21.2502C14.6781 19.4847 16.1834 17.8122 17.8048 16.2605C18.6085 15.4893 19.4448 14.7506 20.3043 14.0398C20.518 13.8633 20.7363 13.6867 20.9547 13.5148C21.0523 13.4358 21.1545 13.3569 21.252 13.2779C21.2613 13.2732 21.266 13.2686 21.2706 13.2639C21.2846 13.2546 21.2939 13.2454 21.3124 13.2361C21.7817 12.8876 22.2463 12.5392 22.7248 12.2047C24.5785 10.8992 26.5297 9.73308 28.56 8.72028C29.0617 8.46941 29.5728 8.22318 30.0838 7.99088C30.3161 7.88403 30.553 7.78182 30.7853 7.67961C30.8039 7.67032 30.8457 7.65173 30.8922 7.63315C31.0455 7.56811 31.1988 7.50771 31.3521 7.44267C32.43 7.00596 33.5218 6.61106 34.6321 6.25798C36.8807 5.54251 39.1804 5.00359 41.5126 4.64122C41.7728 4.5994 42.033 4.55759 42.2978 4.52507C42.4465 4.50649 42.6323 4.4879 42.6973 4.47861C43.2827 4.40892 43.8681 4.35317 44.4581 4.31136C45.6475 4.21844 46.8368 4.17663 48.0308 4.17663C49.2759 4.17663 50.521 4.22773 51.7661 4.3253C52.3282 4.37176 52.8857 4.42751 53.4432 4.49255C53.5733 4.50649 53.708 4.52507 53.8381 4.53901C53.8613 4.53901 53.8753 4.53901 53.8939 4.54365C53.9032 4.54365 53.9078 4.54365 53.9171 4.54365C54.233 4.59011 54.5489 4.63657 54.8602 4.68767C57.1878 5.06399 59.4828 5.62149 61.7221 6.35089C62.8 6.70398 63.8685 7.09423 64.9185 7.5263C64.9417 7.53559 64.9882 7.55417 65.0346 7.57275C65.0161 7.56811 65.0068 7.56346 64.9882 7.55417C65.109 7.60063 65.2251 7.65638 65.3413 7.70749C65.6014 7.81899 65.857 7.93513 66.1125 8.05592C66.6468 8.30216 67.1764 8.55768 67.7014 8.82249C69.7223 9.84923 71.6689 11.0246 73.518 12.3348C73.9315 12.6275 74.3356 12.9294 74.7398 13.2361C74.8328 13.3104 75.0929 13.5102 75.1626 13.5613C75.4414 13.7843 75.7155 14.0073 75.985 14.2349C76.8398 14.9504 77.6667 15.6937 78.4705 16.4696C79.2696 17.2454 80.0454 18.0492 80.7888 18.8808C81.1604 19.2943 81.5228 19.717 81.8805 20.1491C82.0431 20.3442 82.2011 20.5394 82.3637 20.7391C82.4613 20.8599 82.5542 20.9761 82.6471 21.0969C82.6796 21.1387 82.7122 21.1805 82.7493 21.2269C82.7633 21.2455 82.7679 21.2548 82.7865 21.278C84.1291 23.0714 85.3649 24.9343 86.4474 26.8995C87.0142 27.9309 87.5439 28.9809 88.0317 30.0541C88.1385 30.2864 88.2407 30.5233 88.3429 30.7556C88.3522 30.7742 88.3708 30.816 88.3894 30.8578C88.4265 30.9414 88.4591 31.0251 88.4916 31.1087C88.7285 31.6801 88.9515 32.2562 89.1606 32.837C89.9643 35.0391 90.5962 37.3063 91.0515 39.606C91.1583 40.1495 91.2559 40.6977 91.3442 41.2413C91.3906 41.5294 91.4324 41.8128 91.4742 42.1008C91.4975 42.2866 91.5207 42.4725 91.5439 42.6583C91.6787 43.8337 91.7716 45.0138 91.8134 46.1938C91.9063 48.6236 91.8134 51.0627 91.5207 53.4785L91.4975 53.4878Z" fill="#10BCFF"/>
<path d="M61.6432 69.5113C61.7919 69.3487 61.7733 69.2325 61.6432 69.5113Z" fill="#10BCFF"/>
<path d="M54.6881 36.0195C54.6603 36.0335 54.6324 36.0428 54.5999 36.0567C54.4651 36.1124 54.0981 36.2797 54.6881 36.0195Z" fill="#10BCFF"/>
<path d="M61.6432 69.5112C61.6432 69.5112 61.6339 69.5205 61.6293 69.5298C61.6293 69.5298 61.6339 69.5298 61.6386 69.5298C61.6386 69.5252 61.6432 69.5205 61.6478 69.5159L61.6432 69.5112Z" fill="#10BCFF"/>
<path d="M60.7744 69.7019C60.8255 69.7112 60.8673 69.7205 60.8999 69.7298C60.9092 69.7298 60.9138 69.7298 60.9277 69.7298C60.8952 69.7066 60.8302 69.6973 60.7791 69.6973L60.7744 69.7019Z" fill="#10BCFF"/>
<path d="M61.9265 69.0747C61.9265 69.0747 61.9265 69.07 61.9312 69.0654C61.9312 69.0375 61.9358 69.0003 61.9498 68.9492C61.9312 68.991 61.9173 69.0375 61.9265 69.0747Z" fill="#10BCFF"/>
<path d="M65.4528 27.118C64.8024 27.2945 64.1799 27.5918 63.5573 27.852C59.7431 29.4223 55.9241 30.988 52.1285 32.6001C51.859 32.7162 51.5896 32.8277 51.3201 32.9439C51.1947 32.995 51.0692 33.0461 50.9438 33.0972C50.0843 33.4503 49.2248 33.808 48.3653 34.1611C45.378 35.3922 42.3907 36.6234 39.3988 37.8545L21.6981 45.1485C21.345 45.2926 20.9919 45.4412 20.6388 45.5853C20.6202 45.5945 20.6017 45.6038 20.5831 45.6085C20.4298 45.6549 20.2811 45.7107 20.1371 45.7943C20.9408 45.3344 19.6678 45.9848 19.7236 45.9616C19.5377 46.0406 19.3519 46.1242 19.1707 46.2124C18.8641 46.3611 18.5668 46.5191 18.2787 46.7049C17.6004 47.1416 17.0057 47.648 16.5412 48.3124C15.9326 49.1904 15.7421 50.3426 16.1045 51.3508C16.4064 52.1917 16.9825 52.9304 17.7398 53.4228C18.1208 53.6691 18.5621 53.7945 18.9895 53.9385C21.5866 54.8166 24.1883 55.6761 26.8178 56.4612C29.2615 57.1906 32.1977 57.488 34.5485 56.2614C34.962 56.0477 35.3383 55.755 35.7193 55.4949C36.7971 54.7701 37.875 54.0407 38.9528 53.316L48.0494 47.1881C45.5174 49.59 42.9668 51.9733 40.407 54.3474C39.0783 55.5832 38.1676 57.3532 38.7252 59.193C39.0829 60.373 39.8773 61.2465 40.8158 61.9944C42.6463 63.4625 44.5743 64.8052 46.5116 66.1293C48.3096 67.3558 50.1215 68.5544 51.9426 69.7437C52.5187 70.1201 53.0948 70.4917 53.6662 70.8727C53.7963 70.9563 53.9218 71.0539 54.0565 71.1329C54.0611 71.1329 54.0704 71.1421 54.0797 71.1468C54.1308 71.184 54.1773 71.2258 54.2284 71.2629C54.3817 71.3744 54.535 71.4813 54.693 71.5835C56.8208 72.9726 59.6269 74.3292 62.2286 73.7903C64.5469 73.3118 65.9732 71.0539 66.3123 68.8471C66.3216 68.7867 66.3262 68.7263 66.3355 68.6659C66.3495 68.5916 66.3588 68.5126 66.3727 68.4383C66.4331 68.0526 66.4981 67.667 66.5585 67.2768C66.7769 65.8923 66.9999 64.5079 67.2182 63.1187C67.799 59.481 68.3751 55.848 68.9558 52.2103C69.4111 49.353 69.8525 46.4958 70.2938 43.6386C70.7537 40.6606 71.2323 37.6826 71.6411 34.7C71.9431 32.5118 72.5192 29.8869 70.8048 28.1029C69.4204 26.6627 67.2508 26.6255 65.4435 27.118H65.4528ZM67.7757 31.0205C67.7757 31.0205 67.7943 31.0205 67.8083 31.0251L67.8129 31.0344C67.8129 31.0391 67.8129 31.0437 67.8129 31.0484C67.799 31.0344 67.7897 31.0251 67.7757 31.0158V31.0205ZM67.7061 30.8765C67.7061 30.8765 67.7061 30.8997 67.7386 30.9415C67.7432 30.9461 67.7525 30.9601 67.7618 30.9694C67.7618 30.9694 67.7618 30.9694 67.7618 30.974C67.7479 30.974 67.7386 30.974 67.7246 30.9694C67.6689 30.8997 67.6689 30.8486 67.7061 30.8811V30.8765ZM67.1532 31.0298C67.4784 31.0158 67.339 31.0158 67.1532 31.0298ZM20.072 49.9895C20.072 49.9895 20.0627 49.9756 20.0627 49.9709V49.9617C20.0674 49.971 20.072 49.9849 20.0813 49.9942L20.072 49.9895ZM20.1556 50.0267C20.1556 50.0267 20.1231 50.0035 20.1138 49.9895C20.1045 49.9802 20.0906 49.9617 20.0813 49.9524C20.0999 49.9663 20.1138 49.9756 20.1324 49.9849C20.1464 50.0035 20.1556 50.0174 20.1603 50.0313L20.1556 50.0267ZM20.0767 50.5424L20.0953 50.5238C20.086 50.5517 20.0767 50.561 20.0767 50.5424ZM20.1138 50.3612V50.3519C20.1138 50.3426 20.1138 50.338 20.1138 50.3287C20.1138 50.2915 20.1185 50.2358 20.1185 50.1847C20.1185 50.1707 20.1185 50.1521 20.1185 50.1382C20.1464 50.2311 20.1417 50.324 20.1324 50.403C20.1278 50.403 20.1231 50.3891 20.1185 50.3612H20.1138ZM19.993 49.8502C19.993 49.8502 19.993 49.8455 19.9884 49.8409C19.9652 49.813 19.9512 49.8037 19.9419 49.8037C19.9187 49.7805 19.9001 49.7572 19.8769 49.7387C19.9327 49.7805 19.9745 49.8176 20.0116 49.8548C20.007 49.8548 19.9977 49.8548 19.993 49.8502ZM19.8955 50.77C19.8955 50.77 19.9373 50.7375 19.9745 50.7003C19.9745 50.7236 19.9745 50.7143 20.007 50.6632C20.0442 50.6167 20.0813 50.5749 20.0999 50.5563C20.0813 50.6214 20.0023 50.77 19.9001 50.7747L19.8955 50.77ZM54.7534 40.6188C54.7534 40.6188 54.7394 40.6374 54.7302 40.6467C54.6744 40.7025 54.6233 40.7582 54.5722 40.814C54.4979 40.879 54.5025 40.8511 54.7534 40.6188ZM56.7372 41.7013C56.8161 41.7106 56.8208 41.7292 56.7 41.7153C56.7093 41.7153 56.7279 41.706 56.7372 41.7013ZM55.1483 39.9359C55.1947 39.7222 55.1715 39.5131 55.1483 39.9359ZM53.7266 70.868C53.7917 70.9191 53.8567 70.9702 53.9264 71.0214C53.8707 70.9749 53.8056 70.9284 53.7266 70.868ZM54.0983 71.1561C54.4375 71.4116 54.2145 71.2351 54.0983 71.1561ZM56.333 67.6438C56.2354 67.5741 56.1611 67.5137 56.333 67.6438ZM67.8036 31.945C67.7804 32.2656 67.7432 32.5815 67.7061 32.9021C67.6828 33.1158 67.6503 33.3248 67.6271 33.5385C67.6085 33.6872 67.5852 33.8359 67.5667 33.9892C66.9302 38.5096 66.224 43.0207 65.5085 47.5319C64.5329 53.6598 63.5573 59.7877 62.5817 65.9109C62.4934 66.4777 62.3958 67.0491 62.3122 67.6159C62.2983 67.6996 62.289 67.7739 62.2797 67.8575C62.2658 67.9272 62.2518 68.0108 62.2425 68.0666C62.2193 68.1874 62.0195 68.6938 61.9545 68.9539C62.0102 68.8332 62.1217 68.7449 61.9684 69.0097C61.9545 69.0283 61.9452 69.0515 61.9359 69.0701C61.9359 69.084 61.9359 69.1026 61.9359 69.1073C61.9312 69.098 61.9313 69.0887 61.9313 69.0794C61.8894 69.1537 61.8523 69.2327 61.8058 69.307C61.764 69.3767 61.6989 69.4557 61.6525 69.53C61.6664 69.53 61.6757 69.5254 61.6897 69.5207C61.6804 69.5207 61.6618 69.53 61.6478 69.5347C61.6385 69.5533 61.62 69.5718 61.6107 69.5904C61.62 69.5672 61.6246 69.5533 61.6339 69.5393C61.6246 69.544 61.6153 69.5486 61.606 69.5533C61.5224 69.6322 61.4759 69.6555 61.4713 69.6415C61.4434 69.6648 61.4156 69.6787 61.397 69.6926C61.3923 69.6926 61.3877 69.6926 61.383 69.6926C61.3133 69.7066 61.2669 69.7159 61.2344 69.7252C61.1368 69.7252 61.0346 69.7298 60.937 69.7252C60.9463 69.7298 60.9556 69.7391 60.9603 69.7484C60.9603 69.7437 60.937 69.7345 60.9092 69.7252C60.6769 69.7159 60.7047 69.6973 60.7837 69.6973C60.5932 69.6601 60.3098 69.6183 60.2587 69.6044C59.9707 69.53 59.6919 69.4371 59.4132 69.3349C59.2784 69.2838 59.1205 69.242 58.9951 69.1723C59.4968 69.4603 58.93 69.1351 58.8139 69.084C57.9683 68.6845 57.1832 68.2013 56.4073 67.6903C56.4027 67.6903 56.3934 67.681 56.3887 67.6763C56.3237 67.6299 56.2633 67.5788 56.1982 67.5323C56.1518 67.4998 56.1053 67.4673 56.0589 67.4347C55.8777 67.3093 55.6918 67.1932 55.5107 67.0724C54.8788 66.6589 54.2423 66.2454 53.6105 65.8273C51.78 64.6286 49.9589 63.4207 48.1563 62.1803C47.2085 61.5299 46.2654 60.8701 45.3316 60.1918C44.9413 59.9085 44.5511 59.6204 44.1655 59.3277C44.1469 59.3138 44.1237 59.2952 44.0958 59.2813C44.0493 59.2441 44.0029 59.2023 43.9564 59.1651C43.7659 59.0164 43.5801 58.8631 43.3943 58.7098C43.2363 58.5797 43.0923 58.4404 42.9483 58.301C42.9204 58.2731 42.8693 58.2034 42.8367 58.1616C42.8228 58.1384 42.8042 58.1105 42.7856 58.078C42.7856 58.064 42.7764 58.0408 42.7671 58.0222C42.7671 58.0083 42.7763 57.9897 42.7763 57.9758C42.7903 57.9572 42.8042 57.9293 42.8228 57.8921C42.8507 57.8457 42.86 57.8132 42.8739 57.7899C42.8925 57.7714 42.9018 57.7621 42.9297 57.7388C43.2131 57.4508 43.5104 57.1767 43.8077 56.9026C44.3885 56.3683 44.9646 55.834 45.5406 55.2998C47.9426 53.0697 50.3212 50.8211 52.686 48.5493C53.722 47.5551 54.7534 46.5562 55.7755 45.5481C56.4491 44.8884 57.1692 44.2473 57.7686 43.5132C58.7999 42.2449 59.9382 40.368 58.9718 38.7419C57.5455 36.34 54.4328 37.9986 52.7231 39.0439C51.9101 39.541 51.125 40.0846 50.3305 40.6188C45.0482 44.1776 39.7658 47.7363 34.4835 51.295C33.8842 51.6992 33.2895 52.1313 32.6762 52.5122C32.653 52.5262 32.6298 52.5448 32.6066 52.5587C32.5787 52.5773 32.5462 52.5912 32.5183 52.6052C32.1931 52.712 31.8679 52.777 31.538 52.856C31.4172 52.8653 31.2964 52.8793 31.1756 52.8839C30.8132 52.9025 30.4509 52.8978 30.0885 52.87C29.9724 52.8607 29.8562 52.8467 29.7447 52.8374C29.675 52.8235 29.4102 52.7817 29.373 52.7771C28.9549 52.6981 28.5461 52.5912 28.1372 52.4704C27.3753 52.2474 26.618 52.0058 25.8654 51.7689C24.4856 51.3322 23.1104 50.8862 21.7352 50.4309C21.41 50.324 21.0848 50.2079 20.7596 50.0917C20.9362 49.9895 21.1173 49.8966 21.2985 49.8083C21.3032 49.8083 21.568 49.6829 21.6377 49.6504C21.8235 49.5761 22.0372 49.5017 22.1998 49.4227C26.4601 47.6666 30.7157 45.9151 34.976 44.159C40.5928 41.8453 46.205 39.5317 51.8218 37.2181C52.3654 36.9951 52.909 36.7721 53.4479 36.5398C53.7731 36.4004 54.103 36.261 54.4328 36.1216C54.5257 36.0798 54.6233 36.0427 54.7162 36.0008C54.7116 36.0008 54.7069 36.0008 54.6976 36.0101C54.8788 35.9358 55.06 35.8568 55.2459 35.7825C56.2354 35.369 57.225 34.9555 58.2146 34.5467C60.8488 33.4549 63.469 32.247 66.1497 31.276C66.2891 31.2249 66.4331 31.1831 66.5771 31.1459C66.6979 31.1134 66.814 31.0855 66.9348 31.0576C66.9859 31.0484 67.0463 31.0391 67.1114 31.0344C67.3344 31.0344 67.5574 31.0298 67.7804 31.0158H67.7897C67.8036 31.0576 67.8129 31.0995 67.8268 31.1366C67.8315 31.4061 67.8361 31.6663 67.8176 31.9404L67.8036 31.945ZM67.8687 31.0902C67.8687 31.0902 67.8687 31.0855 67.8687 31.0809C67.8872 31.0995 67.9058 31.1134 67.9151 31.1227C67.8965 31.1134 67.8826 31.1041 67.8687 31.0902Z" fill="#10BCFF"/>
<path d="M61.6293 69.5393C61.6293 69.5393 61.6385 69.5393 61.6432 69.5347C61.6432 69.5347 61.6432 69.53 61.6478 69.5254C61.6478 69.5254 61.6386 69.5254 61.6339 69.5254C61.6339 69.5254 61.6339 69.5347 61.6293 69.5347V69.5393Z" fill="#10BCFF"/>
<path d="M61.6291 69.53C61.5176 69.5579 61.4572 69.6276 61.4665 69.6462C61.513 69.6137 61.5594 69.5811 61.6012 69.5579C61.6105 69.5486 61.6152 69.544 61.6291 69.5347V69.53Z" fill="#10BCFF"/>
<path d="M93.6809 39.183C91.8179 29.9052 87.0374 21.3011 80.194 14.769C73.3507 8.23227 64.5374 3.84658 55.176 2.41565C52.802 2.05327 50.4047 1.86744 47.9982 1.86279C38.3534 1.88138 28.8294 4.8826 20.9778 10.4948C13.354 15.9444 7.46767 23.6287 4.22951 32.4279C0.847317 41.6081 0.489587 51.8523 3.17025 61.2601C5.73941 70.2685 11.0775 78.4266 18.3018 84.3872C25.698 90.4919 34.8597 94.204 44.4255 94.938C54.0517 95.6813 63.8266 93.377 72.0916 88.3734C80.115 83.5185 86.6146 76.2291 90.4707 67.6807C94.48 58.7932 95.5997 48.7488 93.6809 39.1876V39.183ZM91.4881 60.8838C88.984 69.6784 83.762 77.5764 76.7142 83.3977C69.6014 89.2654 60.6907 92.8567 51.4965 93.5442C42.1212 94.2504 32.6622 92.0343 24.6155 87.1655C16.8291 82.4499 10.5711 75.3975 6.79867 67.1139C2.8822 58.5051 1.80437 48.6606 3.69988 39.4014C5.53965 30.4023 10.153 22.1002 16.7966 15.7539C23.4587 9.38909 32.0164 5.17994 41.1223 3.77224C43.3988 3.41916 45.7031 3.2612 48.0075 3.25655C57.3735 3.27514 66.563 6.18809 74.2008 11.6098C81.611 16.8689 87.3765 24.4045 90.4846 32.9436C93.7367 41.8683 94.0944 51.7547 91.4927 60.8931L91.4881 60.8838Z" fill="white"/>
<path d="M63.9338 29.6593C60.231 31.1831 56.5236 32.7023 52.8394 34.2679C52.5235 34.4027 52.2122 34.5328 51.8963 34.6721C51.8731 34.6814 51.8591 34.6861 51.8499 34.6907C51.6733 34.7651 51.4968 34.8347 51.3249 34.9091C50.4654 35.2622 49.6059 35.6199 48.7464 35.973C45.7591 37.2041 42.7718 38.4353 39.7799 39.6664C33.8797 42.0962 27.9794 44.5307 22.0792 46.9604C21.7261 47.1045 21.373 47.2531 21.0199 47.3972C20.9642 47.4111 20.9131 47.4343 20.8573 47.4668C20.2626 47.806 19.589 47.9965 19.0036 48.3728C18.5344 48.6748 18.093 49.0279 17.7678 49.4785C17.3543 50.0546 17.2149 50.7701 17.4705 51.4437C17.8236 52.3543 18.5158 52.7678 19.3799 53.0558C21.977 53.9339 24.5787 54.7934 27.2082 55.5785C29.2849 56.2011 31.8448 56.5541 33.8657 55.5228C34.2792 55.3137 34.6555 55.0164 35.0365 54.7562C36.1143 54.0314 37.1922 53.302 38.27 52.5773C41.3409 50.5052 44.4165 48.4378 47.4874 46.3658C49.2389 45.1857 50.9857 44.0103 52.7372 42.8303C53.7268 42.1613 54.7535 41.4597 55.8592 40.9998C56.0311 40.9301 56.2077 40.8697 56.3842 40.8186C56.44 40.8 56.4771 40.7907 56.5004 40.7861C56.5004 40.7861 56.5004 40.7954 56.5004 40.8C56.44 41.0277 56.3796 41.1252 56.2077 41.4179C55.8639 42.0033 55.5433 42.3425 55.0369 42.8442C50.5955 47.2671 46.0054 51.5366 41.4152 55.8015C40.4443 56.7028 39.6777 57.9247 40.0912 59.2906C40.3792 60.2337 41.0761 60.8841 41.8194 61.4788C43.557 62.8725 45.3968 64.1408 47.2319 65.3952C49.0298 66.6217 50.8417 67.8204 52.6629 69.0097C53.239 69.386 53.8151 69.7577 54.3865 70.1387C54.5166 70.2269 54.6467 70.3105 54.7768 70.3988C54.786 70.4035 54.7953 70.4128 54.8046 70.4174C54.8511 70.4546 54.8975 70.4917 54.9486 70.5243C55.102 70.6358 55.2553 70.7426 55.4132 70.8448C57.2019 72.0109 59.6688 73.3443 61.8756 72.9122C63.734 72.5499 64.7328 70.6729 64.9883 68.94C64.9976 68.8843 65.0023 68.8332 65.0069 68.7774C65.0209 68.6938 65.0348 68.6102 65.0487 68.5312C65.1091 68.1456 65.1742 67.76 65.2346 67.3697L65.8943 63.2117C66.475 59.574 67.0511 55.9409 67.6318 52.3032C68.0871 49.446 68.5285 46.5888 68.9699 43.7316C69.4298 40.7536 69.9083 37.7756 70.3172 34.7929C70.5448 33.1483 71.1116 30.909 69.8386 29.5478C68.2544 27.8567 65.7177 28.9252 63.9384 29.6546L63.9338 29.6593ZM19.1802 51.4948C19.1802 51.4948 19.1987 51.518 19.2127 51.532C19.2127 51.532 19.208 51.532 19.2034 51.532C19.1941 51.5227 19.1848 51.5087 19.1802 51.4948ZM19.208 51.532H19.2173C19.2452 51.5552 19.2638 51.5645 19.2406 51.5413C19.3799 51.597 19.2591 51.5831 19.2034 51.5273L19.208 51.532ZM56.7094 40.7582C56.7559 40.7768 56.7977 40.8279 56.6908 40.7582C56.6955 40.7582 56.7048 40.7582 56.7094 40.7582ZM56.5375 40.5631C56.5375 40.5631 56.5375 40.5584 56.5282 40.5538C56.5282 40.5538 56.5282 40.5584 56.5375 40.5631ZM56.5608 40.5956C56.5608 40.5956 56.5608 40.5956 56.5608 40.6003V40.5956ZM64.9976 68.8053C64.9884 68.8517 64.9837 68.9029 64.9976 68.8053ZM69.1975 32.4096C69.1371 33.218 69.021 34.0171 68.9095 34.8208C68.273 39.3412 67.5668 43.8524 66.8513 48.3635C65.8757 54.4914 64.9001 60.6193 63.9245 66.7425C63.8362 67.3093 63.734 67.8808 63.655 68.4476C63.6457 68.508 63.6411 68.573 63.6318 68.6334C63.6318 68.6473 63.5946 68.8564 63.5853 68.8982C63.5156 69.2513 63.4181 69.609 63.2787 69.9389C62.9256 70.7891 62.2845 71.5092 61.3181 71.5882C60.2217 71.6764 59.0788 71.2118 58.1078 70.7566C57.2716 70.3617 56.4539 69.8971 55.7013 69.3628C55.692 69.3535 55.6455 69.321 55.6177 69.3024C55.5758 69.2699 55.5387 69.2374 55.4969 69.2095C55.4504 69.177 55.4039 69.1444 55.3575 69.1119C55.1763 68.9865 54.9905 68.8703 54.8093 68.7495C54.1774 68.3361 53.5409 67.9226 52.9091 67.5044C49.3597 65.1769 45.6755 62.9004 42.4141 60.1733C41.7916 59.6529 41.1504 58.9328 41.4431 58.0548C41.6754 57.3532 42.3026 56.8794 42.8229 56.4008C43.4037 55.8666 43.9798 55.3323 44.5559 54.798C46.9578 52.568 49.3364 50.3194 51.7012 48.0476C52.7372 47.0534 53.7686 46.0545 54.7907 45.0463C55.4643 44.3866 56.1891 43.7502 56.7838 43.0115C57.3784 42.2681 58.3587 40.9162 57.7687 39.9266C56.8906 38.4539 54.3261 40.1775 53.4248 40.7303C52.6118 41.2274 51.8266 41.771 51.0322 42.3053C45.7498 45.864 40.4675 49.4228 35.1851 52.9815C34.5858 53.3857 33.9912 53.8177 33.3779 54.1987C33.3547 54.2126 33.3315 54.2312 33.3082 54.2452C33.2571 54.273 33.206 54.2963 33.1596 54.3241C32.9877 54.4124 33.1224 54.352 32.8947 54.431C31.9842 54.7376 31.041 54.8119 30.084 54.7469C28.5091 54.6354 26.9852 54.0686 25.4892 53.5947C24.1094 53.158 22.7342 52.712 21.3591 52.2567C20.6529 52.0244 19.9514 51.7828 19.2452 51.5459C19.2405 51.5366 19.2359 51.5366 19.222 51.5227C19.1941 51.4948 19.1569 51.4716 19.129 51.4391C19.0594 51.3694 18.9897 51.2997 18.9246 51.2253C18.9153 51.2021 18.8085 51.0488 18.7853 51.0116C18.7853 51.0023 18.7527 50.9559 18.7249 50.8304C18.7388 50.8676 18.7156 50.6585 18.7249 50.6074C18.7156 50.6911 18.7992 50.4355 18.8178 50.4077C19.366 49.4274 20.6436 49.1858 21.5403 48.6794C25.8934 46.8861 30.2466 45.0928 34.5998 43.2995L51.4457 36.3586C53.5828 35.4805 55.7059 34.5653 57.8384 33.6779C60.4726 32.5861 63.0928 31.3782 65.7735 30.4072C66.6655 30.082 67.8409 29.8358 68.6121 30.3375C69.2393 30.7464 69.2579 31.6848 69.2021 32.4142L69.1975 32.4096Z" fill="white"/>
</svg>
