<svg width="96" height="96" viewBox="0 0 96 96" fill="none" xmlns="http://www.w3.org/2000/svg">
<path d="M67.1067 60.4892C63.613 55.8155 60.1146 51.1417 56.621 46.468C56.1192 45.7943 55.6174 45.1253 55.111 44.4517C56.6535 42.7885 58.1959 41.1206 59.7337 39.4574C62.8325 36.1124 65.9266 32.7673 69.0254 29.4223L71.1764 27.0994C72.389 25.7893 71.5574 23.5314 69.6991 23.5314H66.9348C65.8987 23.5314 64.807 23.3827 63.9939 24.1911C63.0973 25.0831 62.2703 26.0541 61.4108 26.9832C58.1587 30.4955 54.9066 34.0078 51.6545 37.5201C51.334 37.8639 51.018 38.2077 50.6975 38.5514C48.2352 35.2622 45.7729 31.9683 43.3106 28.679C42.5672 27.6801 41.8192 26.6859 41.0759 25.6871C40.6438 25.111 40.1003 24.1725 39.487 23.8148C38.6926 23.3502 37.4289 23.5314 36.5462 23.5314H24.2858C23.9094 23.4989 23.5192 23.5778 23.1475 23.8148C23.036 23.8891 22.9245 23.9727 22.827 24.0703C22.4646 24.3862 22.2091 24.809 22.1394 25.2875C22.0325 25.7614 22.0929 26.2585 22.3995 26.672C24.4855 29.4641 26.5715 32.2517 28.6575 35.0438C31.9654 39.4667 35.2779 43.8942 38.5857 48.317L39.9562 50.1522C38.2744 51.9687 36.5973 53.7806 34.9155 55.5971C31.5798 59.1977 28.2487 62.7982 24.9129 66.4034C24.1417 67.235 23.3752 68.0666 22.604 68.8982C21.3914 70.2084 22.223 72.4662 24.0813 72.4662H27.1104C28.1139 72.4662 29.0571 72.5406 29.8376 71.7508C30.8596 70.7194 31.8167 69.6137 32.8016 68.5498C36.286 64.7866 39.7704 61.0188 43.2548 57.2557C43.6265 56.8561 43.9935 56.4566 44.3652 56.0571C46.9529 59.5136 49.536 62.9747 52.1238 66.4313C53.3596 68.0852 54.5907 69.7438 55.8358 71.393C56.3561 72.0853 56.9601 72.4477 57.8196 72.4709C58.1959 72.4802 58.5722 72.4709 58.9532 72.4709H71.9058C73.3553 72.4709 74.6934 70.6404 73.7131 69.3256C71.5109 66.3802 69.3088 63.4393 67.1067 60.4938V60.4892ZM60.2494 65.2048C59.5525 64.2709 58.8556 63.3418 58.1587 62.4079C55.8637 59.3417 53.5686 56.2708 51.2736 53.2045C48.486 49.4739 45.6985 45.7479 42.9064 42.0173C40.5045 38.807 38.1072 35.5967 35.7053 32.3864C35.3057 31.8521 34.9062 31.3178 34.5066 30.7836H35.8539C36.5508 31.7174 37.2477 32.6466 37.9446 33.5804C40.2396 36.6466 42.5347 39.7176 44.8298 42.7838C47.6173 46.5145 50.4048 50.2404 53.197 53.9711C55.5989 57.1814 57.9961 60.3916 60.398 63.6019C60.7929 64.1269 61.1785 64.6658 61.5688 65.2048H60.2494ZM28.4484 27.8334C28.4206 27.7916 28.388 27.7545 28.3602 27.7126H28.5181C28.4949 27.7545 28.4717 27.7916 28.4531 27.8334H28.4484ZM67.6502 68.1595C67.6502 68.1595 67.6735 68.192 67.6874 68.2106C67.706 68.2385 67.7246 68.2617 67.7431 68.2896H67.5759C67.6038 68.2478 67.6224 68.206 67.6456 68.1642L67.6502 68.1595Z" fill="#10BCFF"/>
<path d="M81.1744 13.315C74.1684 6.625 65.1322 2.06741 55.5431 0.603962C53.0437 0.223001 50.5256 0.00464586 47.9983 0C38.1305 0.0185834 28.3137 3.07556 20.2764 8.82249C12.3366 14.4997 6.25984 22.4256 2.88694 31.5872C-0.574224 40.9858 -0.918017 51.5365 1.82769 61.1628C4.45724 70.3848 9.92078 78.7985 17.3216 84.9031C25.0198 91.2587 34.4695 95.0961 44.4302 95.8627C54.2888 96.62 64.3424 94.2274 72.7979 89.1076C81.0071 84.1366 87.725 76.6707 91.6787 67.9132C95.8506 58.6586 97.0307 48.303 95.0283 38.3469C93.1189 28.8508 88.185 20.0004 81.1837 13.315H81.1744ZM91.4882 53.4878C91.4696 53.6365 91.4557 53.7851 91.4324 53.9338C91.4324 53.9431 91.4324 53.9524 91.4324 53.9617C91.3906 54.2497 91.3488 54.5378 91.3023 54.8258C91.2048 55.4251 91.0979 56.0198 90.9771 56.6145C90.7448 57.7666 90.4661 58.9142 90.1409 60.0431C89.8296 61.1395 89.4765 62.2267 89.0816 63.2952C88.8865 63.8295 88.6821 64.3545 88.4637 64.8795C88.4544 64.9027 88.4312 64.9584 88.4126 65.0142C88.4219 64.991 88.4266 64.977 88.4358 64.9492C88.3987 65.0467 88.3522 65.1396 88.3151 65.2325C88.171 65.5624 88.0224 65.8876 87.8737 66.2175C86.9306 68.257 85.8342 70.2222 84.603 72.0991C84.2964 72.5684 83.9805 73.0283 83.6553 73.4836C83.5066 73.6927 83.3579 73.8971 83.2092 74.1015C83.121 74.2223 83.0281 74.3477 82.9351 74.4685C82.9026 74.5103 82.7911 74.6544 82.7214 74.7473C82.0617 75.5928 81.3741 76.4151 80.654 77.2142C79.1302 78.91 77.4809 80.4896 75.7201 81.9391C75.525 82.1017 75.3299 82.2596 75.1301 82.4176C75.0232 82.5012 74.9117 82.5895 74.8049 82.6731C74.3264 83.0355 73.8478 83.3886 73.36 83.7324C72.4448 84.3781 71.5063 84.9868 70.5493 85.5628C69.5411 86.1668 68.5144 86.7336 67.4644 87.2586C66.9813 87.5002 66.4981 87.7325 66.0103 87.9555C65.7547 88.0716 65.4946 88.1878 65.2391 88.2993C65.2344 88.2993 65.1879 88.3225 65.1415 88.3411C65.0904 88.3596 64.7838 88.4897 64.7466 88.5083C62.5863 89.3864 60.3563 90.1018 58.0844 90.6408C56.9555 90.9102 55.8219 91.1332 54.6744 91.3144C54.3956 91.3562 54.1215 91.398 53.8428 91.4399C53.8335 91.4399 53.8242 91.4399 53.8102 91.4399C53.6523 91.4584 53.4943 91.477 53.3317 91.4956C52.7185 91.5653 52.1052 91.6257 51.492 91.6721C49.09 91.8533 46.6695 91.8487 44.2676 91.6536C43.6823 91.6071 43.0969 91.5467 42.5115 91.477C42.3768 91.4631 42.2374 91.4491 42.098 91.4259C41.7635 91.3795 41.429 91.3284 41.0945 91.2726C39.9284 91.0821 38.7669 90.8452 37.6148 90.5664C35.3476 90.0136 33.1362 89.2749 30.9805 88.3922C30.8597 88.3411 30.7389 88.29 30.6227 88.2389C30.3858 88.1366 30.1535 88.0298 29.9212 87.9229C29.3637 87.6674 28.8109 87.398 28.2626 87.1192C27.2638 86.6082 26.2789 86.0646 25.3218 85.4839C24.323 84.8799 23.3427 84.2341 22.3949 83.5558C22.0047 83.2771 21.6191 82.989 21.2381 82.701C21.187 82.6638 21.1359 82.622 21.1127 82.6034C20.9919 82.5105 20.8757 82.4129 20.7549 82.32C20.518 82.1295 20.2811 81.9344 20.0488 81.7393C18.3019 80.2759 16.6619 78.687 15.1474 76.9819C14.8129 76.601 14.4784 76.22 14.1578 75.8298C13.9627 75.5975 13.7722 75.3605 13.5817 75.1236C13.5027 75.026 13.4238 74.9238 13.3448 74.8263C13.3215 74.7937 13.3076 74.7798 13.289 74.7566C13.2797 74.7426 13.2704 74.7287 13.2519 74.7055C12.5829 73.8088 11.9324 72.9029 11.3192 71.9644C10.0648 70.041 8.95444 68.0201 8.00204 65.9294C7.88589 65.6739 7.77439 65.4137 7.65824 65.1536C7.64895 65.135 7.63966 65.1164 7.63037 65.0932C7.57926 64.9724 7.52816 64.8516 7.4817 64.7308C7.2587 64.1826 7.04499 63.6297 6.84522 63.0722C6.44567 61.9758 6.09259 60.8608 5.78132 59.7365C5.47469 58.6261 5.20523 57.5065 4.98223 56.3729C4.87073 55.8014 4.76852 55.23 4.6756 54.6586C4.63379 54.3984 4.59662 54.1336 4.55945 53.8734C4.55945 53.8641 4.55945 53.8595 4.55945 53.8502C4.55945 53.8316 4.55945 53.8177 4.55481 53.7991C4.53158 53.6132 4.50835 53.4274 4.48977 53.2416C4.21566 50.849 4.13203 48.4378 4.23424 46.0312C4.28535 44.7954 4.38756 43.5642 4.53622 42.3377C4.54087 42.2913 4.58733 42.059 4.57804 42.0265C4.57804 41.9986 4.58733 41.9707 4.59198 41.9428C4.62914 41.6827 4.67095 41.4179 4.71277 41.1577C4.81498 40.5305 4.92648 39.908 5.05656 39.2901C5.52579 36.995 6.17157 34.7371 6.98924 32.5396C7.17043 32.0564 7.35626 31.5779 7.55139 31.0994C7.56068 31.0762 7.57926 31.0297 7.59785 30.9833C7.5932 31.0018 7.58856 31.0111 7.57926 31.0297C7.63501 30.8857 7.70006 30.7463 7.7651 30.6069C7.89054 30.3235 8.01598 30.0448 8.14606 29.766C8.61994 28.7439 9.13098 27.7404 9.67455 26.7602C10.246 25.7381 10.8546 24.7346 11.5004 23.7589C11.7791 23.3362 12.0672 22.918 12.3599 22.4999C12.5364 22.2537 12.7129 22.0028 12.8941 21.7612C12.9685 21.659 13.0474 21.5568 13.1218 21.4546C13.1497 21.4174 13.2193 21.3245 13.2797 21.2502C14.6642 19.4847 16.1695 17.8122 17.7909 16.2605C18.5946 15.4893 19.4309 14.7506 20.2903 14.0398C20.5041 13.8633 20.7224 13.6867 20.9408 13.5148C21.0383 13.4358 21.1405 13.3569 21.2381 13.2779C21.2474 13.2732 21.252 13.2686 21.2567 13.2639C21.2706 13.2546 21.2799 13.2454 21.2985 13.2361C21.7677 12.8876 22.2323 12.5392 22.7108 12.2047C24.5645 10.8992 26.5158 9.73308 28.546 8.72028C29.0478 8.46941 29.5588 8.22318 30.0699 7.99088C30.3022 7.88403 30.5391 7.78182 30.7714 7.67961C30.79 7.67032 30.8318 7.65173 30.8783 7.63315C31.0316 7.56811 31.1849 7.50771 31.3382 7.44267C32.416 7.00596 33.5078 6.61106 34.6182 6.25798C36.8668 5.54251 39.1665 5.00359 41.4987 4.64122C41.7589 4.5994 42.019 4.55759 42.2839 4.52507C42.4325 4.50649 42.623 4.4879 42.6834 4.47861C43.2688 4.40892 43.8542 4.35317 44.4442 4.31136C45.6335 4.21844 46.8229 4.17663 48.0168 4.17663C49.2619 4.17663 50.507 4.22773 51.7521 4.3253C52.3143 4.37176 52.8718 4.42751 53.4293 4.49255C53.5594 4.50649 53.6941 4.52507 53.8242 4.53901C53.8474 4.53901 53.8613 4.53901 53.8799 4.54365C53.8892 4.54365 53.8939 4.54365 53.9032 4.54365C54.2191 4.59011 54.535 4.63657 54.8463 4.68767C57.1738 5.06399 59.4689 5.62149 61.7082 6.35089C62.786 6.70398 63.8546 7.09423 64.9046 7.5263C64.9278 7.53559 64.9742 7.55417 65.0207 7.57276C65.0021 7.56811 64.9928 7.56346 64.9742 7.55417C65.095 7.60063 65.2112 7.65638 65.3273 7.70749C65.5875 7.81899 65.843 7.93513 66.0985 8.05592C66.6328 8.30216 67.1624 8.55768 67.6874 8.82249C69.7084 9.84923 71.655 11.0246 73.504 12.3348C73.9175 12.6275 74.3217 12.9294 74.7259 13.2361C74.8188 13.3104 75.079 13.5102 75.1487 13.5659C75.4274 13.7889 75.7015 14.0119 75.971 14.2396C76.8258 14.955 77.6528 15.6984 78.4565 16.4742C79.2556 17.2501 80.0315 18.0538 80.7748 18.8854C81.1465 19.2989 81.5089 19.7217 81.8666 20.1537C82.0292 20.3489 82.1872 20.544 82.3498 20.7438C82.4473 20.8646 82.5402 20.9807 82.6332 21.1015C82.6657 21.1433 82.6982 21.1898 82.7354 21.2316C82.7493 21.2502 82.754 21.2595 82.7725 21.2827C84.1152 23.076 85.351 24.939 86.4335 26.9042C87.0003 27.9356 87.5299 28.9855 88.0177 30.0587C88.1246 30.291 88.2268 30.528 88.329 30.7603C88.3383 30.7788 88.3569 30.8206 88.3754 30.8625C88.4126 30.9461 88.4451 31.0297 88.4777 31.1133C88.7146 31.6848 88.9376 32.2609 89.1467 32.8416C89.9504 35.0437 90.5822 37.3109 91.0375 39.6106C91.1444 40.1542 91.2419 40.7024 91.3302 41.246C91.3767 41.534 91.4185 41.8174 91.4603 42.1054C91.4835 42.2913 91.5068 42.4771 91.53 42.6629C91.6647 43.8384 91.7576 45.0184 91.8041 46.1984C91.897 48.6282 91.8041 51.0673 91.5114 53.4832L91.4882 53.4878Z" fill="#10BCFF"/>
<path d="M65.8988 61.6599C62.4051 56.9862 58.9068 52.3124 55.4131 47.6387C54.7116 46.7002 54.0054 45.7571 53.3039 44.8186C55.1204 42.8581 56.9323 40.8975 58.7488 38.937C61.8476 35.592 64.9418 32.2469 68.0406 28.9019C68.756 28.1261 69.4715 27.3548 70.1916 26.579C70.5958 26.1423 70.317 25.3896 69.6991 25.3896H66.9348C66.3634 25.3896 65.4296 25.2131 64.9789 25.6405C64.0683 26.5093 63.2507 27.5082 62.3958 28.4327C59.1437 31.945 55.8916 35.4572 52.6395 38.9695L50.5907 41.1856L42.112 29.8497C41.3687 28.8508 40.6207 27.8566 39.8773 26.8577C39.5893 26.4721 39.2223 25.7381 38.7902 25.4872C38.5579 25.3525 38.2327 25.3943 37.9725 25.3943H24.2115C23.9653 25.3943 23.7841 25.5011 23.6772 25.6591C23.4682 25.8496 23.3892 26.1423 23.6122 26.4443C25.6982 29.2364 27.7842 32.0239 29.8702 34.8161C33.178 39.239 36.4905 43.6665 39.7984 48.0893C40.4581 48.9674 41.1131 49.8501 41.7729 50.7282C39.8216 52.8374 37.8657 54.9466 35.9144 57.0558C32.5787 60.6564 29.2476 64.2569 25.9119 67.8621C25.1407 68.6937 24.3741 69.5253 23.6029 70.3569C23.1987 70.7937 23.4774 71.5463 24.0953 71.5463H27.1244C27.7098 71.5463 28.4206 71.6857 28.8666 71.2397C29.8887 70.2083 30.8458 69.1026 31.8307 68.0387C35.3151 64.2755 38.7995 60.5077 42.2839 56.7446C43.0179 55.9501 43.752 55.1557 44.486 54.3612C47.4362 58.3056 50.3863 62.2546 53.341 66.1989C54.5722 67.8482 55.7476 69.5671 57.0531 71.1607C57.5084 71.7135 58.3075 71.5463 58.9625 71.5463H71.9152C72.3984 71.5463 72.8444 70.9377 72.5192 70.4963C70.317 67.5508 68.1149 64.61 65.9128 61.6645L65.8988 61.6599ZM59.4411 70.1432H58.0194C56.621 68.2756 55.2226 66.4033 53.8242 64.5357C51.4734 61.3904 49.118 58.2452 46.7672 55.0953C46.2236 54.3705 45.68 53.6411 45.1365 52.9164C44.8809 52.5772 44.3745 52.4146 44.04 52.777C42.2049 54.7561 40.3744 56.7399 38.5393 58.7191C35.6171 61.8736 32.6995 65.0281 29.7772 68.1827C29.1733 68.8377 28.5647 69.4882 27.9607 70.1432H25.6749C27.3986 68.2802 29.1222 66.4219 30.8411 64.5589C34.1769 60.9584 37.5079 57.3578 40.8437 53.7526L43.1527 51.2578C43.3432 51.0534 43.45 50.6631 43.2595 50.4123C41.1735 47.6201 39.0875 44.8326 37.0016 42.0404C33.6937 37.6176 30.3812 33.19 27.0733 28.7672C26.5762 28.1028 26.0791 27.4385 25.582 26.7741H38.0794C39.3617 28.4884 40.6393 30.1981 41.9215 31.9124C44.0865 34.8068 46.2561 37.7058 48.4211 40.6002C48.9228 41.2692 49.4246 41.9382 49.9263 42.6119C50.1819 42.951 50.6883 43.1136 51.0228 42.7512C52.7046 40.9347 54.3864 39.1182 56.0682 37.297L64.1566 28.5581C64.7095 27.9635 65.2623 27.3641 65.8152 26.7695H68.1009C66.5167 28.4791 64.9325 30.1935 63.3482 31.9031C60.2494 35.2482 57.1553 38.5932 54.0565 41.9382C53.341 42.7141 52.6256 43.4853 51.9055 44.2611C51.715 44.4656 51.6081 44.8558 51.7986 45.1067C54.0008 48.0522 56.2029 50.993 58.405 53.9385C61.8987 58.6122 65.3971 63.2859 68.8907 67.9597C69.4343 68.6844 69.9732 69.4092 70.5168 70.1339H59.4364L59.4411 70.1432Z" fill="white"/>
<path d="M62.6885 62.5054C59.8731 58.7422 57.0577 54.9791 54.2423 51.2159C51.1203 47.0393 47.9936 42.8626 44.8716 38.686C42.7206 35.8102 40.5695 32.9344 38.4185 30.0587C38.1862 29.7474 37.9493 29.4315 37.717 29.1202C37.5637 28.9158 37.3918 28.6324 37.1548 28.5302C36.8993 28.4233 36.5509 28.4698 36.2768 28.4698H30.3486C30.1024 28.4698 29.9212 28.5766 29.8144 28.7346C29.6053 28.9251 29.5263 29.2224 29.7493 29.5197C30.9712 31.1551 32.1977 32.7904 33.4196 34.4258L41.8657 45.7152C44.9878 49.8918 48.1144 54.0685 51.2364 58.2451L57.6895 66.8725C57.9218 67.1837 58.1588 67.4997 58.3911 67.8109C58.5444 68.0153 58.7163 68.2987 58.9532 68.401C59.2087 68.5078 59.5572 68.4613 59.8313 68.4613H65.7594C66.2426 68.4613 66.6886 67.8527 66.3634 67.4114C65.1415 65.776 63.915 64.1407 62.6931 62.5054H62.6885ZM59.5618 67.0629L56.9555 63.5785C54.6604 60.5123 52.3654 57.4414 50.0703 54.3751C47.2828 50.6445 44.4953 46.9185 41.7031 43.1879C39.3012 39.9776 36.904 36.7673 34.502 33.557C33.5822 32.3258 32.6623 31.09 31.7378 29.8589H36.5462C37.415 31.0203 38.2838 32.1818 39.1525 33.3433C41.4476 36.4095 43.7427 39.4805 46.0377 42.5467C48.8252 46.2774 51.6128 50.0033 54.4049 53.734C56.8068 56.9443 59.2041 60.1545 61.606 63.3648C62.3958 64.4194 63.1856 65.4741 63.9707 66.5287C64.0962 66.6959 64.2216 66.8771 64.3471 67.0629H59.5665H59.5618Z" fill="white"/>
<path d="M80.1894 14.7646C73.3461 8.22788 64.5329 3.84218 55.1714 2.41126C52.7974 2.04888 50.4001 1.86304 47.9936 1.8584C38.3488 1.87698 28.8248 4.87821 20.9733 10.4904C13.3494 15.94 7.46309 23.6243 4.22493 32.4235C0.84274 41.6037 0.485009 51.8479 3.16567 61.2557C5.73483 70.2641 11.0729 78.4222 18.2972 84.3828C25.6935 90.4875 34.8551 94.1995 44.4209 94.9336C54.0471 95.6769 63.822 93.3726 72.087 88.369C80.1104 83.5141 86.61 76.2247 90.4661 67.6763C94.4754 58.7888 95.5951 48.7444 93.6763 39.1833C91.8134 29.9055 87.0328 21.3013 80.1894 14.7692V14.7646ZM91.4789 60.8841C88.9747 69.6787 83.7528 77.5767 76.705 83.3979C69.5922 89.2656 60.6814 92.8569 51.4873 93.5445C42.1119 94.2507 32.653 92.0346 24.6063 87.1657C16.8199 82.4502 10.5619 75.3977 6.78944 67.1142C2.87298 58.5054 1.79514 48.6608 3.69065 39.4016C5.53041 30.4026 10.1438 22.1004 16.7873 15.7542C23.4495 9.38934 32.0072 5.18019 41.1131 3.77249C43.3895 3.41941 45.6939 3.26145 47.9982 3.2568C57.3643 3.27539 66.5538 6.18834 74.1916 11.6101C81.6017 16.8692 87.3673 24.4048 90.4753 32.9439C93.7274 41.8686 94.0852 51.755 91.4835 60.8934L91.4789 60.8841Z" fill="white"/>
</svg>
