<svg width="250" height="70" viewBox="0 0 250 70" fill="none" xmlns="http://www.w3.org/2000/svg">
<g clip-path="url(#clip0_2014_361)">
<path d="M214.47 60C212 60 209.54 60 207.07 60C200.55 60 194.03 60 187.5 60C178.23 60 168.96 60 159.7 60C149 60 138.29 60 127.59 60H95.11C85.47 60 75.83 60 66.19 60C59.05 60 51.9 60 44.76 60C41.43 60 38.09 60 34.76 60C33.73 60 32.71 59.97 31.69 59.87C31.46 59.85 31.23 59.82 31 59.8C30.04 59.7 31.17 59.8 31.18 59.83C31.17 59.77 29.95 59.62 29.84 59.6C28.9 59.41 27.97 59.18 27.06 58.91C26.2 58.65 25.38 58.32 24.54 58.03C23.94 57.83 25.27 58.38 24.7 58.1C24.5 58 24.3 57.92 24.1 57.83C23.65 57.62 23.21 57.4 22.77 57.17C21.99 56.76 21.24 56.32 20.5 55.84C20.13 55.6 19.77 55.36 19.41 55.1C19.23 54.97 19.06 54.84 18.88 54.72C19.34 55.14 18.02 54.1 18.88 54.72C17.54 53.51 16.19 52.36 15 50.99C14.71 50.66 14.45 50.32 14.16 49.98C14.89 50.84 14.06 49.83 13.88 49.58C13.34 48.82 12.84 48.04 12.37 47.23C11.93 46.47 11.52 45.69 11.15 44.89C11.06 44.69 10.97 44.48 10.88 44.29C10.6 43.72 11.15 45.05 10.95 44.45C10.79 43.98 10.59 43.52 10.43 43.05C10.14 42.2 9.88997 41.34 9.66997 40.47C9.55997 40.03 9.46997 39.59 9.37997 39.15C9.33997 38.93 9.28997 38.7 9.25997 38.48C9.25997 38.44 9.05997 37.35 9.17997 38.06C9.28997 38.7 9.09997 37.29 9.08997 37.12C9.04997 36.66 9.01997 36.2 8.99997 35.73C8.95997 34.85 8.96997 33.98 8.99997 33.1C9.01997 32.64 9.04997 32.18 9.09997 31.71C9.11997 31.48 9.14997 31.25 9.16997 31.02C9.26997 30.06 9.16997 31.19 9.13997 31.2C9.25997 31.17 9.63997 28.65 9.70997 28.37C9.92997 27.5 10.18 26.65 10.48 25.8C10.63 25.38 10.8 24.97 10.95 24.55C11.15 23.95 10.6 25.28 10.88 24.71C11 24.46 11.11 24.21 11.22 23.96C11.99 22.33 12.92 20.76 13.97 19.29C14.1 19.11 14.23 18.94 14.36 18.76C14.72 18.25 13.84 19.36 14.26 18.9C14.55 18.58 14.81 18.23 15.1 17.9C15.71 17.2 16.35 16.54 17.03 15.9C17.66 15.3 18.34 14.75 19 14.19C18.14 14.92 19.15 14.09 19.4 13.91C19.8 13.63 20.21 13.35 20.62 13.09C21.36 12.62 22.12 12.18 22.9 11.77C23.29 11.57 23.69 11.37 24.08 11.19C24.28 11.1 24.49 11.01 24.68 10.92C25.18 10.68 23.88 11.22 24.68 10.92C26.42 10.28 28.17 9.72997 29.99 9.37997C30.15 9.34997 31.55 9.09997 30.91 9.20997C30.27 9.31997 31.68 9.12997 31.85 9.11997C32.72 9.03997 33.59 9.00997 34.47 9.00997C34.64 9.00997 34.82 9.00997 34.99 9.00997H38.8C44.46 9.00997 50.12 9.00997 55.78 9.00997C64.5 9.00997 73.23 9.00997 81.95 9.00997C92.43 9.00997 102.9 9.00997 113.38 9.00997H146.13C156.18 9.00997 166.23 9.00997 176.28 9.00997H199.89C204.27 9.00997 208.65 9.00997 213.02 9.00997C214.55 9.00997 216.07 9.00997 217.6 9.16997C217.82 9.18997 218.06 9.20997 218.28 9.24997C217.24 9.03997 217.87 9.18997 218.1 9.23997C218.55 9.31997 218.99 9.38997 219.44 9.48997C220.37 9.68997 221.3 9.92997 222.21 10.21C222.64 10.34 223.06 10.48 223.48 10.64C223.69 10.72 223.9 10.8 224.1 10.87C224.25 10.92 224.92 11.19 224.33 10.96C223.74 10.73 224.41 11 224.55 11.06C224.75 11.15 224.95 11.24 225.15 11.34C225.6 11.55 226.04 11.78 226.47 12.01C227.24 12.43 227.99 12.88 228.72 13.36C229.08 13.6 229.44 13.85 229.8 14.11C229.98 14.24 230.15 14.37 230.33 14.5C229.89 14.17 229.9 14.15 230.32 14.5C231.7 15.66 232.99 16.9 234.16 18.28C234.4 18.56 235.08 19.45 234.48 18.64C234.74 18.99 235 19.34 235.25 19.7C235.78 20.46 236.27 21.25 236.73 22.06C237.16 22.83 237.55 23.61 237.92 24.41C238.4 25.43 237.71 23.8 238.11 24.86C238.28 25.33 238.46 25.8 238.62 26.27C238.9 27.12 239.14 27.98 239.35 28.86C239.45 29.3 239.55 29.74 239.63 30.19C239.67 30.41 239.7 30.64 239.75 30.86C239.92 31.73 239.7 30.27 239.75 30.86C239.93 32.66 240.02 34.45 239.92 36.26C239.89 36.72 239.86 37.18 239.81 37.64C239.79 37.86 239.77 38.1 239.73 38.32C239.94 37.28 239.79 37.91 239.74 38.14C239.57 39.09 239.39 40.03 239.14 40.96C238.91 41.82 238.65 42.68 238.34 43.52C238.26 43.73 238.18 43.94 238.11 44.14C238.06 44.29 237.79 44.96 238.02 44.37C238.25 43.78 237.98 44.45 237.92 44.59C237.8 44.84 237.69 45.09 237.57 45.34C236.78 46.97 235.83 48.51 234.77 49.98C234.12 50.89 235.19 49.51 234.47 50.36C234.19 50.69 233.91 51.03 233.62 51.35C233 52.04 232.35 52.7 231.67 53.33C231.35 53.63 231.02 53.92 230.69 54.2C230.41 54.44 229.52 55.12 230.33 54.52C229.63 55.04 228.92 55.55 228.18 56.01C227.44 56.47 226.68 56.91 225.9 57.31C225.51 57.51 225.11 57.7 224.71 57.89C224.52 57.98 224.3 58.1 224.11 58.16C224.23 58.12 225.04 57.8 224.26 58.09C222.63 58.7 220.99 59.22 219.28 59.56C218.83 59.65 218.39 59.72 217.94 59.8C217.3 59.92 218.77 59.71 218.12 59.78C217.89 59.8 217.66 59.83 217.43 59.86C216.45 59.96 215.46 60 214.47 60C212.12 60.01 209.86 62.06 209.97 64.5C210.08 66.94 211.95 69.01 214.47 69C222.96 68.95 231.07 65.83 237.43 60.24C243.79 54.65 247.52 47.27 248.6 39.26C249.68 31.25 247.96 22.61 243.39 15.7C238.82 8.78997 232.03 3.69997 224.12 1.37997C219.28 -0.0500305 214.4 -3.05481e-05 209.44 -3.05481e-05C203.41 -3.05481e-05 197.39 -3.05481e-05 191.36 -3.05481e-05C182.26 -3.05481e-05 173.16 -3.05481e-05 164.06 -3.05481e-05C153.32 -3.05481e-05 142.57 -3.05481e-05 131.83 -3.05481e-05C121.09 -3.05481e-05 109.66 -3.05481e-05 98.57 -3.05481e-05C88.57 -3.05481e-05 78.56 -3.05481e-05 68.56 -3.05481e-05C61.05 -3.05481e-05 53.54 -3.05481e-05 46.02 -3.05481e-05C42.33 -3.05481e-05 38.63 -3.05481e-05 34.94 -3.05481e-05C22.19 -3.05481e-05 10.06 6.84997 4.03997 18.24C0.109969 25.68 -1.00003 34.34 0.90997 42.53C2.81997 50.72 7.70997 57.57 14.32 62.48C20.09 66.77 27.34 68.97 34.5 69C35.33 69 36.15 69 36.98 69H52.21C60.66 69 69.11 69 77.55 69C88.05 69 98.55 69 109.05 69C120.19 69 131.33 69 142.47 69C152.83 69 163.18 69 173.54 69C181.83 69 190.13 69 198.42 69H212.6C213.22 69 213.85 69 214.47 69C216.82 69 219.08 66.93 218.97 64.5C218.86 62.07 216.99 60 214.47 60Z" fill="#10BCFF"/>
<path d="M214.47 63C212 63 209.54 63 207.07 63C200.55 63 194.03 63 187.5 63C178.23 63 168.96 63 159.7 63C149 63 138.29 63 127.59 63H95.1101C85.4701 63 75.8301 63 66.1901 63C59.0501 63 51.9001 63 44.7601 63C41.4301 63 38.0901 63 34.7601 63C22.6601 62.98 11.4901 55.39 7.54007 43.84C5.16007 36.9 5.49007 29.1 8.64007 22.45C11.7901 15.8 17.1901 10.67 23.8901 8.03004C27.4501 6.62004 31.1801 6.01004 35.0001 6.01004H38.8101C44.4701 6.01004 50.1301 6.01004 55.7901 6.01004C64.5101 6.01004 73.2401 6.01004 81.9601 6.01004C92.4401 6.01004 102.91 6.01004 113.39 6.01004H146.14C156.19 6.01004 166.24 6.01004 176.29 6.01004H199.9C204.28 6.01004 208.66 6.01004 213.03 6.01004C214.56 6.01004 216.08 6.01004 217.61 6.17004C224.85 6.92004 231.59 10.63 236.29 16.16C240.99 21.69 243.35 29.01 242.93 36.26C242.51 43.51 239.16 50.49 233.81 55.46C228.46 60.43 221.62 62.97 214.48 63.01C212.55 63.02 212.55 66.02 214.48 66.01C229.98 65.92 243.55 54.3 245.67 38.87C247.77 23.58 238.18 8.64004 223.34 4.28004C218.75 2.93004 214.15 3.02004 209.45 3.02004C203.42 3.02004 197.4 3.02004 191.37 3.02004C182.27 3.02004 173.17 3.02004 164.07 3.02004C153.33 3.02004 142.58 3.02004 131.84 3.02004C120.75 3.02004 109.67 3.02004 98.5801 3.02004C88.5801 3.02004 78.5701 3.02004 68.5701 3.02004C61.0601 3.02004 53.5501 3.02004 46.0301 3.02004C42.3401 3.02004 38.6401 3.02004 34.9501 3.02004C23.2001 3.02004 12.1701 9.29004 6.63007 19.77C3.09007 26.48 2.08007 34.36 3.80007 41.75C5.52007 49.14 9.85007 55.47 15.8301 59.91C21.2001 63.9 27.8201 65.99 34.5001 66.02C35.3301 66.02 36.1501 66.02 36.9801 66.02C42.0601 66.02 47.1301 66.02 52.2101 66.02C60.6601 66.02 69.1101 66.02 77.5501 66.02C88.0501 66.02 98.5501 66.02 109.05 66.02C120.19 66.02 131.33 66.02 142.47 66.02C152.83 66.02 163.18 66.02 173.54 66.02C181.83 66.02 190.13 66.02 198.42 66.02H212.6C213.22 66.02 213.85 66.02 214.47 66.02C216.4 66.02 216.4 63.02 214.47 63.02V63Z" fill="white"/>
</g>
<defs>
<clipPath id="clip0_2014_361">
<rect width="248.92" height="69" fill="white"/>
</clipPath>
</defs>
</svg>
