<svg width="31" height="31" viewBox="0 0 31 31" fill="none" xmlns="http://www.w3.org/2000/svg">
<path opacity="0.3" d="M16.6878 4.82523L18.8327 11.427C18.9918 11.9202 19.4505 12.2516 19.9675 12.2516H26.9087C28.0647 12.2516 28.5472 13.731 27.6113 14.4124L21.9958 18.4928C21.5769 18.7977 21.4019 19.336 21.561 19.8291L23.7059 26.4309C24.0638 27.5312 22.8044 28.4459 21.8685 27.7672L16.253 23.6868C15.8341 23.3819 15.2667 23.3819 14.8505 23.6868L9.23494 27.7672C8.29902 28.4459 7.03964 27.5312 7.39757 26.4309L9.54249 19.8291C9.70157 19.336 9.52658 18.7977 9.10767 18.4928L3.49481 14.4124C2.55889 13.7337 3.03878 12.2516 4.19741 12.2516H11.1386C11.6556 12.2516 12.1143 11.9175 12.2734 11.427L14.4183 4.82523C14.7762 3.72492 16.3325 3.72492 16.6905 4.82523H16.6878Z" stroke="#FFBB0D" stroke-width="5" stroke-miterlimit="10"/>
<path d="M16.6878 4.82523L18.8327 11.427C18.9918 11.9202 19.4505 12.2516 19.9675 12.2516H26.9087C28.0647 12.2516 28.5472 13.731 27.6113 14.4124L21.9958 18.4928C21.5769 18.7977 21.4019 19.336 21.561 19.8291L23.7059 26.4309C24.0638 27.5312 22.8044 28.4459 21.8685 27.7672L16.253 23.6868C15.8341 23.3819 15.2667 23.3819 14.8505 23.6868L9.23494 27.7672C8.29902 28.4459 7.03964 27.5312 7.39757 26.4309L9.54249 19.8291C9.70157 19.336 9.52658 18.7977 9.10767 18.4928L3.49481 14.4124C2.55889 13.7337 3.03878 12.2516 4.19741 12.2516H11.1386C11.6556 12.2516 12.1143 11.9175 12.2734 11.427L14.4183 4.82523C14.7762 3.72492 16.3325 3.72492 16.6905 4.82523H16.6878Z" stroke="#FFBB0D" stroke-width="3" stroke-miterlimit="10"/>
<path d="M16.6878 4.82523L18.8327 11.427C18.9918 11.9202 19.4505 12.2516 19.9675 12.2516H26.9087C28.0647 12.2516 28.5472 13.731 27.6113 14.4124L21.9958 18.4928C21.5769 18.7977 21.4019 19.336 21.561 19.8291L23.7059 26.4309C24.0638 27.5312 22.8044 28.4459 21.8685 27.7672L16.253 23.6868C15.8341 23.3819 15.2667 23.3819 14.8505 23.6868L9.23494 27.7672C8.29902 28.4459 7.03964 27.5312 7.39757 26.4309L9.54249 19.8291C9.70157 19.336 9.52658 18.7977 9.10767 18.4928L3.49481 14.4124C2.55889 13.7337 3.03878 12.2516 4.19741 12.2516H11.1386C11.6556 12.2516 12.1143 11.9175 12.2734 11.427L14.4183 4.82523C14.7762 3.72492 16.3325 3.72492 16.6905 4.82523H16.6878Z" stroke="white" stroke-miterlimit="10"/>
</svg>
