<svg width="150" height="150" viewBox="0 0 150 150" fill="none" xmlns="http://www.w3.org/2000/svg">
<g clip-path="url(#clip0_2012_1858)">
<g opacity="0.6">
<rect y="131.304" width="150" height="7.82609" fill="url(#paint0_linear_2012_1858)"/>
<rect y="108.478" width="150" height="6.52174" fill="url(#paint1_linear_2012_1858)"/>
<rect y="85.6522" width="150" height="5.21739" fill="url(#paint2_linear_2012_1858)"/>
<rect y="62.826" width="150" height="3.91304" fill="url(#paint3_linear_2012_1858)"/>
<rect y="40" width="150" height="1.95652" fill="url(#paint4_linear_2012_1858)"/>
</g>
<g clip-path="url(#clip1_2012_1858)">
<path d="M38.627 95.2058C38.627 95.2058 38.6318 95.2348 38.6366 95.2493C38.6366 95.2252 38.6318 95.2107 38.627 95.1962V95.2058Z" fill="#FF0DF5"/>
<path d="M116.052 86.7454C115.839 83.8882 115.457 81.0359 114.94 78.2125C114.263 74.4947 113.335 70.8253 112.17 67.2333C110.69 62.655 108.829 58.1879 106.634 53.9093C104.096 48.9684 101.06 44.3225 97.6371 39.952C93.784 35.0353 89.3894 30.5537 84.5839 26.5604C81.9007 24.3317 79.0967 22.2432 76.2008 20.3045C75.9349 20.1256 75.6255 20.0386 75.3016 20.0145C74.8616 19.9564 74.4023 20.0338 74.0011 20.3045C73.9479 20.3384 73.8996 20.377 73.8464 20.4109C73.8125 20.4351 73.7787 20.4544 73.7449 20.4834C68.1755 24.235 62.9494 28.5232 58.2889 33.3674C54.1892 37.6266 50.5053 42.3161 47.3435 47.3102C44.5636 51.6999 42.2237 56.3411 40.2561 61.1514C38.6559 65.0577 37.3457 69.0849 36.3401 73.1846C35.5182 76.5156 34.9139 79.8949 34.4933 83.3032C34.2468 85.3096 34.0727 87.3304 34.0195 89.3512C33.9664 91.2754 34.0389 93.2092 34.2661 95.1188C34.9864 101.065 37.0315 106.794 40.3721 111.779C43.6741 116.71 48.0542 120.868 53.1304 123.937C58.4532 127.157 64.4432 129.081 70.6121 129.753C76.7906 130.425 83.1915 129.72 89.0606 127.675C94.746 125.697 99.9867 122.54 104.328 118.363C108.607 114.249 111.904 109.187 113.949 103.618C115.476 99.4602 116.148 95.0657 116.197 90.6469C116.211 89.3464 116.148 88.0411 116.052 86.7406V86.7454ZM69.8192 125.31C69.8869 125.32 70.0029 125.335 70.0078 125.335C69.9546 125.344 69.8821 125.325 69.8192 125.31ZM111.681 94.2196C111.648 94.5725 111.609 94.9206 111.565 95.2735C111.565 95.2832 111.565 95.288 111.565 95.2977C111.565 95.3122 111.565 95.3219 111.561 95.3412C111.532 95.5298 111.507 95.7135 111.474 95.902C111.357 96.6175 111.222 97.3282 111.063 98.0341C110.758 99.3829 110.376 100.712 109.917 102.018C109.801 102.342 109.685 102.666 109.559 102.985C109.501 103.134 109.443 103.28 109.385 103.425C109.356 103.497 109.327 103.57 109.298 103.642C109.279 103.695 109.148 103.99 109.187 103.913C109.158 103.981 109.129 104.048 109.119 104.068C109.056 104.213 108.989 104.358 108.926 104.498C108.771 104.831 108.611 105.165 108.452 105.494C107.833 106.741 107.142 107.95 106.388 109.115C106.015 109.685 105.629 110.251 105.227 110.797C105.135 110.923 105.039 111.049 104.947 111.179C104.903 111.232 104.865 111.29 104.821 111.344C104.618 111.595 104.42 111.851 104.212 112.098C103.322 113.176 102.375 114.201 101.374 115.172C100.383 116.135 99.334 117.034 98.2511 117.889C98.2172 117.918 98.1737 117.947 98.135 117.976C98.0093 118.073 97.8788 118.165 97.7483 118.262C97.4485 118.484 97.144 118.697 96.8346 118.91C96.2641 119.306 95.6791 119.683 95.0893 120.046C93.871 120.79 92.614 121.472 91.3232 122.081C91.0041 122.231 90.685 122.376 90.3611 122.521C90.2113 122.589 90.0614 122.651 89.9115 122.714C90.3176 122.54 89.9309 122.705 89.752 122.777C89.0655 123.053 88.3741 123.314 87.6731 123.551C86.3098 124.015 84.9223 124.406 83.5203 124.721C82.7806 124.885 82.0361 125.03 81.2915 125.156C80.958 125.214 80.6195 125.257 80.286 125.31C80.0636 125.344 80.3391 125.31 80.4213 125.296C80.3295 125.32 80.1989 125.325 80.1071 125.335C79.9089 125.359 79.7107 125.383 79.5124 125.402C76.5005 125.726 73.4548 125.717 70.4477 125.373C70.2495 125.349 70.0513 125.325 69.8531 125.301C69.8241 125.301 69.8095 125.296 69.795 125.296C69.7805 125.296 69.766 125.291 69.7564 125.286C69.3648 125.228 68.9732 125.165 68.5864 125.098C67.8709 124.972 67.1554 124.827 66.4447 124.663C65.0185 124.334 63.6068 123.923 62.2242 123.439C61.5522 123.203 60.8898 122.946 60.2323 122.68C60.2082 122.671 60.1985 122.666 60.1792 122.661C60.1695 122.656 60.1647 122.656 60.1502 122.647C59.9761 122.569 59.8021 122.497 59.628 122.419C59.3041 122.274 58.985 122.129 58.6708 121.975C57.3848 121.356 56.1327 120.669 54.9192 119.915C54.3294 119.548 53.7492 119.166 53.1788 118.769C52.8935 118.571 52.6131 118.368 52.3376 118.165C52.2167 118.078 52.0958 117.986 51.975 117.894C51.9121 117.846 51.7913 117.754 51.7623 117.73C50.6842 116.879 49.6496 115.965 48.6682 115.003C47.6722 114.027 46.7295 112.992 45.8496 111.914C45.7481 111.793 45.6514 111.667 45.5547 111.547C45.5015 111.484 45.4339 111.392 45.3855 111.329C45.2066 111.087 45.0229 110.846 44.8489 110.604C44.4331 110.029 44.0367 109.444 43.6548 108.844C42.9199 107.693 42.2527 106.499 41.6533 105.276C41.5034 104.967 41.3584 104.657 41.2182 104.348C41.1553 104.203 41.0876 104.058 41.0248 103.913C40.9958 103.85 40.9668 103.782 40.9426 103.719C40.9426 103.719 40.9426 103.71 40.9377 103.705C40.6815 103.067 40.435 102.429 40.2126 101.781C39.7533 100.446 39.3714 99.088 39.0765 97.7101C38.9314 97.0285 38.8009 96.342 38.6945 95.6506C38.6752 95.5249 38.6704 95.3702 38.6365 95.2397C38.6559 95.3702 38.6752 95.5926 38.6365 95.2639C38.6365 95.2397 38.6317 95.2155 38.6268 95.1962C38.6268 95.1865 38.6268 95.1768 38.622 95.172C38.622 95.172 38.622 95.1817 38.622 95.1913C38.6172 95.1382 38.6075 95.0802 38.6027 95.027C38.5592 94.6741 38.5253 94.326 38.4915 93.973C38.39 92.8418 38.3609 91.7057 38.3513 90.5695C38.3368 89.2449 38.4093 87.9154 38.5108 86.5956C38.6027 85.4063 38.7235 84.217 38.8734 83.0325C38.8879 82.9358 38.8976 82.844 38.9121 82.7473C38.8879 82.9213 38.8686 83.0712 38.9072 82.8005C38.9072 82.7811 38.9121 82.7618 38.9169 82.7424C38.9266 82.6844 38.9314 82.6312 38.9411 82.5732C38.9363 82.6167 38.9266 82.6748 38.9218 82.7328C38.9314 82.6603 38.9411 82.5926 38.9508 82.5201C38.9991 82.1671 39.0523 81.8094 39.1103 81.4565C39.2312 80.6829 39.3617 79.9094 39.5067 79.1407C40.1884 75.4616 41.1166 71.8309 42.2721 68.2775C42.9489 66.1987 43.7031 64.144 44.5346 62.1232C44.583 62.0023 44.6362 61.8815 44.6845 61.7606C44.6942 61.7413 44.699 61.7268 44.7038 61.7122C44.8247 61.4318 44.9407 61.1563 45.0616 60.8807C45.2937 60.3441 45.5354 59.8123 45.7819 59.2805C46.2847 58.1879 46.8165 57.1098 47.3628 56.0413C48.5473 53.7401 49.8381 51.4921 51.2305 49.3117C51.9508 48.1852 52.6953 47.0733 53.464 45.9807C53.8749 45.4006 54.2907 44.8204 54.7162 44.2499C54.924 43.9695 55.1319 43.694 55.3446 43.4184C55.4703 43.254 55.6299 43.0558 55.3978 43.3459C55.5138 43.196 55.6299 43.0461 55.7459 42.8963C59.5362 38.0762 63.8486 33.6768 68.5574 29.756C69.1617 29.2532 69.7709 28.7553 70.3897 28.2718C70.5396 28.1558 70.6894 28.0349 70.8393 27.9189C70.8635 27.8996 70.9553 27.827 71.0133 27.7835C71.0424 27.7594 71.0714 27.7352 71.081 27.7304C71.3904 27.4935 71.695 27.2614 72.0044 27.0293C73.0197 26.2703 74.0591 25.5355 75.1082 24.8151C76.1815 25.5548 77.2451 26.3042 78.2893 27.0874C78.5987 27.3194 78.9033 27.5515 79.2127 27.7884C79.2127 27.7884 79.2175 27.7932 79.2272 27.798C79.3046 27.8561 79.3771 27.9141 79.4544 27.9769C79.6285 28.1123 79.8025 28.2525 79.9766 28.3879C80.6147 28.8955 81.248 29.4128 81.8717 29.9349C84.3083 31.9799 86.6385 34.1458 88.8431 36.4373C90.8784 38.5549 92.8074 40.7739 94.6155 43.0848C94.7412 43.2492 94.9007 43.4522 94.6735 43.1573C94.7896 43.3072 94.9007 43.4571 95.0168 43.6069C95.2247 43.8825 95.4325 44.1581 95.6404 44.4385C96.061 45.009 96.4768 45.5843 96.8877 46.1692C97.6564 47.2618 98.3961 48.3738 99.1116 49.5002C100.494 51.6806 101.775 53.9287 102.95 56.2299C103.497 57.2983 104.019 58.3764 104.521 59.469C104.773 60.0202 105.019 60.5713 105.261 61.1273C105.367 61.369 105.464 61.6156 105.575 61.8573C105.556 61.8138 105.542 61.7848 105.527 61.7558C105.546 61.8041 105.571 61.8524 105.585 61.8863C105.643 62.0265 105.701 62.1667 105.759 62.3069C107.335 66.1648 108.636 70.1388 109.641 74.1853C110.062 75.8726 110.424 77.5695 110.739 79.2809C110.879 80.0496 111.009 80.8183 111.125 81.587C111.179 81.9399 111.232 82.2928 111.28 82.6458C111.285 82.6844 111.29 82.7231 111.295 82.7569C111.314 82.902 111.333 83.0422 111.348 83.1872C111.599 85.1839 111.773 87.1902 111.836 89.2014C111.884 90.8741 111.846 92.5565 111.686 94.2244L111.681 94.2196Z" fill="#FF0DF5"/>
<path d="M105.522 61.7557C105.454 61.601 105.382 61.4511 105.522 61.7557Z" fill="#FF0DF5"/>
<path d="M89.873 78.3624C87.1754 76.2594 83.9798 74.8284 80.7551 73.6633V65.3769C81.3546 65.5364 81.9493 65.7298 82.5294 65.9619C82.5536 65.9715 82.5874 65.986 82.6213 66.0054C82.805 66.0924 82.9935 66.1794 83.1772 66.2761C83.4528 66.4163 83.7284 66.5662 83.9943 66.7257C84.2988 66.9046 84.5937 67.0931 84.8838 67.2913C85.0288 67.3929 85.1739 67.4992 85.3189 67.6008C85.3673 67.6346 85.3963 67.6539 85.4156 67.6733C85.4253 67.6829 85.4591 67.712 85.5606 67.7941C86.4599 68.5193 87.7555 68.7175 88.6354 67.7941C90.4435 65.899 92.2565 64.0087 94.0646 62.1136C94.8236 61.3207 94.9831 59.8075 94.0646 59.0388C91.8552 57.1775 89.4138 55.7417 86.7451 54.6394C84.821 53.8417 82.8001 53.3437 80.7503 53.044V44.4289C80.7503 43.2928 79.7495 42.2002 78.5748 42.2533H72.8603C71.6856 42.2533 70.6848 43.2492 70.6848 44.4289V53.1504C68.0113 53.6338 65.4152 54.504 63.1429 56.0414C60.3389 57.9365 58.2166 60.61 57.1433 63.8347C56.1087 66.9433 56.0604 70.6658 57.1578 73.7696C58.2166 76.767 60.1987 79.1214 62.7465 80.9634C65.1348 82.6893 67.9001 83.898 70.6848 84.889V95.5927C70.5688 95.5637 70.4479 95.5443 70.3319 95.5105C69.9451 95.409 69.5584 95.2929 69.1813 95.1576C69.1233 95.1382 68.7026 94.9739 68.6543 94.9594C68.5189 94.8965 68.3787 94.8385 68.2434 94.7708C67.436 94.3792 66.6528 93.9296 65.8986 93.4413C65.478 93.1657 65.0671 92.8757 64.661 92.5808C64.5981 92.5373 64.5595 92.5082 64.5256 92.4841C64.4966 92.4599 64.4579 92.4261 64.3999 92.3825C64.1679 92.194 63.9358 92.0054 63.7086 91.8121C62.8577 91.0966 61.4557 90.8645 60.6338 91.8121C58.8257 93.8957 57.0128 95.9746 55.2046 98.0583C54.4505 98.9237 54.3006 100.287 55.2046 101.133C57.4962 103.28 60.2229 104.972 63.0994 106.214C65.5409 107.268 68.0742 107.921 70.6848 108.278V116.705C70.6848 117.88 71.6807 118.881 72.8603 118.881H78.5748C79.7495 118.881 80.7503 117.885 80.7503 116.705V107.94C83.4286 107.408 86.0199 106.499 88.2873 104.918C91.1832 102.893 93.3346 100.181 94.5819 96.869C95.834 93.5332 95.9597 89.622 95.0943 86.175C94.3063 83.0471 92.3967 80.3397 89.873 78.3721V78.3624ZM91.2122 92.2569C91.1977 92.4212 91.1784 92.5856 91.159 92.7451C91.1445 92.8273 91.0962 93.1077 91.0962 93.1319C91.0237 93.538 90.9318 93.9393 90.8254 94.3405C90.7384 94.6693 90.6369 94.998 90.5257 95.3171C90.458 95.5105 90.3855 95.699 90.313 95.8924C90.2985 95.9263 90.2888 95.9553 90.2791 95.9843C90.2743 95.9988 90.2646 96.0133 90.255 96.0326C89.9166 96.7046 89.5926 97.3669 89.1817 97.9954C89.0367 98.2178 88.882 98.4354 88.7224 98.6481C88.6644 98.7158 88.529 98.885 88.5097 98.914C88.4082 99.0349 88.3018 99.1509 88.2003 99.2669C87.7023 99.8132 87.1609 100.306 86.6001 100.785C86.5662 100.814 86.5372 100.838 86.5179 100.857C86.4937 100.877 86.4599 100.896 86.4212 100.925C86.2568 101.041 86.0973 101.157 85.9329 101.268C85.6235 101.481 85.3044 101.679 84.9805 101.868C84.6082 102.085 84.2311 102.284 83.8444 102.467C83.7332 102.521 83.6172 102.574 83.506 102.622C83.4576 102.641 83.4238 102.656 83.3948 102.67C83.3126 102.704 83.2352 102.738 83.153 102.767C82.4182 103.052 81.6688 103.284 80.905 103.478C80.5037 103.579 80.1025 103.666 79.6964 103.749C79.4885 103.787 79.2806 103.826 79.0727 103.86C78.9954 103.874 78.1735 103.99 78.5796 103.937C77.4145 104.087 76.404 104.812 76.404 106.113V114.515H75.0407V106.325C75.0407 105.083 74.04 104.242 72.8652 104.15C72.4591 104.116 72.053 104.082 71.6517 104.039C71.5067 104.024 71.3616 104.005 71.2166 103.985C71.1683 103.976 71.0184 103.956 70.9362 103.942C70.211 103.831 69.4858 103.691 68.7703 103.521C68.079 103.357 67.3925 103.168 66.7157 102.946C66.4014 102.844 66.0872 102.733 65.7778 102.617C65.6231 102.559 65.4732 102.501 65.3185 102.438C65.2653 102.419 65.2315 102.405 65.2025 102.395C65.1783 102.385 65.1541 102.371 65.1203 102.356C63.7956 101.766 62.5 101.09 61.272 100.316C60.7789 100.007 60.3002 99.673 59.8313 99.3346C60.7063 98.3242 61.5862 97.3186 62.4613 96.3082C63.6457 97.1832 64.893 97.9713 66.2274 98.5901C68.3401 99.5763 70.5398 100.084 72.8652 100.258C74.04 100.345 75.0407 99.1896 75.0407 98.0825V83.3178C75.0407 82.3219 74.359 81.5194 73.4453 81.2196C72.667 80.9634 71.8983 80.6927 71.1344 80.4026C70.8057 80.2769 70.4818 80.1464 70.153 80.0158C70.1095 80.0013 70.0805 79.9868 70.0515 79.9771C69.8243 79.8805 69.6019 79.7838 69.3746 79.6822C68.2192 79.1601 67.0879 78.58 66.0147 77.9031C65.536 77.6034 65.0187 77.2892 64.5885 76.9169C64.4918 76.8347 64.3757 76.7283 64.3177 76.68C64.1002 76.4963 63.8923 76.3029 63.6892 76.1047C63.5007 75.921 63.317 75.7276 63.1381 75.5342C63.0124 75.394 62.8915 75.249 62.7707 75.1088C62.761 75.0991 62.7465 75.0798 62.732 75.0653C62.3501 74.5383 61.9972 73.992 61.7071 73.407C61.6442 73.2862 61.5911 73.1653 61.533 73.0444C61.504 72.9816 61.4654 72.8946 61.4509 72.8462C61.33 72.532 61.2285 72.2129 61.1366 71.889C61.0544 71.5892 60.9819 71.2895 60.9191 70.9849C60.8949 70.8641 60.8755 70.7384 60.8514 70.6127C60.8417 70.5402 60.832 70.4966 60.8272 70.4628C60.8175 70.3903 60.8079 70.3129 60.803 70.2404C60.7402 69.5636 60.7257 68.8867 60.7499 68.2099C60.7644 67.857 60.7934 67.5041 60.8272 67.156C60.8272 67.1076 60.8369 67.069 60.8369 67.04C60.8417 67.0061 60.8514 66.9723 60.861 66.9191C60.8997 66.7209 60.9336 66.5178 60.9771 66.3196C61.1269 65.6186 61.3348 64.9321 61.6007 64.2698C61.6104 64.2504 61.6201 64.2359 61.6297 64.2069C61.7168 64.028 61.7989 63.854 61.8908 63.68C62.0697 63.3415 62.2631 63.0128 62.4661 62.6937C62.6063 62.4762 62.761 62.2634 62.9157 62.0556C62.9737 61.983 63.0946 61.8332 63.1188 61.8042C63.201 61.7123 63.2783 61.6204 63.3605 61.5286C63.7908 61.05 64.2646 60.6149 64.7577 60.2039C64.835 60.1459 64.9994 60.0154 65.0236 59.996C65.1831 59.8849 65.3427 59.7737 65.5022 59.6673C65.8309 59.4546 66.1645 59.2515 66.5078 59.063C66.8365 58.8841 67.1701 58.7149 67.5085 58.5554C67.5424 58.5409 67.7841 58.4345 67.8421 58.4103C67.9678 58.362 68.0935 58.3088 68.2192 58.2604C68.9976 57.9704 69.7953 57.7383 70.6026 57.5498C71.0087 57.4579 71.4197 57.3757 71.8306 57.3032C72.0046 57.2742 72.1835 57.2452 72.3575 57.221C72.6186 57.1824 72.6428 57.1824 72.4252 57.2114C72.5703 57.192 72.7153 57.1775 72.8603 57.163C74.0303 57.0373 75.0359 56.2686 75.0359 54.9875V46.5851H76.3992V54.9536C76.3992 56.2009 77.4 57.0276 78.5748 57.1292C78.9083 57.1582 79.2419 57.1872 79.5707 57.2259C79.59 57.2259 79.7302 57.2452 79.8124 57.2549C79.9139 57.2694 80.146 57.3032 80.175 57.308C80.7648 57.3999 81.3546 57.5159 81.9396 57.6513C83.124 57.9269 84.2698 58.2991 85.4059 58.7439C85.4156 58.7487 85.4204 58.7487 85.4349 58.7584C85.5655 58.8213 85.7008 58.8744 85.8314 58.9373C86.1214 59.0727 86.4115 59.208 86.6968 59.3531C87.2576 59.6335 87.8039 59.9332 88.3405 60.2523C88.6499 60.436 88.9448 60.639 89.2494 60.8373C88.4324 61.693 87.6153 62.5438 86.7983 63.3996C84.323 61.8187 81.577 60.8469 78.5699 60.6245C77.3951 60.5375 76.3944 61.693 76.3944 62.8001V75.191C76.3944 76.1917 77.076 76.9797 77.9898 77.2892C78.773 77.5551 79.5562 77.8306 80.3297 78.1304C80.6633 78.2609 80.9969 78.3963 81.3304 78.5268C81.3884 78.551 81.432 78.5655 81.4658 78.58C81.4948 78.5945 81.5335 78.609 81.5867 78.6331C81.8042 78.7298 82.0266 78.8265 82.2442 78.9232C83.5301 79.5082 84.7968 80.1512 85.9909 80.9054C86.3052 81.1036 86.6049 81.3163 86.9095 81.529C86.9433 81.5532 86.9723 81.5725 86.9965 81.587C87.0062 81.5919 87.011 81.5967 87.0207 81.6064C87.1464 81.7079 87.2721 81.8094 87.3978 81.9158C87.9731 82.4041 88.5097 82.9359 88.998 83.5112C89.0753 83.603 89.1527 83.6997 89.2301 83.7964C88.9158 83.4145 89.2929 83.8834 89.3316 83.9415C89.5056 84.188 89.6748 84.4443 89.8295 84.7005C89.9939 84.9712 90.1438 85.2516 90.284 85.5369C90.3227 85.6142 90.3565 85.6916 90.3903 85.7641C90.371 85.7399 90.5499 86.175 90.574 86.2475C90.7771 86.8373 90.9366 87.4368 91.0527 88.0508C91.0768 88.1813 91.101 88.3119 91.1204 88.4472C91.1204 88.4569 91.1687 88.8002 91.1735 88.8437C91.217 89.2594 91.2412 89.6752 91.2557 90.091C91.2799 90.8113 91.2654 91.5268 91.2025 92.2472L91.2122 92.2569Z" fill="#FF0DF5"/>
<path d="M74.9633 62.3068C74.944 62.244 74.915 62.1956 74.8908 62.1376C74.8715 62.0893 74.8521 62.0409 74.828 61.9926C74.7941 61.9201 74.7554 61.8476 74.7119 61.7799C74.6781 61.7219 74.6394 61.6638 74.5959 61.6058C74.5621 61.5575 74.5234 61.514 74.4847 61.4705C74.0834 60.9967 73.5033 60.6824 72.8603 60.7114C72.7056 60.7163 72.5557 60.7405 72.4107 60.7743C72.3672 60.7791 72.3285 60.7791 72.285 60.7888C70.8105 61.045 69.2973 61.7025 68.282 62.8338C67.0395 64.2116 66.3724 65.9908 66.4352 67.8472C66.4932 69.5441 66.967 71.2217 68.1176 72.498C69.0845 73.5713 70.4769 74.3061 71.7677 74.9153C72.4881 75.2537 73.2471 75.3359 73.9626 74.9153C74.6249 74.5285 75.0407 73.8033 75.0407 73.0347V62.9643C75.0552 62.7371 75.031 62.5099 74.9633 62.302V62.3068ZM70.8105 67.1075C70.8105 67.1075 70.8105 67.1075 70.8105 67.1027C70.8105 67.1124 70.8105 67.122 70.8105 67.1317C70.8105 67.122 70.8105 67.1172 70.8056 67.1075H70.8105Z" fill="#FF0DF5"/>
<path d="M79.6768 83.7238C79.6768 83.7238 79.6429 83.7093 79.6236 83.7045C79.3094 83.5208 78.9564 83.4096 78.5745 83.4289C78.4005 83.4386 78.2361 83.4676 78.0717 83.5111C77.5061 83.6271 76.9888 83.9511 76.6987 84.507C76.6794 84.5457 76.6649 84.5892 76.6504 84.6279C76.4957 84.918 76.4038 85.2467 76.4038 85.6045V97.889C76.4038 99.3442 77.7913 100.311 79.1595 99.9872C80.663 99.6343 82.1811 98.9091 83.2108 97.7295C84.4001 96.3758 84.9416 94.7611 85.1156 92.9916C85.3042 91.0675 84.9464 88.9741 83.9408 87.3062C82.9691 85.6867 81.3302 84.565 79.6816 83.7287L79.6768 83.7238ZM80.7791 92.8273C80.7742 92.9094 80.7742 92.9626 80.7791 92.9916C80.7742 93.0206 80.7694 93.0448 80.7597 93.0738V91.2609C80.7742 91.3866 80.7791 91.4591 80.7742 91.2174C80.7839 91.4252 80.8081 91.638 80.8129 91.8458C80.8226 92.1746 80.8129 92.4985 80.7839 92.8273H80.7791Z" fill="#FF0DF5"/>
<path d="M114.422 86.7455C114.224 84.0285 113.857 81.326 113.368 78.6476C112.692 74.9299 111.763 71.2605 110.598 67.6684C109.158 63.2255 107.359 58.8889 105.227 54.7361C102.757 49.9257 99.8172 45.3668 96.4862 41.1075C92.6331 36.1908 88.2385 31.7092 83.433 27.7159C80.8659 25.5839 78.1827 23.592 75.4125 21.7356C75.3255 21.6631 75.2191 21.6196 75.1031 21.6244C74.9871 21.6244 74.8807 21.6631 74.7985 21.7356C69.2582 25.4485 64.0756 29.7077 59.4489 34.5181C55.4411 38.6806 51.849 43.2492 48.7598 48.1273C46.0573 52.3962 43.7464 56.9019 41.8367 61.5769C40.2365 65.4832 38.9264 69.5104 37.9208 73.6101C37.1376 76.8008 36.5381 80.0351 36.132 83.2936C35.8854 85.2999 35.7114 87.3208 35.6582 89.3416C35.605 91.2658 35.6775 93.1996 35.9048 95.1092C36.5864 100.766 38.6169 106.214 41.7884 110.947C44.9357 115.641 49.132 119.601 53.9617 122.521C59.0235 125.581 64.7427 127.472 70.6215 128.115C76.6743 128.777 82.8867 128.095 88.6398 126.094C94.0545 124.208 99.0534 121.182 103.187 117.203C107.258 113.292 110.439 108.477 112.387 103.178C113.871 99.146 114.529 94.9255 114.577 90.6421C114.592 89.3416 114.529 88.0363 114.432 86.7358L114.422 86.7455ZM113.315 94.2197C112.783 99.8132 110.845 105.233 107.789 109.942C104.758 114.612 100.649 118.552 95.9061 121.462C90.941 124.508 85.2991 126.422 79.5074 127.041C73.5416 127.679 67.4549 127.007 61.7888 125.025C56.4612 123.159 51.5445 120.123 47.5125 116.168C43.5433 112.272 40.4492 107.49 38.6363 102.226C37.3358 98.4547 36.7653 94.5581 36.7218 90.5744C36.7073 89.2498 36.7798 87.9203 36.8813 86.6004C37.0844 83.9511 37.4422 81.3211 37.9256 78.7105C38.6073 75.0314 39.5355 71.4007 40.691 67.8473C42.1026 63.5059 43.8576 59.2805 45.9509 55.2244C48.3972 50.4768 51.2882 45.9517 54.5902 41.7505C58.3805 36.9305 62.6929 32.5311 67.4017 28.6103C69.8673 26.5556 72.4441 24.6411 75.1031 22.8475C80.4791 26.4734 85.4925 30.6214 89.9935 35.2964C93.9384 39.3961 97.4725 43.8826 100.513 48.6881C103.163 52.8748 105.454 57.2935 107.33 61.8767C108.906 65.7346 110.207 69.7086 111.212 73.7551C111.981 76.8637 112.585 80.0158 112.986 83.1921C113.238 85.1888 113.412 87.1951 113.475 89.2062C113.523 90.879 113.484 92.5614 113.325 94.2293L113.315 94.2197Z" fill="white"/>
<path d="M88.7169 79.5179C85.9129 77.3472 82.461 75.9597 79.1204 74.8187V63.4189C81.9099 63.7331 84.5302 64.8741 86.7106 66.6435C86.933 66.8272 87.2617 66.8756 87.4793 66.6435C89.2874 64.7484 91.1003 62.8581 92.9084 60.963C93.097 60.7647 93.1357 60.3876 92.9084 60.1943C88.9828 56.8874 84.187 55.0116 79.1155 54.4799V44.424C79.1155 44.2742 79.0575 44.163 78.9802 44.0808C78.9705 44.0663 78.9608 44.0566 78.9512 44.0421C78.9415 44.0324 78.927 44.0276 78.9173 44.0179C78.8303 43.9406 78.7191 43.8826 78.5692 43.8826H72.8548C72.5599 43.8826 72.3134 44.134 72.3134 44.424V54.5282C69.3595 54.9053 66.4491 55.761 63.9641 57.4434C61.5275 59.092 59.6469 61.4561 58.7138 64.2601C57.7614 67.1221 57.7179 70.4676 58.7283 73.3248C59.6324 75.892 61.3825 77.966 63.5677 79.542C66.1929 81.4372 69.2579 82.6893 72.3182 83.7191V97.5023C70.6261 97.3283 68.9582 96.9173 67.4208 96.1728C65.6659 95.3219 64.0463 94.2148 62.5621 92.9579C62.3494 92.779 61.9965 92.721 61.7934 92.9579C59.9853 95.0415 58.1724 97.1204 56.3643 99.2041C56.1757 99.4216 56.137 99.76 56.3643 99.9727C60.7057 104.043 66.4539 106.267 72.323 106.823V116.695C72.323 116.99 72.5744 117.237 72.8645 117.237H78.5789C78.8738 117.237 79.1204 116.985 79.1204 116.695V106.577C82.0888 106.137 84.9847 105.233 87.4648 103.497C89.9884 101.733 91.9222 99.3104 93.01 96.4194C94.1654 93.3446 94.3201 89.7767 93.5224 86.5956C92.8021 83.7287 91.0423 81.3066 88.7217 79.513L88.7169 79.5179ZM87.7548 101.936C85.1394 104.063 81.8906 105.146 78.5789 105.576C78.2888 105.615 78.0374 105.794 78.0374 106.117V116.154H73.4108V106.33C73.4108 106.021 73.1594 105.808 72.8693 105.789C67.2758 105.354 61.7257 103.309 57.5149 99.5376C59.0909 97.7247 60.6718 95.9069 62.2479 94.094C63.7272 95.3026 65.3226 96.3855 67.0582 97.1977C68.8954 98.0534 70.8582 98.4934 72.8742 98.6433C73.1691 98.6626 73.4156 98.3774 73.4156 98.1018V83.3371C73.4156 83.0906 73.2464 82.8875 73.0144 82.815C68.2475 81.2438 62.7023 79.0102 60.2996 74.2531C57.7276 69.1623 59.294 62.5148 63.7079 58.9905C66.3089 56.9116 69.6012 55.9109 72.8693 55.558C73.1594 55.5241 73.4108 55.3356 73.4108 55.0165V44.98H78.0374V54.9778C78.0374 55.2921 78.2888 55.4951 78.5789 55.5193C83.3651 55.9254 87.9724 57.6223 91.7288 60.6342C90.1624 62.2683 88.6009 63.9072 87.0345 65.5412C84.5641 63.6703 81.6923 62.5003 78.5789 62.2731C78.284 62.2538 78.0374 62.539 78.0374 62.8146V75.2055C78.0374 75.4569 78.2067 75.6551 78.4387 75.7276C83.7228 77.5115 90.1721 80.0932 92.1591 85.8318C94.1171 91.4737 92.4057 98.155 87.7548 101.936Z" fill="white"/>
<path d="M72.9856 62.3794C72.9566 62.3697 72.9276 62.3697 72.8986 62.3649C72.8792 62.3649 72.8599 62.3649 72.8454 62.3649C72.8067 62.3649 72.768 62.3552 72.7245 62.3649C71.5062 62.5776 70.2831 63.0514 69.4371 63.9893C68.4798 65.0529 68.0205 66.4307 68.0689 67.8521C68.1124 69.0946 68.4266 70.4047 69.2775 71.3523C70.1574 72.3289 71.4289 72.9622 72.5988 73.5133C72.9614 73.6825 73.4159 73.4843 73.4159 73.0444V62.8919C73.4159 62.597 73.2177 62.4326 72.9953 62.3842L72.9856 62.3794ZM69.1615 68.0261C69.0938 66.832 69.3935 65.662 70.2057 64.7532C70.7714 64.1198 71.5256 63.7717 72.3233 63.559V72.1693C71.5691 71.7874 70.8294 71.3523 70.2299 70.7721C69.4951 70.0615 69.2147 69.022 69.1615 68.0261Z" fill="white"/>
<path d="M78.8549 85.1355C78.6953 85.0533 78.5406 85.0582 78.4101 85.1065C78.2409 85.1549 78.1007 85.2854 78.0572 85.4836C78.033 85.5561 78.0233 85.6335 78.033 85.706V97.8842C78.033 98.2468 78.3811 98.4885 78.7195 98.4063C79.9716 98.1114 81.1899 97.5506 82.0505 96.5692C82.9304 95.5636 83.3461 94.297 83.4767 92.9868C83.6411 91.3382 83.3897 89.5591 82.5243 88.1233C81.6976 86.7454 80.2472 85.8414 78.85 85.1307L78.8549 85.1355ZM82.4082 92.8273C82.3212 93.8909 82.0021 94.9883 81.2866 95.8053C80.7017 96.4725 79.9426 96.8931 79.1208 97.1638V86.5085C80.0635 87.0452 80.9821 87.6978 81.5525 88.6164C82.3309 89.8637 82.5194 91.3866 82.4082 92.8273Z" fill="white"/>
</g>
</g>
<defs>
<linearGradient id="paint0_linear_2012_1858" x1="0" y1="135.217" x2="150" y2="135.217" gradientUnits="userSpaceOnUse">
<stop stop-color="#080715" stop-opacity="0"/>
<stop offset="0.495" stop-color="#FF0DF5"/>
<stop offset="1" stop-color="#080715" stop-opacity="0"/>
</linearGradient>
<linearGradient id="paint1_linear_2012_1858" x1="0" y1="111.739" x2="150" y2="111.739" gradientUnits="userSpaceOnUse">
<stop stop-color="#080715" stop-opacity="0"/>
<stop offset="0.495" stop-color="#FF0DF5"/>
<stop offset="1" stop-color="#080715" stop-opacity="0"/>
</linearGradient>
<linearGradient id="paint2_linear_2012_1858" x1="0" y1="88.2609" x2="150" y2="88.2609" gradientUnits="userSpaceOnUse">
<stop stop-color="#080715" stop-opacity="0"/>
<stop offset="0.495" stop-color="#FF0DF5"/>
<stop offset="1" stop-color="#080715" stop-opacity="0"/>
</linearGradient>
<linearGradient id="paint3_linear_2012_1858" x1="0" y1="64.7826" x2="150" y2="64.7826" gradientUnits="userSpaceOnUse">
<stop stop-color="#080715" stop-opacity="0"/>
<stop offset="0.495" stop-color="#FF0DF5"/>
<stop offset="1" stop-color="#080715" stop-opacity="0"/>
</linearGradient>
<linearGradient id="paint4_linear_2012_1858" x1="0" y1="40.9783" x2="150" y2="40.9783" gradientUnits="userSpaceOnUse">
<stop stop-color="#080715" stop-opacity="0"/>
<stop offset="0.495" stop-color="#FF0DF5"/>
<stop offset="1" stop-color="#080715" stop-opacity="0"/>
</linearGradient>
<clipPath id="clip0_2012_1858">
<rect width="150" height="150" fill="white"/>
</clipPath>
<clipPath id="clip1_2012_1858">
<rect width="82.2015" height="110" fill="white" transform="translate(34 20)"/>
</clipPath>
</defs>
</svg>
