<svg width="150" height="150" viewBox="0 0 150 150" fill="none" xmlns="http://www.w3.org/2000/svg">
<g clip-path="url(#clip0_2012_1815)">
<g opacity="0.6">
<rect y="131.304" width="150" height="7.82609" fill="url(#paint0_linear_2012_1815)"/>
<rect y="108.478" width="150" height="6.52174" fill="url(#paint1_linear_2012_1815)"/>
<rect y="85.6522" width="150" height="5.21739" fill="url(#paint2_linear_2012_1815)"/>
<rect y="62.826" width="150" height="3.91304" fill="url(#paint3_linear_2012_1815)"/>
<rect y="40" width="150" height="1.95652" fill="url(#paint4_linear_2012_1815)"/>
</g>
<g clip-path="url(#clip1_2012_1815)">
<path d="M100.786 35.2158C100.786 35.2515 100.791 35.2871 100.796 35.3177C100.796 35.3432 100.806 35.3737 100.811 35.4094C100.816 35.3686 100.796 35.2515 100.786 35.2158Z" fill="#FF0DF5"/>
<path d="M122.603 90.929C118.564 89.4262 113.714 90.6692 110.821 93.8376C108.987 92.7373 107.153 91.637 105.325 90.5367C101.504 88.2444 97.6887 85.9521 93.8682 83.6598C93.6135 83.507 93.3588 83.3542 93.099 83.2013C93.8122 81.6426 94.3216 79.9819 94.5814 78.2652C94.7444 77.1853 94.8564 76.1054 94.8615 75.0102C94.8361 69.9111 92.8494 65.1533 89.5332 61.562L93.4912 56.9417C96.3795 53.5695 99.2678 50.1973 102.161 46.8301C102.411 46.5398 102.66 46.2443 102.91 45.954C105.885 47.7318 109.492 48.4093 113.027 47.7114C119.466 46.443 124.101 40.4881 124.147 34.0034C124.101 28.074 120.367 22.8679 114.835 20.8099C109.502 18.8233 103.058 20.5603 99.4512 24.9616C95.6969 29.5462 95.0245 36.0869 98.1268 41.2165C98.5139 41.8533 98.9418 42.4493 99.4105 43.0045C98.0911 44.5429 96.7718 46.0864 95.4473 47.6248C92.559 50.997 89.6707 54.3693 86.7773 57.7364C86.5379 58.0166 86.3036 58.2916 86.0642 58.5718C84.7296 57.6651 83.2778 56.901 81.7241 56.3254C74.1034 53.4931 65.031 55.9178 59.8402 62.1631C57.4155 60.5483 54.9907 58.9284 52.5609 57.3136C53.3708 55.5358 53.8242 53.5797 53.8395 51.5777C53.7936 45.6483 50.0597 40.4422 44.5276 38.3843C39.1942 36.3976 32.7503 38.1347 29.1437 42.5359C25.3895 47.1205 24.717 53.6612 27.8193 58.7909C30.9063 63.89 36.9019 66.4268 42.7142 65.2806C45.5974 64.7101 48.1138 63.1972 50.0241 61.1239C52.4539 62.7438 54.8838 64.3637 57.3136 65.9836C56.1165 68.3319 55.383 70.8891 55.1639 73.5839C54.8889 76.9663 55.5664 80.4455 57.0232 83.5223C54.6036 85.0352 52.1788 86.5481 49.7592 88.061C44.9199 91.0869 40.0806 94.1076 35.2413 97.1335C34.6555 97.5002 34.0747 97.8619 33.494 98.2287C32.7248 97.5461 31.8232 96.9959 30.8197 96.619C27.7734 95.4728 24.009 96.4712 21.9408 98.9877C19.7504 101.657 19.297 105.437 21.1003 108.457C22.9036 111.473 26.3573 112.889 29.7652 112.273C33.5399 111.595 36.2091 108.04 36.2601 104.296C36.2499 103.537 36.1327 102.803 35.934 102.11C38.4148 100.557 40.9007 99.008 43.3815 97.4544C48.2208 94.4285 53.0601 91.4078 57.8994 88.382C58.419 88.0559 58.9437 87.7299 59.4633 87.4039C61.3684 89.7828 63.8186 91.7593 66.5898 93.0124C70.502 94.78 74.7759 95.2945 78.9988 94.4642C79.0141 94.4642 79.0294 94.4591 79.0446 94.454C80.6442 99.2526 82.2437 104.051 83.8432 108.85C83.9043 109.033 83.9654 109.216 84.0266 109.4C82.9466 110.026 81.9686 110.826 81.1739 111.794C78.1939 115.421 77.6591 120.627 80.1398 124.682C82.6003 128.701 87.2969 130.667 91.8968 129.786C97.001 128.808 100.653 124.06 100.704 118.946C100.659 114.229 97.6989 110.133 93.3028 108.498C91.7287 107.912 90.0324 107.744 88.3718 107.943C86.7621 103.109 85.1473 98.2745 83.5376 93.4454C83.4917 93.3028 83.4408 93.155 83.3949 93.0124C86.2527 91.6625 88.7742 89.6198 90.7099 87.1237C92.5132 88.2088 94.3165 89.2887 96.1248 90.3737C99.9454 92.666 103.761 94.9583 107.581 97.2506C107.882 97.434 108.187 97.6123 108.488 97.7957C107.444 100.837 107.688 104.26 109.435 107.118C111.896 111.137 116.593 113.103 121.192 112.222C126.297 111.244 129.949 106.496 130 101.382C129.954 96.6648 126.995 92.5692 122.598 90.934L122.603 90.929ZM111.478 24.6508C111.443 24.6508 111.402 24.6406 111.366 24.6406C111.402 24.6406 111.443 24.6406 111.478 24.6508ZM102.65 28.2676C102.584 28.3542 102.538 28.4153 102.65 28.2676ZM100.75 33.1171C100.76 32.9999 100.771 32.8827 100.781 32.7656C100.781 32.7656 100.781 32.7605 100.781 32.7554C100.842 32.4498 100.893 32.139 100.964 31.8334C101.092 31.3087 101.3 30.8197 101.453 30.3052C101.453 30.3052 101.453 30.3001 101.458 30.295C101.509 30.1931 101.555 30.0912 101.601 29.9893C101.749 29.6888 101.912 29.3933 102.085 29.1081C102.227 28.8687 102.38 28.6343 102.543 28.4102C102.579 28.3644 102.615 28.3134 102.645 28.2676C102.676 28.2268 102.716 28.1759 102.742 28.1453C103.129 27.7072 103.516 27.2793 103.954 26.8871C104.036 26.8107 104.122 26.7394 104.204 26.6681C104.214 26.663 104.291 26.5967 104.357 26.5407C104.428 26.4847 104.52 26.4184 104.53 26.4134C104.622 26.3471 104.713 26.286 104.805 26.2249C105.32 25.8836 105.865 25.5983 106.415 25.3283C106.43 25.3232 106.445 25.313 106.466 25.3029C106.552 25.2672 106.644 25.2366 106.731 25.2061C106.97 25.1195 107.215 25.038 107.459 24.9667C107.734 24.8851 108.014 24.8189 108.294 24.7578C108.406 24.7323 108.519 24.712 108.636 24.6916C108.707 24.6814 108.778 24.6661 108.845 24.6559C109.395 24.6101 109.935 24.5744 110.49 24.5897C110.785 24.5999 111.081 24.6254 111.371 24.6508C111.463 24.6559 111.509 24.661 111.529 24.661C111.651 24.6865 111.769 24.717 111.881 24.7425C112.497 24.8699 113.098 25.0482 113.689 25.2672C113.725 25.2825 113.77 25.2927 113.811 25.3029C113.928 25.3538 114.051 25.4251 114.147 25.4761C114.448 25.6238 114.743 25.7868 115.029 25.96C115.268 26.1026 115.502 26.2554 115.727 26.4184C115.783 26.4592 115.976 26.612 116.002 26.6324C116.063 26.6833 116.124 26.7292 116.185 26.7852C116.649 27.1876 117.076 27.6206 117.469 28.0893C117.54 28.1759 117.611 28.2625 117.678 28.3491C117.301 27.8855 117.693 28.3796 117.769 28.4866C117.942 28.7362 118.111 28.996 118.263 29.2609C118.432 29.5513 118.589 29.8467 118.737 30.1524C118.778 30.239 118.849 30.3561 118.875 30.4478C118.885 30.4835 118.895 30.514 118.905 30.5395C119.124 31.1304 119.297 31.7366 119.42 32.353C119.445 32.4956 119.496 32.6688 119.501 32.8216C119.501 32.8624 119.501 32.9082 119.511 32.9541C119.542 33.3106 119.557 33.6621 119.557 34.0187C119.557 34.3142 119.547 34.6147 119.522 34.9102C119.511 35.0477 119.496 35.1801 119.481 35.3177C119.481 35.3279 119.481 35.333 119.476 35.3431C119.369 35.9086 119.247 36.4638 119.068 37.014C118.987 37.2636 118.91 37.5794 118.778 37.8137C119.084 37.284 118.661 38.0481 118.589 38.1856C118.335 38.6848 118.044 39.1636 117.723 39.617C117.718 39.6272 117.647 39.7189 117.596 39.7902C117.54 39.8564 117.479 39.9379 117.474 39.943C117.296 40.157 117.107 40.3607 116.913 40.5594C116.761 40.7173 116.598 40.8752 116.435 41.023C116.312 41.135 116.185 41.2471 116.058 41.3541C116.017 41.3897 115.93 41.456 115.864 41.5069C115.477 41.782 115.085 42.0469 114.667 42.2761C114.448 42.3983 114.224 42.5155 113.995 42.6225C113.974 42.6327 113.939 42.653 113.898 42.6734C113.76 42.7498 113.592 42.7906 113.45 42.8415C112.966 43.0147 112.472 43.1523 111.967 43.2592C111.799 43.2949 111.626 43.3204 111.458 43.356C111.422 43.3611 111.376 43.3764 111.341 43.3866C111.06 43.4273 110.755 43.4222 110.495 43.4273C109.96 43.4426 109.43 43.407 108.896 43.3662C108.88 43.3662 108.87 43.3662 108.86 43.3662C108.845 43.3662 108.834 43.3611 108.814 43.356C108.702 43.3356 108.585 43.3153 108.473 43.2949C108.162 43.2338 107.856 43.1624 107.551 43.0758C107.306 43.0045 107.062 42.9281 106.817 42.8415C106.725 42.8059 106.618 42.7753 106.517 42.7345C106.491 42.7244 106.466 42.7091 106.425 42.6887C105.895 42.4289 105.376 42.1589 104.881 41.838C104.729 41.7412 104.586 41.6342 104.438 41.5273C104.464 41.5375 104.046 41.2114 103.954 41.1299C103.542 40.7581 103.149 40.3607 102.793 39.9379C102.722 39.8513 102.385 39.398 102.737 39.8819C102.671 39.7902 102.604 39.7036 102.538 39.6119C102.375 39.3827 102.222 39.1535 102.08 38.914C101.937 38.6746 101.8 38.4301 101.672 38.1805C101.621 38.0786 101.57 37.9818 101.524 37.88C101.494 37.8137 101.463 37.7526 101.438 37.7119C101.198 37.2585 101.081 36.6727 100.964 36.1888C100.903 35.9391 100.852 35.6844 100.806 35.4247C100.806 35.4196 100.806 35.4196 100.806 35.4145C100.806 35.4196 100.806 35.4297 100.801 35.4297C100.801 35.4297 100.801 35.3839 100.791 35.3228C100.776 35.2209 100.776 35.2005 100.781 35.2209C100.765 35.0783 100.75 34.9152 100.75 34.9051C100.704 34.3142 100.704 33.7182 100.75 33.1222V33.1171ZM41.1809 42.2251C41.1452 42.2251 41.1045 42.215 41.0688 42.215C41.1045 42.215 41.1452 42.215 41.1809 42.2251ZM32.353 45.8419C32.2867 45.9285 32.2409 45.9896 32.353 45.8419ZM46.6264 58.1286C46.4735 58.2866 46.3105 58.4445 46.1475 58.5922C46.0253 58.7043 45.8979 58.8163 45.7706 58.9233C45.7298 58.959 45.6432 59.0252 45.577 59.0761C45.1899 59.3512 44.7976 59.6161 44.3799 59.8453C44.1609 59.9676 43.9367 60.0847 43.7075 60.1917C43.6871 60.2019 43.6515 60.2223 43.6107 60.2427C43.4732 60.3191 43.3051 60.3598 43.1624 60.4108C42.6785 60.584 42.1844 60.7215 41.6801 60.8285C41.512 60.8641 41.3388 60.8896 41.1707 60.9252C41.135 60.9303 41.0892 60.9456 41.0535 60.9558C40.7734 60.9966 40.4677 60.9915 40.2079 60.9966C39.673 61.0118 39.1433 60.9762 38.6084 60.9354C38.5931 60.9354 38.5829 60.9354 38.5727 60.9354C38.5575 60.9354 38.5473 60.9303 38.5269 60.9252C38.4148 60.9049 38.2977 60.8845 38.1856 60.8641C37.8749 60.803 37.5692 60.7317 37.2636 60.6451C37.0191 60.5738 36.7746 60.4974 36.53 60.4108C36.4384 60.3751 36.3314 60.3445 36.2295 60.3038C36.204 60.2936 36.1786 60.2783 36.1378 60.2579C35.608 59.9981 35.0884 59.7282 34.5943 59.4072C34.4415 59.3104 34.2989 59.2035 34.1511 59.0965C34.1766 59.1067 33.7589 58.7807 33.6672 58.6992C33.2546 58.3273 32.8624 57.93 32.5058 57.5072C32.4345 57.4206 32.0983 56.9672 32.4497 57.4511C32.3835 57.3594 32.3173 57.2728 32.2511 57.1812C32.0881 56.9519 31.9353 56.7227 31.7926 56.4833C31.65 56.2439 31.5124 55.9993 31.3851 55.7497C31.3342 55.6479 31.2832 55.5511 31.2374 55.4492C31.2068 55.383 31.1762 55.3218 31.1508 55.2811C30.9114 54.8277 30.7942 54.2419 30.677 53.758C30.6159 53.5084 30.565 53.2537 30.5191 52.9939C30.5191 52.9888 30.5191 52.9888 30.5191 52.9837C30.5191 52.9888 30.5191 52.999 30.514 52.999C30.514 52.999 30.514 52.9531 30.5038 52.892C30.4886 52.7901 30.4886 52.7697 30.4936 52.7901C30.4784 52.6475 30.4631 52.4845 30.4631 52.4743C30.4172 51.8834 30.4172 51.2874 30.4631 50.6914C30.4733 50.5742 30.4835 50.4571 30.4936 50.3399C30.4936 50.3399 30.4936 50.3348 30.4936 50.3297C30.5548 50.0241 30.6057 49.7133 30.677 49.4077C30.8044 48.883 31.0132 48.394 31.1661 47.8795C31.1661 47.8795 31.1661 47.8744 31.1712 47.8693C31.2221 47.7674 31.2679 47.6655 31.3138 47.5637C31.4615 47.2631 31.6245 46.9677 31.7977 46.6824C31.9403 46.443 32.0932 46.2087 32.2562 45.9845C32.2918 45.9387 32.3275 45.8877 32.3581 45.8419C32.3886 45.8011 32.4294 45.7502 32.4548 45.7196C32.842 45.2816 33.2291 44.8537 33.6672 44.4614C33.7487 44.385 33.8353 44.3137 33.9168 44.2424C33.927 44.2373 34.0034 44.1711 34.0696 44.115C34.141 44.059 34.2326 43.9928 34.2428 43.9877C34.3345 43.9215 34.4262 43.8603 34.5179 43.7992C35.0324 43.4579 35.5775 43.1726 36.1276 42.9027C36.1429 42.8976 36.1582 42.8874 36.1786 42.8772C36.2652 42.8415 36.3568 42.811 36.4434 42.7804C36.6829 42.6938 36.9274 42.6123 37.1719 42.541C37.447 42.4595 37.7271 42.3933 38.0073 42.3321C38.1194 42.3067 38.2314 42.2863 38.3486 42.2659C38.4199 42.2557 38.4912 42.2404 38.5575 42.2302C39.1076 42.1844 39.6476 42.1487 40.2028 42.164C40.4983 42.1742 40.7937 42.1997 41.0841 42.2251C41.1758 42.2302 41.2216 42.2353 41.242 42.2353C41.3643 42.2608 41.4814 42.2914 41.5935 42.3168C42.2099 42.4442 42.811 42.6225 43.4019 42.8415C43.4375 42.8568 43.4834 42.867 43.5241 42.8772C43.6413 42.9281 43.7635 42.9994 43.8603 43.0504C44.1609 43.1981 44.4563 43.3611 44.7416 43.5343C44.981 43.6769 45.2153 43.8298 45.4395 43.9928C45.4955 44.0335 45.6891 44.1863 45.7145 44.2067C45.7757 44.2577 45.8368 44.3035 45.8979 44.3595C46.3615 44.762 46.7894 45.195 47.1816 45.6636C47.2529 45.7502 47.3242 45.8368 47.3905 45.9234C47.0135 45.4598 47.4058 45.954 47.4822 46.0609C47.6554 46.3105 47.8235 46.5703 47.9763 46.8352C48.1444 47.1256 48.3023 47.421 48.45 47.7267C48.4908 47.8133 48.5621 47.9304 48.5876 48.0221C48.5977 48.0578 48.6079 48.0884 48.6181 48.1138C48.8372 48.7047 49.0104 49.3109 49.1326 49.9273C49.1581 50.0699 49.209 50.2431 49.2141 50.3959C49.2141 50.4367 49.2141 50.4825 49.2243 50.5284C49.2549 50.885 49.2702 51.2364 49.2702 51.593C49.2702 51.8885 49.26 52.189 49.2345 52.4845C49.2243 52.622 49.209 52.7545 49.1937 52.892C49.1937 52.9022 49.1937 52.9073 49.1887 52.9175C49.0817 53.4829 48.9594 54.0382 48.7811 54.5883C48.6996 54.8379 48.6232 55.1537 48.4908 55.3881C48.7964 54.8583 48.3736 55.6224 48.3023 55.7599C48.0476 56.2591 47.7572 56.738 47.4363 57.1913C47.4312 57.2015 47.3599 57.2932 47.309 57.3645C47.2529 57.4308 47.1918 57.5123 47.1867 57.5174C47.0084 57.7313 46.8199 57.9351 46.6264 58.1337V58.1286ZM25.2468 106.435C25.2468 106.435 25.3181 106.562 25.364 106.618C25.2927 106.542 25.2417 106.471 25.2468 106.435ZM26.6477 107.591C26.7139 107.617 26.8158 107.653 26.8311 107.647C26.8005 107.663 26.7343 107.632 26.6477 107.591ZM28.5477 107.872C28.5936 107.867 28.6649 107.856 28.7821 107.841C28.7464 107.872 28.6445 107.877 28.5477 107.872ZM31.3596 105.87C31.3596 105.87 31.4004 105.793 31.436 105.722C31.4157 105.788 31.3902 105.849 31.3596 105.87ZM31.4615 105.646C31.4615 105.646 31.4309 105.702 31.4055 105.742C31.2577 106.002 31.1151 106.252 30.9521 106.496C30.8604 106.568 30.784 106.685 30.7076 106.766C30.6363 106.838 30.565 106.909 30.4886 106.98C30.4529 107.016 30.4121 107.046 30.3765 107.082C30.188 107.24 30.2237 107.214 30.4835 107.011C30.402 107.169 29.9842 107.347 29.8416 107.428C29.7499 107.479 29.6582 107.52 29.5716 107.571C29.5564 107.581 29.5462 107.586 29.5309 107.597C29.5156 107.597 29.5003 107.607 29.4748 107.612C29.2252 107.688 28.9756 107.77 28.7209 107.821C28.6955 107.826 28.67 107.831 28.6445 107.836C28.5834 107.846 28.5477 107.851 28.5223 107.856C28.4662 107.856 28.4102 107.856 28.3796 107.856C28.1249 107.867 27.8753 107.851 27.6257 107.836C27.4729 107.8 27.3201 107.77 27.1673 107.729C27.0144 107.688 26.8718 107.632 26.7241 107.586C26.6477 107.561 26.6171 107.556 26.6018 107.551C26.4337 107.454 26.23 107.311 26.1637 107.271C26.0771 107.214 25.9956 107.153 25.909 107.097C25.9039 107.092 25.8989 107.087 25.8938 107.082C25.8326 107.021 25.5677 106.812 25.3996 106.639C25.3996 106.639 25.3895 106.608 25.3334 106.532C25.2519 106.405 25.1602 106.277 25.0838 106.145C25.0329 106.058 24.9819 105.966 24.931 105.875C24.9055 105.829 24.8851 105.783 24.8597 105.737C24.7527 105.513 24.768 105.554 24.9004 105.859C24.7629 105.758 24.7018 105.274 24.661 105.116C24.6355 105.014 24.6152 104.912 24.5948 104.805C24.5948 104.795 24.5948 104.79 24.5897 104.78C24.5897 104.754 24.5897 104.734 24.5897 104.698C24.5744 104.454 24.5693 104.209 24.5846 103.965C24.5846 103.939 24.5846 103.908 24.5897 103.883C24.6101 103.807 24.6152 103.695 24.6304 103.623C24.6865 103.369 24.7731 103.124 24.8495 102.879C24.8546 102.869 24.8597 102.864 24.8648 102.854C24.9412 102.722 25.0074 102.584 25.0838 102.452C25.15 102.34 25.2213 102.238 25.2927 102.131C25.3283 102.075 25.3487 102.039 25.3589 102.014C25.5015 101.861 25.7358 101.657 25.7817 101.616C25.8377 101.56 26.1026 101.224 25.8989 101.499C25.7104 101.754 25.9447 101.468 26.0364 101.407C26.1586 101.326 26.7343 100.898 26.8412 100.954C26.8463 100.954 26.2911 101.148 26.7241 101.005C26.8718 100.954 27.0195 100.903 27.1673 100.862C27.2691 100.832 27.371 100.806 27.4729 100.786C27.4729 100.786 27.4882 100.786 27.4984 100.781C27.4831 100.791 27.7684 100.74 27.8142 100.74C27.9517 100.735 28.0842 100.73 28.2217 100.73C28.3593 100.73 28.4917 100.745 28.6292 100.75C28.6343 100.75 28.6394 100.75 28.6496 100.755C28.9451 100.832 29.2354 100.908 29.5258 101C29.6633 101.097 29.8365 101.158 29.9792 101.244C30.0658 101.295 30.1523 101.351 30.2389 101.407C30.2695 101.428 30.3001 101.448 30.3306 101.468C30.3459 101.484 30.3561 101.494 30.3816 101.514C30.5599 101.693 30.7433 101.876 30.9215 102.054C30.9317 102.064 30.9368 102.07 30.947 102.08C31.003 102.166 31.0591 102.248 31.11 102.334C31.11 102.34 31.1151 102.35 31.1202 102.355C31.1253 102.365 31.1355 102.37 31.1406 102.38C31.1559 102.406 31.1762 102.431 31.1915 102.457C31.273 102.589 31.3342 102.727 31.4106 102.859C31.4157 102.869 31.4208 102.874 31.4259 102.885C31.5226 103.185 31.599 103.481 31.6755 103.786C31.6907 103.852 31.706 103.883 31.7111 103.898C31.7111 104.051 31.6958 104.224 31.7009 104.296C31.7009 104.459 31.6856 104.622 31.6806 104.785C31.6806 104.866 31.6806 104.907 31.6806 104.932C31.6296 105.121 31.5481 105.35 31.5277 105.421C31.5175 105.462 31.4972 105.549 31.4717 105.635L31.4615 105.646ZM31.6755 104.922C31.6806 104.836 31.6958 104.657 31.6958 104.662C31.7213 104.693 31.706 104.8 31.6755 104.922ZM83.2064 120.016C83.2064 120.016 83.2064 119.965 83.1963 119.904C83.2064 119.96 83.2115 120.011 83.2064 120.016ZM83.1963 119.873C83.1759 119.751 83.1453 119.634 83.1963 119.873ZM90.5265 112.502C90.5265 112.502 90.5469 112.502 90.5571 112.502C90.6437 112.517 90.7456 112.538 90.7761 112.548C91.2244 112.64 91.6574 112.772 92.0904 112.925C92.1362 112.94 92.1617 112.95 92.1872 112.961C92.233 112.986 92.2789 113.011 92.3196 113.027C92.5438 113.139 92.7679 113.256 92.9818 113.388C93.1754 113.506 93.3537 113.633 93.5422 113.755C93.6135 113.801 93.6746 113.852 93.7459 113.903C93.3079 113.592 93.6441 113.827 93.7358 113.908C94.0821 114.219 94.398 114.545 94.7087 114.891C94.7597 114.957 94.8717 115.1 94.8768 115.11C95.0042 115.294 95.1264 115.482 95.2385 115.676C95.3506 115.869 95.4575 116.068 95.5543 116.267C95.5747 116.307 95.6002 116.358 95.6256 116.404C95.6307 116.424 95.6409 116.455 95.6562 116.496C95.8141 116.954 95.9567 117.418 96.0484 117.897C96.0484 117.902 96.0535 117.942 96.0637 117.983C96.0586 117.902 96.0637 117.871 96.0841 118.105C96.0841 118.131 96.0943 118.146 96.0943 118.146C96.0943 118.146 96.0943 118.136 96.0892 118.131C96.0892 118.136 96.0892 118.136 96.0892 118.141C96.1147 118.406 96.1248 118.676 96.1248 118.941C96.1248 119.15 96.1147 119.359 96.1045 119.562C96.0943 119.68 96.0841 119.797 96.0739 119.914C96.0535 120.189 96.0994 119.741 96.0994 119.736C96.1605 120.082 95.9058 120.663 95.7988 120.989C95.7683 121.091 95.7326 121.254 95.6817 121.386C95.6664 121.406 95.646 121.437 95.6307 121.468C95.5798 121.569 95.5339 121.671 95.483 121.768C95.2894 122.14 95.0704 122.497 94.831 122.843C94.8106 122.879 94.7851 122.909 94.7596 122.94C94.7495 122.95 94.7444 122.96 94.7291 122.97C94.5966 123.113 94.4744 123.261 94.3368 123.403C94.2044 123.541 94.0618 123.678 93.9191 123.811C93.8274 123.897 93.6084 124.065 93.5829 124.096C93.318 124.285 93.0481 124.463 92.7628 124.621C92.5896 124.718 92.4164 124.799 92.2381 124.891C92.2025 124.911 92.1566 124.937 92.1108 124.957C92.07 124.967 92.0344 124.977 92.0038 124.987C91.6268 125.12 91.2448 125.232 90.8525 125.319C90.7812 125.334 90.6997 125.354 90.6284 125.375C90.4246 125.415 90.1903 125.415 89.9866 125.42C89.5689 125.436 89.1562 125.42 88.7436 125.385C88.708 125.385 88.6876 125.385 88.6621 125.38C88.5908 125.364 88.5195 125.344 88.4889 125.339C88.2648 125.293 88.0407 125.237 87.8216 125.176C87.628 125.12 87.4396 125.059 87.2562 124.993C87.2307 124.982 87.19 124.972 87.1543 124.962C87.1339 124.952 87.1237 124.947 87.0983 124.937C86.7213 124.748 86.3494 124.554 85.998 124.325C85.891 124.254 85.784 124.178 85.6821 124.106C85.6974 124.116 85.5191 123.979 85.402 123.877C85.0861 123.597 84.8161 123.291 84.5309 122.98C84.5207 122.97 84.5105 122.955 84.5003 122.945C84.5207 122.975 84.5462 123.011 84.5767 123.052C84.5462 123.006 84.5156 122.965 84.485 122.924C84.4392 122.863 84.3933 122.802 84.4239 122.843C84.3169 122.685 84.21 122.527 84.1081 122.364C84.0062 122.196 83.9094 122.028 83.8177 121.855C83.7668 121.753 83.7158 121.656 83.6649 121.554C83.6547 121.534 83.6292 121.473 83.6089 121.422C83.5681 121.305 83.5019 121.126 83.4866 121.08C83.4255 120.892 83.3695 120.698 83.3185 120.505C83.2676 120.311 83.2319 120.113 83.1912 119.914C83.1912 119.899 83.1912 119.899 83.1861 119.883C83.1759 119.787 83.1606 119.669 83.1606 119.654C83.1249 119.211 83.1249 118.763 83.1555 118.319C83.1555 118.258 83.1657 118.197 83.1708 118.136C83.1708 118.136 83.1708 118.146 83.1657 118.146C83.1657 118.146 83.1708 118.136 83.1759 118.126C83.1759 118.105 83.1759 118.08 83.181 118.06C83.2013 117.8 83.2064 117.937 83.1963 118.049C83.237 117.871 83.2981 117.504 83.3032 117.469C83.3847 117.148 83.456 116.598 83.6649 116.333C83.6649 116.333 83.4764 116.725 83.5987 116.491C83.6496 116.394 83.6955 116.287 83.7413 116.185C83.8432 115.986 83.9502 115.788 84.0622 115.594C84.1641 115.426 84.266 115.263 84.3781 115.1C84.4086 115.054 84.4443 115.008 84.4799 114.957C84.7754 114.667 85.025 114.341 85.3357 114.061C85.3612 114.04 85.4682 113.944 85.5599 113.867C85.6159 113.832 85.8706 113.638 85.9215 113.602C86.2985 113.353 86.6907 113.144 87.0932 112.945C87.1034 112.94 87.1084 112.94 87.1186 112.935C87.1339 112.93 87.1441 112.925 87.1696 112.92C87.3835 112.843 87.5975 112.772 87.8165 112.706C87.9795 112.66 88.1476 112.614 88.3157 112.578C88.4278 112.553 88.545 112.538 88.657 112.512C88.6723 112.512 88.6774 112.507 88.6927 112.502C89.0951 112.472 89.4924 112.441 89.9 112.456C90.1088 112.461 90.3126 112.482 90.5214 112.497L90.5265 112.502ZM87.1747 84.2711C87.2969 84.0979 86.9709 84.5258 86.92 84.592C86.6347 84.9333 86.3393 85.2644 86.0336 85.5853C85.7433 85.8859 85.4427 86.1762 85.1371 86.4513C84.9944 86.5838 84.8467 86.7111 84.699 86.8334C84.6124 86.9047 84.5309 86.976 84.4443 87.0473C84.3984 87.0881 84.1081 87.302 84.2049 87.2307C84.1183 87.2918 84.0164 87.3682 83.9756 87.3937C83.7923 87.5211 83.6089 87.6484 83.4204 87.7707C83.0689 87.9999 82.7123 88.2138 82.3456 88.4176C81.9788 88.6214 81.6018 88.8098 81.2198 88.9881C81.1383 89.0238 80.797 89.1664 80.8021 89.1715C80.7817 89.1766 80.7664 89.1817 80.7562 89.1868C80.6238 89.2377 80.4913 89.2887 80.3589 89.3345C79.554 89.6249 78.7237 89.8592 77.8832 90.0273C77.654 90.0732 77.4298 90.1139 77.2006 90.1496C77.1446 90.1598 77.0885 90.1648 77.0325 90.175C76.5893 90.2107 76.1512 90.2616 75.7132 90.2769C74.7911 90.3126 73.8793 90.2514 72.9624 90.175C72.9064 90.1648 72.8503 90.1598 72.7943 90.1496C72.5651 90.1139 72.3358 90.0732 72.1117 90.0273C71.6634 89.9356 71.2151 89.8286 70.772 89.7013C70.3899 89.5943 70.0079 89.4721 69.636 89.3345C69.4373 89.2632 69.1826 89.2072 69.0043 89.09C69.0094 89.09 69.4017 89.2683 69.1623 89.1562C69.0349 89.0951 68.9025 89.0442 68.7751 88.983C68.011 88.6316 67.2775 88.224 66.5745 87.7656C66.386 87.6433 66.2026 87.5211 66.0193 87.3886C65.9836 87.3631 65.8512 87.2664 65.7493 87.195C65.9021 87.302 65.4895 86.9862 65.4233 86.9352C65.2297 86.7773 65.0412 86.6143 64.8578 86.4462C64.2414 85.891 63.6607 85.2848 63.1259 84.648C63.0495 84.5564 62.973 84.4596 62.8966 84.3679C62.8966 84.3628 62.6776 84.0775 62.6165 83.9909C62.3567 83.6292 62.1173 83.2523 61.888 82.8702C61.6894 82.534 61.4958 82.1927 61.3175 81.8412C61.2156 81.6426 61.1188 81.4388 61.022 81.2351C60.9864 81.1586 60.9507 81.0822 60.9151 81.0058C60.8387 80.8377 60.803 80.7919 60.8183 80.8377C60.4668 80.1755 60.2987 79.2739 60.1306 78.576C60.0287 78.1532 59.9421 77.7304 59.8708 77.3025C59.8606 77.2363 59.8504 77.1649 59.8402 77.0987C59.83 76.951 59.7689 76.3805 59.7638 76.3448C59.6925 75.4279 59.6976 74.5008 59.7689 73.5839C59.7842 73.4209 59.7995 73.2578 59.8148 73.0948C59.83 73.0082 59.8453 72.8401 59.8504 72.7994C59.9217 72.346 60.0134 71.8926 60.1255 71.4444C60.3089 70.6905 60.4872 69.6717 60.91 69.0094C60.5992 69.4934 60.9507 68.9228 61.0169 68.7802C61.0984 68.6019 61.185 68.4236 61.2716 68.2504C61.4754 67.8531 61.6894 67.4609 61.9237 67.0737C62.1274 66.7375 62.3414 66.4115 62.5604 66.0906C62.6267 65.9989 62.6878 65.9072 62.754 65.8206C62.7693 65.8002 62.7998 65.7595 62.8253 65.7187C62.8355 65.7085 62.8457 65.6932 62.8508 65.6881C62.9374 65.5812 63.024 65.4742 63.1157 65.3672C63.6658 64.705 64.2669 64.0886 64.9088 63.513C65.1533 63.294 65.4029 63.0902 65.6576 62.8864C65.7391 62.8253 65.953 62.6674 66.0091 62.6266C66.1925 62.4993 66.3758 62.3719 66.5643 62.2497C67.2673 61.7912 68.0059 61.3837 68.7649 61.0322C68.8974 60.9711 69.4883 60.6196 68.9942 60.9252C69.1572 60.8234 69.3711 60.7775 69.5494 60.7113C69.9773 60.5534 70.4103 60.4158 70.8484 60.2936C71.261 60.1764 71.6838 60.0746 72.1015 59.993C72.3002 59.9523 72.4988 59.9166 72.6975 59.881C72.779 59.8657 72.8605 59.8555 72.942 59.8402C72.942 59.8402 72.9471 59.8402 72.9522 59.8402C73.8742 59.7638 74.781 59.7027 75.703 59.7383C76.1156 59.7536 76.5282 59.7893 76.9357 59.83C76.9612 59.83 76.9714 59.83 76.9918 59.8351C77.058 59.8453 77.1293 59.8555 77.1955 59.8657C77.4247 59.9014 77.654 59.9421 77.8781 59.988C78.7441 60.1611 79.5999 60.4057 80.4302 60.7113C80.5372 60.7521 80.6543 60.7877 80.7715 60.8285C80.797 60.8387 80.8326 60.859 80.9039 60.8896C80.9804 60.9252 81.0568 60.9558 81.1332 60.9915C81.5407 61.18 81.9431 61.3786 82.3354 61.5977C82.7021 61.8014 83.0587 62.0154 83.4102 62.2446C83.5732 62.3516 83.7362 62.4585 83.8941 62.5706C83.9604 62.6165 84.2201 62.8151 84.3118 62.8763C84.9129 63.3602 85.4886 63.8747 86.0234 64.4299C86.3138 64.7305 86.5889 65.0412 86.8588 65.3621C86.9403 65.464 87.0219 65.5608 87.1034 65.6627C87.1288 65.7034 87.2969 65.9174 87.3632 66.0193C87.8624 66.7273 88.3106 67.471 88.7029 68.2453C88.7895 68.4185 88.8761 68.5968 88.9576 68.7751C89.0238 68.9127 89.3702 69.4883 89.0646 69.0043C89.2785 69.3355 89.3804 69.8296 89.4975 70.2014C89.7726 71.047 89.9815 71.9181 90.119 72.7943C90.1241 72.835 90.1394 73.0031 90.1547 73.0897C90.17 73.2527 90.1903 73.4158 90.2005 73.5788C90.2362 74.0525 90.2565 74.5262 90.2565 75C90.2565 75.4483 90.2413 75.8914 90.2056 76.3346C90.1903 76.5384 90.1649 76.7421 90.1496 76.951C90.1496 76.9612 90.1496 76.9765 90.1496 76.9867C90.1343 77.0885 90.119 77.1904 90.1037 77.2923C89.9611 78.143 89.7573 78.9784 89.4924 79.7985C89.3702 80.1755 89.2683 80.6645 89.0595 80.9956C89.0595 80.9905 89.2377 80.5983 89.1257 80.8377C89.0798 80.9396 89.034 81.0415 88.9881 81.1485C88.8812 81.3777 88.7742 81.6069 88.657 81.8311C88.275 82.5748 87.842 83.2981 87.3581 83.9807C87.3275 84.0266 87.2307 84.1641 87.1594 84.2558L87.1747 84.2711ZM112.497 102.441C112.497 102.441 112.497 102.39 112.487 102.329C112.497 102.385 112.502 102.436 112.497 102.441ZM112.487 102.299C112.466 102.177 112.436 102.059 112.487 102.299ZM125.395 102.177C125.456 102.523 125.201 103.104 125.094 103.43C125.064 103.532 125.028 103.695 124.977 103.827C124.962 103.847 124.942 103.878 124.926 103.908C124.875 104.01 124.83 104.112 124.779 104.209C124.585 104.581 124.366 104.937 124.127 105.284C124.106 105.32 124.081 105.35 124.055 105.381C124.045 105.391 124.04 105.401 124.025 105.411C123.892 105.554 123.77 105.702 123.632 105.844C123.5 105.982 123.357 106.119 123.215 106.252C123.123 106.338 122.904 106.506 122.879 106.537C122.614 106.725 122.344 106.904 122.058 107.062C121.885 107.158 121.712 107.24 121.534 107.332C121.498 107.352 121.452 107.378 121.406 107.398C121.366 107.408 121.33 107.418 121.299 107.428C120.922 107.561 120.54 107.673 120.148 107.76C120.077 107.775 119.995 107.795 119.924 107.816C119.72 107.856 119.486 107.856 119.282 107.861C118.864 107.877 118.452 107.861 118.039 107.826C118.004 107.826 117.983 107.826 117.958 107.821C117.886 107.805 117.815 107.785 117.785 107.78C117.56 107.734 117.336 107.678 117.117 107.617C116.924 107.561 116.735 107.5 116.552 107.434C116.526 107.423 116.486 107.413 116.45 107.403C116.43 107.393 116.419 107.388 116.394 107.378C116.017 107.189 115.645 106.995 115.294 106.766C115.187 106.695 115.08 106.618 114.978 106.547C114.993 106.557 114.815 106.42 114.698 106.318C114.382 106.038 114.112 105.732 113.827 105.421C113.816 105.411 113.806 105.396 113.796 105.386C113.816 105.416 113.842 105.452 113.872 105.493C113.842 105.447 113.811 105.406 113.781 105.365C113.735 105.304 113.689 105.243 113.72 105.284C113.613 105.126 113.506 104.968 113.404 104.805C113.302 104.637 113.205 104.469 113.113 104.296C113.062 104.194 113.011 104.097 112.961 103.995C112.95 103.975 112.925 103.914 112.905 103.863C112.864 103.745 112.798 103.567 112.782 103.521C112.721 103.333 112.665 103.139 112.614 102.946C112.563 102.752 112.528 102.553 112.487 102.355C112.487 102.34 112.487 102.34 112.482 102.324C112.472 102.227 112.456 102.11 112.456 102.095C112.421 101.652 112.421 101.204 112.451 100.76C112.451 100.699 112.461 100.638 112.466 100.577C112.466 100.577 112.466 100.587 112.461 100.587C112.461 100.587 112.466 100.577 112.472 100.567C112.472 100.546 112.472 100.521 112.477 100.501C112.497 100.241 112.502 100.378 112.492 100.49C112.533 100.312 112.594 99.9453 112.599 99.9097C112.68 99.5888 112.752 99.0386 112.961 98.7737C112.961 98.7737 112.772 99.166 112.894 98.9316C112.945 98.8348 112.991 98.7279 113.037 98.626C113.139 98.4273 113.246 98.2287 113.358 98.0351C113.46 97.867 113.562 97.704 113.674 97.541C113.704 97.4951 113.74 97.4493 113.776 97.3983C114.071 97.108 114.321 96.782 114.631 96.5018C114.657 96.4814 114.764 96.3846 114.856 96.3082C114.912 96.2726 115.166 96.079 115.217 96.0433C115.594 95.7937 115.986 95.5849 116.389 95.3862C116.399 95.3811 116.404 95.3811 116.414 95.376C116.43 95.3709 116.44 95.3658 116.465 95.3607C116.679 95.2843 116.893 95.213 117.112 95.1468C117.275 95.1009 117.443 95.0551 117.611 95.0194C117.723 94.994 117.841 94.9787 117.953 94.9532C117.968 94.9532 117.973 94.9481 117.988 94.943C118.391 94.9125 118.788 94.8819 119.196 94.8972C119.404 94.9023 119.608 94.9227 119.817 94.9379C119.822 94.9379 119.837 94.9379 119.848 94.9379C119.934 94.9532 120.036 94.9736 120.067 94.9838C120.515 95.0755 120.948 95.2079 121.381 95.3607C121.427 95.376 121.452 95.3862 121.478 95.3964C121.524 95.4219 121.569 95.4473 121.61 95.4626C121.834 95.5747 122.058 95.6919 122.272 95.8243C122.466 95.9415 122.644 96.0688 122.833 96.1911C122.904 96.2369 122.965 96.2878 123.036 96.3388C122.598 96.0281 122.935 96.2624 123.026 96.3439C123.373 96.6546 123.689 96.9806 123.999 97.327C124.05 97.3932 124.162 97.5359 124.167 97.5461C124.295 97.7294 124.417 97.9179 124.529 98.1115C124.641 98.3051 124.748 98.5037 124.845 98.7024C124.865 98.7432 124.891 98.7941 124.916 98.8399C124.921 98.8603 124.931 98.8909 124.947 98.9316C125.105 99.3901 125.247 99.8537 125.339 100.332C125.339 100.338 125.344 100.378 125.354 100.419C125.349 100.338 125.354 100.307 125.375 100.541C125.375 100.567 125.385 100.582 125.385 100.582C125.385 100.582 125.385 100.572 125.38 100.567C125.38 100.572 125.38 100.572 125.38 100.577C125.405 100.842 125.415 101.112 125.415 101.377C125.415 101.586 125.405 101.794 125.395 101.998C125.385 102.115 125.375 102.233 125.364 102.35C125.344 102.625 125.39 102.177 125.39 102.171L125.395 102.177Z" fill="#FF0DF5"/>
<path d="M125.385 100.536C125.38 100.501 125.369 100.455 125.364 100.414C125.364 100.47 125.374 100.541 125.39 100.567C125.39 100.557 125.39 100.547 125.39 100.536H125.385Z" fill="#FF0DF5"/>
<path d="M112.472 100.557C112.472 100.557 112.472 100.562 112.472 100.567C112.482 100.552 112.487 100.521 112.492 100.48C112.482 100.516 112.477 100.541 112.472 100.557Z" fill="#FF0DF5"/>
<path d="M113.73 105.289C113.73 105.289 113.766 105.34 113.781 105.36C113.786 105.365 113.791 105.376 113.796 105.381C113.755 105.325 113.735 105.294 113.72 105.279C113.72 105.279 113.72 105.284 113.725 105.289H113.73Z" fill="#FF0DF5"/>
<path d="M96.0941 118.111C96.089 118.075 96.0788 118.029 96.0737 117.988C96.0737 118.044 96.0839 118.116 96.0992 118.141C96.0992 118.131 96.0992 118.121 96.0992 118.111H96.0941Z" fill="#FF0DF5"/>
<path d="M84.4394 122.863C84.4394 122.863 84.475 122.914 84.4903 122.935C84.4954 122.94 84.5005 122.95 84.5056 122.955C84.4649 122.899 84.4445 122.868 84.4292 122.853C84.4292 122.853 84.4292 122.858 84.4343 122.863H84.4394Z" fill="#FF0DF5"/>
<path d="M83.1812 118.131C83.1812 118.131 83.1812 118.136 83.1812 118.141C83.1913 118.126 83.1964 118.095 83.2015 118.055C83.1913 118.09 83.1862 118.116 83.1812 118.131Z" fill="#FF0DF5"/>
<path d="M30.4888 52.7902C30.4888 52.8258 30.4939 52.8615 30.499 52.892C30.499 52.9175 30.5091 52.9481 30.5142 52.9837C30.5193 52.943 30.499 52.8258 30.4888 52.7902Z" fill="#FF0DF5"/>
<path d="M122.15 92.5896C118.477 91.2244 114.168 92.4011 111.697 95.4422C111.529 95.6511 111.371 95.865 111.218 96.0892C108.962 94.7342 106.71 93.3843 104.453 92.0293C100.633 89.737 96.8175 87.4447 92.997 85.1523C92.2686 84.7143 91.5452 84.2813 90.8168 83.8432C91.8611 81.9941 92.5946 79.9616 92.9206 77.8119C93.0632 76.8848 93.1346 75.9526 93.1396 75.0153C93.1142 69.8601 90.883 65.0259 87.2102 61.6384C88.8963 59.667 90.5876 57.7007 92.2737 55.7294C95.162 52.3571 98.0503 48.9849 100.944 45.6178L102.599 43.682C105.375 45.8266 109.018 46.7537 112.568 46.0558C118.268 44.9352 122.384 39.7698 122.43 34.0085C122.389 28.889 119.185 24.2637 114.382 22.4706C109.563 20.6775 103.924 22.2057 100.669 26.179C97.4033 30.1676 96.9347 35.9239 99.6141 40.3505C100.2 41.3235 100.923 42.1844 101.728 42.9383C100.042 44.9046 98.3559 46.876 96.6647 48.8423C93.7764 52.2145 90.8881 55.5867 87.9947 58.9539C87.4395 59.6008 86.8893 60.2426 86.3341 60.8896C84.8364 59.6721 83.135 58.6737 81.2706 57.9809C74.1288 55.3218 65.8052 57.5836 60.9812 63.4722C60.7163 63.7983 60.4667 64.1345 60.2222 64.4758C57.2218 62.4738 54.2214 60.477 51.2211 58.475C50.9256 58.2764 50.6251 58.0777 50.3296 57.879C51.4554 56.0095 52.1074 53.8395 52.1278 51.5726C52.087 46.4532 48.8829 41.8278 44.0793 40.0347C39.2603 38.2416 33.6213 39.7698 30.3662 43.7432C27.1009 47.7318 26.6323 53.488 29.3117 57.9147C31.981 62.321 37.2176 64.6082 42.2658 63.6149C45.3324 63.0087 47.9303 61.2309 49.6929 58.8265C52.7034 60.8336 55.714 62.8406 58.7245 64.8476C59.0149 65.0412 59.3052 65.2348 59.5905 65.4283C56.1266 71.0572 55.9228 78.3315 59.3002 84.1234C56.4119 85.9266 53.5235 87.735 50.6352 89.5383C45.7959 92.5641 40.9566 95.5849 36.1173 98.6107C35.1546 99.2118 34.1867 99.818 33.2239 100.419C32.5057 99.4665 31.5327 98.7075 30.3662 98.2643C27.8447 97.3016 24.8647 98.1064 23.1582 100.19C21.4619 102.268 21.2021 105.258 22.5876 107.576C23.9681 109.889 26.673 111.076 29.3117 110.602C32.3427 110.057 34.5025 107.321 34.5484 104.285C34.5331 103.256 34.2784 102.268 33.8352 101.387L42.5256 95.9567C47.3649 92.9309 52.2042 89.9102 57.0435 86.8843C58.0012 86.2832 58.9589 85.6872 59.9165 85.0861C63.9714 91.1072 71.3882 94.1993 78.5504 92.7883C79.1006 92.6813 79.6405 92.5387 80.1754 92.3757C81.9532 97.7091 83.731 103.043 85.5088 108.376C85.7177 109.008 85.9316 109.639 86.1405 110.266C84.704 110.841 83.3999 111.758 82.4015 112.991C79.9207 116.042 79.5794 120.428 81.6374 123.795C83.675 127.122 87.6279 128.844 91.4484 128.11C95.814 127.275 98.9468 123.327 98.9927 118.931C98.9519 115.024 96.5221 111.504 92.8493 110.138C91.0307 109.461 89.0543 109.41 87.2255 109.899C85.4477 104.561 83.6648 99.222 81.887 93.8784C81.6781 93.2569 81.4744 92.6354 81.2655 92.014C84.9485 90.6437 88.0915 88.061 90.2157 84.7958C92.4774 86.1508 94.7341 87.5058 96.9958 88.8608C100.816 91.1531 104.632 93.4454 108.452 95.7377C109.181 96.1758 109.904 96.6088 110.632 97.0469C109.17 99.9046 109.211 103.414 110.928 106.221C112.966 109.548 116.918 111.269 120.739 110.536C125.105 109.7 128.237 105.753 128.283 101.356C128.242 97.4493 125.813 93.9293 122.14 92.5641L122.15 92.5896ZM100.607 28.2421C103.012 24.2688 107.795 22.1497 112.354 23.087C117.52 24.1465 121.248 28.7566 121.289 34.0136C121.253 38.6492 118.324 42.9383 113.923 44.5022C109.537 46.0609 104.586 44.711 101.591 41.1554C98.5597 37.559 98.1827 32.2562 100.613 28.2421H100.607ZM43.6208 62.0714C39.2349 63.6302 34.2835 62.2802 31.2882 58.7246C28.2573 55.1283 27.8803 49.8254 30.3102 45.8113C32.7145 41.838 37.4978 39.7189 42.0569 40.6562C47.2223 41.7157 50.9511 46.3258 50.9918 51.5828C50.9562 56.2184 48.0271 60.5075 43.6259 62.0714H43.6208ZM29.9332 109.278C27.8345 110.031 25.4505 109.369 24.0343 107.647C22.6386 105.946 22.4705 103.475 23.5963 101.591C24.7169 99.7161 26.9532 98.6922 29.1029 99.1048C31.5989 99.5837 33.3818 101.774 33.4175 104.301C33.3869 106.501 32.0268 108.524 29.9332 109.272V109.278ZM91.2345 110.892C95.0652 111.667 97.8109 115.064 97.8516 118.951C97.8159 122.354 95.6968 125.497 92.4723 126.663C89.2224 127.84 85.5445 126.847 83.3235 124.208C81.1025 121.569 80.8223 117.683 82.59 114.733C84.3474 111.794 87.8724 110.21 91.2345 110.892ZM80.8121 90.9952C74.1033 93.4199 66.4674 91.3365 61.9032 85.8706C57.3186 80.3793 56.7481 72.3307 60.4412 66.2179C64.1089 60.1561 71.3882 56.9366 78.3416 58.3426C85.249 59.7383 90.669 65.4029 91.7897 72.3511C91.9324 73.2324 91.9884 74.1238 91.9935 75.0153C91.9578 82.0756 87.4853 88.5857 80.8121 90.9952ZM121.763 109.089C118.513 110.266 114.835 109.272 112.614 106.634C110.393 103.995 110.113 100.108 111.88 97.1589C113.638 94.2197 117.163 92.6354 120.525 93.318C124.356 94.0923 127.101 97.49 127.142 101.377C127.106 104.78 124.987 107.923 121.763 109.089Z" fill="white"/>
</g>
</g>
<defs>
<linearGradient id="paint0_linear_2012_1815" x1="0" y1="135.217" x2="150" y2="135.217" gradientUnits="userSpaceOnUse">
<stop stop-color="#080715" stop-opacity="0"/>
<stop offset="0.495" stop-color="#FF0DF5"/>
<stop offset="1" stop-color="#080715" stop-opacity="0"/>
</linearGradient>
<linearGradient id="paint1_linear_2012_1815" x1="0" y1="111.739" x2="150" y2="111.739" gradientUnits="userSpaceOnUse">
<stop stop-color="#080715" stop-opacity="0"/>
<stop offset="0.495" stop-color="#FF0DF5"/>
<stop offset="1" stop-color="#080715" stop-opacity="0"/>
</linearGradient>
<linearGradient id="paint2_linear_2012_1815" x1="0" y1="88.2609" x2="150" y2="88.2609" gradientUnits="userSpaceOnUse">
<stop stop-color="#080715" stop-opacity="0"/>
<stop offset="0.495" stop-color="#FF0DF5"/>
<stop offset="1" stop-color="#080715" stop-opacity="0"/>
</linearGradient>
<linearGradient id="paint3_linear_2012_1815" x1="0" y1="64.7826" x2="150" y2="64.7826" gradientUnits="userSpaceOnUse">
<stop stop-color="#080715" stop-opacity="0"/>
<stop offset="0.495" stop-color="#FF0DF5"/>
<stop offset="1" stop-color="#080715" stop-opacity="0"/>
</linearGradient>
<linearGradient id="paint4_linear_2012_1815" x1="0" y1="40.9783" x2="150" y2="40.9783" gradientUnits="userSpaceOnUse">
<stop stop-color="#080715" stop-opacity="0"/>
<stop offset="0.495" stop-color="#FF0DF5"/>
<stop offset="1" stop-color="#080715" stop-opacity="0"/>
</linearGradient>
<clipPath id="clip0_2012_1815">
<rect width="150" height="150" fill="white"/>
</clipPath>
<clipPath id="clip1_2012_1815">
<rect width="110.01" height="110" fill="white" transform="translate(20 20)"/>
</clipPath>
</defs>
</svg>
