<svg width="150" height="150" viewBox="0 0 150 150" fill="none" xmlns="http://www.w3.org/2000/svg">
<g clip-path="url(#clip0_2012_1837)">
<g opacity="0.6">
<rect y="131.304" width="150" height="7.82609" fill="url(#paint0_linear_2012_1837)"/>
<rect y="108.478" width="150" height="6.52174" fill="url(#paint1_linear_2012_1837)"/>
<rect y="85.6522" width="150" height="5.21739" fill="url(#paint2_linear_2012_1837)"/>
<rect y="62.826" width="150" height="3.91304" fill="url(#paint3_linear_2012_1837)"/>
<rect y="40" width="150" height="1.95652" fill="url(#paint4_linear_2012_1837)"/>
</g>
<g clip-path="url(#clip1_2012_1837)">
<path d="M128.863 63.8389C127.754 58.3942 125.77 53.1059 123.068 48.2502C120.404 43.4636 116.989 39.0498 113.03 35.2666C109.063 31.4741 104.516 28.2431 99.5956 25.7992C94.5651 23.2954 89.1663 21.5327 83.6065 20.6858C80.7575 20.2486 77.8856 20.0092 74.9998 20.0046C69.2697 20.0138 63.5073 20.8929 58.058 22.6649C52.7927 24.377 47.7668 26.8762 43.2609 30.0933C38.6722 33.3657 34.6404 37.2733 31.2115 41.7469C27.8563 46.1239 25.2191 50.9979 23.3182 56.1712C21.3483 61.5147 20.2621 67.1988 20.0412 72.8967C19.8157 78.6498 20.5061 84.4812 22.0755 90.0226C23.5898 95.3569 25.9232 100.493 28.9747 105.123C31.9893 109.703 35.6714 113.854 39.9011 117.343C44.2827 120.952 49.1245 123.842 54.376 125.996C59.609 128.141 65.1734 129.402 70.8069 129.844C76.5739 130.295 82.4375 129.807 88.0617 128.444C93.4651 127.133 98.6981 124.965 103.453 122.084C108.138 119.244 112.423 115.691 116.059 111.595C119.713 107.475 122.783 102.831 125.048 97.8101C127.436 92.5126 128.969 86.9482 129.641 81.1812C130.313 75.4097 130.018 69.5369 128.858 63.8482L128.863 63.8389ZM125.425 68.1837C125.416 68.1193 125.411 68.0825 125.425 68.1837ZM24.5701 81.7703C24.5701 81.7703 24.5655 81.7381 24.5609 81.7197C24.5379 81.5632 24.5563 81.6691 24.5701 81.7703ZM68.2755 125.434C68.2295 125.43 68.1789 125.421 68.1329 125.416C68.2019 125.425 68.4919 125.467 68.2755 125.434ZM125.42 81.8256C125.416 81.8808 125.411 81.9038 125.42 81.8256ZM125.485 81.3285C125.471 81.439 125.457 81.5448 125.443 81.6553C125.42 81.7059 125.42 81.8302 125.416 81.8808C125.365 82.2444 125.31 82.608 125.25 82.9716C125.14 83.6436 125.02 84.3155 124.886 84.9829C124.619 86.3084 124.302 87.6201 123.934 88.918C123.57 90.2067 123.156 91.477 122.691 92.7335C122.461 93.3595 122.217 93.9762 121.968 94.5929C121.95 94.6436 121.927 94.6896 121.909 94.7402C121.849 94.8783 121.789 95.0164 121.729 95.1544C121.596 95.4582 121.462 95.762 121.324 96.0611C120.224 98.4544 118.94 100.765 117.495 102.965C117.136 103.513 116.763 104.056 116.386 104.59C116.197 104.857 116.004 105.123 115.81 105.386C115.718 105.505 115.631 105.63 115.539 105.749C115.511 105.786 115.419 105.906 115.355 105.993C115.465 105.846 115.217 106.173 115.171 106.228C115.06 106.366 114.954 106.504 114.844 106.642C114.641 106.895 114.434 107.149 114.222 107.402C113.804 107.903 113.376 108.4 112.938 108.884C111.194 110.831 109.302 112.644 107.291 114.315C107.038 114.522 106.785 114.729 106.532 114.931C106.412 115.023 106.297 115.12 106.177 115.212C106.14 115.24 106.104 115.272 106.067 115.3C106.067 115.3 106.067 115.3 106.062 115.3C105.533 115.686 105.013 116.087 104.479 116.464C103.407 117.223 102.307 117.937 101.183 118.613C100.056 119.29 98.9006 119.93 97.7224 120.519C97.1333 120.818 96.535 121.103 95.9366 121.375C95.6375 121.513 95.3337 121.646 95.0299 121.78C94.9103 121.831 94.7906 121.886 94.6709 121.936C94.6065 121.964 94.5283 121.996 94.4684 122.019C91.9647 123.041 89.3827 123.869 86.7546 124.495C85.4337 124.808 84.099 125.071 82.755 125.282C82.4421 125.333 82.1291 125.379 81.8161 125.421C81.8161 125.421 81.8161 125.421 81.8115 125.421C81.7931 125.421 81.7701 125.425 81.7379 125.43C81.5262 125.457 81.3191 125.48 81.1073 125.508C80.4216 125.586 79.7312 125.651 79.0454 125.706C76.2563 125.918 73.4534 125.908 70.6642 125.683C69.9785 125.628 69.2881 125.559 68.6023 125.476C68.5609 125.471 68.1513 125.402 68.1329 125.416C68.1052 125.416 68.0822 125.407 68.0546 125.407C67.691 125.356 67.3274 125.301 66.9638 125.241C65.6245 125.02 64.2944 124.753 62.9734 124.431C60.3684 123.796 57.8324 122.949 55.3517 121.941C55.3241 121.932 55.3103 121.927 55.2965 121.918C55.2919 121.918 55.2919 121.918 55.2827 121.913C55.14 121.854 55.0019 121.794 54.8592 121.729C54.5324 121.587 54.2057 121.439 53.8835 121.292C53.2852 121.016 52.6914 120.726 52.1023 120.427C50.9287 119.828 49.7781 119.189 48.6504 118.508C47.5274 117.826 46.432 117.104 45.3642 116.344C45.1203 116.169 44.8718 115.99 44.6324 115.811C44.4898 115.705 44.3517 115.599 44.209 115.493C44.1538 115.452 44.0755 115.392 44.0203 115.35C43.5278 114.968 43.04 114.577 42.5613 114.177C40.5546 112.501 38.6722 110.674 36.937 108.723C36.5044 108.235 36.0764 107.738 35.6621 107.236C35.455 106.983 35.2479 106.73 35.0454 106.472C34.9534 106.352 34.8567 106.237 34.7647 106.118C34.7463 106.095 34.7278 106.072 34.7094 106.044C34.7002 106.03 34.691 106.016 34.6726 105.998C33.8856 104.949 33.1262 103.885 32.4082 102.785C30.9722 100.576 29.7019 98.2611 28.6111 95.8632C28.473 95.5641 28.3396 95.2603 28.2061 94.9565C28.1785 94.8967 28.0312 94.5423 28.0772 94.6574C28.0358 94.5607 27.9852 94.4318 27.9714 94.395C27.7228 93.7783 27.4835 93.1569 27.2534 92.531C26.7977 91.2745 26.3881 89.9996 26.0291 88.7063C25.6655 87.4038 25.3525 86.0875 25.0902 84.762C24.9567 84.0946 24.8416 83.4226 24.7358 82.7507C24.6898 82.4607 24.6483 82.1662 24.6069 81.8762C24.6069 81.8348 24.5793 81.6737 24.5793 81.6553C24.5563 81.4712 24.5333 81.2871 24.5149 81.103C24.1973 78.3277 24.1006 75.5339 24.2157 72.7448C24.2755 71.3595 24.386 69.9787 24.5517 68.6025C24.5517 68.5703 24.5747 68.3954 24.5931 68.2804C24.5701 68.4829 24.6253 68.0502 24.6345 67.9766C24.6852 67.636 24.7358 67.3 24.791 66.9641C24.9015 66.2921 25.0257 65.6247 25.1592 64.9574C25.7023 62.2971 26.4479 59.6829 27.3914 57.1377C27.6216 56.5164 27.8747 55.8996 28.1232 55.2829C28.1232 55.2829 28.1232 55.2829 28.1232 55.2737C28.1324 55.2553 28.1416 55.2323 28.1509 55.2138C28.2107 55.0712 28.2705 54.9331 28.335 54.795C28.4776 54.4682 28.6249 54.1415 28.7768 53.8193C29.3337 52.6226 29.932 51.4444 30.5764 50.2938C31.2161 49.1477 31.9019 48.0247 32.6245 46.9247C32.9881 46.377 33.3563 45.8385 33.7383 45.3046C33.9132 45.0607 34.0927 44.8122 34.2722 44.5728C34.3642 44.4532 34.4517 44.3289 34.5437 44.2092C34.5944 44.1402 34.6496 44.0712 34.7048 43.9975C36.3203 41.954 38.0463 40.0118 39.9333 38.2122C40.8768 37.3101 41.8571 36.4402 42.8651 35.6072C43.0998 35.4138 43.3345 35.2251 43.5693 35.0364C43.7073 34.926 43.8454 34.8201 43.9835 34.7097C43.9881 34.7051 44.0019 34.6959 44.0157 34.6866C44.0525 34.659 44.0893 34.6314 44.1032 34.6222C44.6278 34.2264 45.1525 33.8398 45.691 33.4624C47.845 31.9528 50.1094 30.5996 52.4613 29.426C53.0504 29.1314 53.6488 28.8461 54.2517 28.5745C54.5278 28.4502 54.8086 28.326 55.0893 28.2017C55.1906 28.1603 55.3195 28.0959 55.3747 28.0728C55.3517 28.0866 55.3103 28.1051 55.232 28.1419C55.3931 28.0636 55.5634 28.0038 55.7291 27.9394C56.9626 27.4377 58.2191 26.9866 59.4893 26.5816C62.0668 25.7624 64.704 25.1364 67.3781 24.7222C67.691 24.6716 68.004 24.6256 68.3216 24.5841C68.3676 24.5795 68.4228 24.5703 68.4734 24.5657C68.6299 24.5473 68.7864 24.5289 68.9475 24.5105C69.6057 24.4369 70.2684 24.3724 70.9312 24.3218C72.2981 24.2159 73.6697 24.1653 75.0412 24.1653C76.4404 24.1653 77.835 24.2205 79.2295 24.3264C79.9199 24.3816 80.6057 24.4461 81.2914 24.5289C81.4433 24.5473 81.5952 24.5657 81.7425 24.5841C81.8023 24.5933 81.8852 24.6025 81.9174 24.6071C82.258 24.6532 82.594 24.7038 82.9345 24.759C85.604 25.1871 88.2366 25.8222 90.8094 26.6507C92.0751 27.0603 93.3316 27.5205 94.5605 28.0268C94.6111 28.0498 94.6663 28.0682 94.7078 28.0866C94.8458 28.1465 94.9839 28.2063 95.122 28.2661C95.4258 28.3996 95.7295 28.5331 96.0287 28.6712C96.6316 28.9473 97.2253 29.2327 97.8145 29.5318C100.162 30.7147 102.422 32.077 104.566 33.5959C105.086 33.9641 105.593 34.3415 106.099 34.7281C106.154 34.7695 106.214 34.8201 106.265 34.8569C106.384 34.949 106.499 35.0456 106.619 35.1377C106.872 35.3402 107.13 35.5473 107.378 35.759C108.382 36.5967 109.358 37.4666 110.301 38.3733C111.24 39.28 112.151 40.2235 113.021 41.1946C113.458 41.6825 113.886 42.1749 114.301 42.6812C114.508 42.9343 114.715 43.1875 114.922 43.4406C115.014 43.5603 115.111 43.6754 115.203 43.795C115.24 43.8456 115.29 43.9101 115.332 43.9653C116.906 46.0733 118.365 48.2548 119.64 50.5607C120.275 51.7159 120.868 52.8988 121.421 54.1C121.55 54.3762 121.674 54.6569 121.794 54.9377C121.844 55.0482 121.89 55.1632 121.936 55.2737C121.978 55.3703 122.019 55.4716 122.06 55.5728C122.314 56.1896 122.553 56.8109 122.778 57.4323C123.699 59.959 124.426 62.5548 124.951 65.1921C125.084 65.8595 125.204 66.5314 125.31 67.2034C125.36 67.5164 125.407 67.8293 125.448 68.1423C125.453 68.1883 125.453 68.3172 125.476 68.3632C125.494 68.5243 125.517 68.6854 125.535 68.8465C125.696 70.2226 125.802 71.608 125.853 72.9933C125.959 75.7825 125.848 78.5762 125.517 81.3469L125.485 81.3285Z" fill="#FF0DF5"/>
<path d="M55.4025 90.041L55.5222 89.9214C55.6372 89.8247 55.7477 89.7143 55.8443 89.5992L63.2084 82.2352L67.7326 77.7109C68.9707 76.4728 70.2088 75.2348 71.4469 73.9967C72.7586 72.685 74.1347 71.4147 75.3958 70.0477C77.0343 68.4092 78.6682 66.7754 80.3067 65.1369L80.5552 64.8883L88.3519 57.0917L95.1222 50.3214C96.7469 48.6967 98.3715 47.072 99.9962 45.4473C100.769 44.6741 101.556 43.9147 102.316 43.1277C102.348 43.0954 102.38 43.0632 102.417 43.0264C103.135 42.3084 103.305 40.785 102.417 40.0992C96.4155 35.4415 89.3598 32.2427 81.8209 31.1197C79.5611 30.7837 77.2874 30.5904 75.0046 30.5858C68.736 30.5996 62.5778 31.939 56.8523 34.4749C51.4766 36.859 46.5749 40.3938 42.5753 44.7017C38.4515 49.1431 35.2803 54.3808 33.2368 60.0787C31.0782 66.1034 30.2728 72.6712 30.8941 79.0364C31.6213 86.5109 34.1803 93.7599 38.4561 99.9456C39.013 100.751 39.6067 101.534 40.2096 102.307C40.8954 103.19 42.4234 103.02 43.1368 102.307L44.7155 100.728C46.1561 99.2875 47.5966 97.8469 49.0372 96.4063C51.159 94.2846 53.2807 92.1628 55.4025 90.041ZM42.5707 63.595H59.9636C59.9314 63.839 59.8992 64.0875 59.8623 64.3314H54.4406C53.359 64.3314 52.3188 65.2841 52.3694 66.4026V86.4005H50.1326V66.4026C50.1326 65.2841 49.1845 64.3314 48.0615 64.3314H42.5707V63.595ZM72.2155 63.885C72.2431 63.7883 72.2753 63.6917 72.3029 63.5996H75.9895L75.3498 64.2394C74.2774 63.8298 72.8644 64.2716 72.5469 65.5649C72.3858 66.2185 72.2293 66.8674 72.0682 67.521L70.9038 68.6854L70.6828 68.9063C71.1937 67.231 71.7092 65.5557 72.2201 63.885H72.2155ZM42.6259 96.9632C42.3866 97.2026 42.1473 97.4373 41.9033 97.672C41.8757 97.6306 41.8481 97.5938 41.8205 97.5523C41.3326 96.8344 40.8678 96.1026 40.4259 95.3569C39.5515 93.8841 38.769 92.3561 38.0833 90.7867C38.0464 90.6992 37.8853 90.3218 37.9176 90.4C37.8623 90.262 37.8025 90.1193 37.7473 89.9812C37.5724 89.544 37.4067 89.1021 37.2456 88.6603C36.9464 87.8272 36.6749 86.9896 36.4264 86.1381C35.9385 84.449 35.5519 82.7323 35.2803 80.9971C35.2435 80.7716 35.2159 80.5507 35.1791 80.3252C35.1791 80.3252 35.1791 80.3251 35.1791 80.3159C35.1653 80.2147 35.1515 80.1088 35.1423 80.0076C35.087 79.5565 35.041 79.1009 34.9996 78.6498C34.9167 77.7339 34.8661 76.8134 34.8477 75.8929C34.8109 74.3557 34.8569 72.8138 34.9904 71.2812C35.018 70.936 35.0548 70.5954 35.0916 70.2503C35.11 70.0662 35.133 69.8821 35.1561 69.698C35.1653 69.6243 35.1745 69.5507 35.1837 69.477C35.1837 69.4724 35.1837 69.4678 35.1837 69.4632C35.2941 68.736 35.4092 68.0134 35.5473 67.2954C35.8188 65.8963 36.164 64.5155 36.5782 63.1486C36.9833 61.8139 37.4435 60.4745 38.0004 59.195C38.0188 59.149 38.0464 59.0938 38.0694 59.0385C38.1385 58.8774 38.2121 58.7118 38.2858 58.5507C38.4423 58.2055 38.6033 57.8603 38.769 57.5151C39.0682 56.8984 39.3812 56.2908 39.7079 55.6925C40.3845 54.4544 41.1255 53.2486 41.9217 52.0841C42.3038 51.5226 42.7042 50.9749 43.1138 50.4318C43.1414 50.395 43.1736 50.3536 43.2012 50.3168C43.3117 50.1833 43.4176 50.0406 43.528 49.9026C43.7489 49.6264 43.9699 49.3595 44.2 49.0879C45.9996 46.9615 48.0063 45.0147 50.1879 43.2795C50.2799 43.2059 50.4088 43.1046 50.441 43.0816C50.533 43.008 50.6297 42.939 50.7217 42.8653C51.0025 42.6536 51.2879 42.4465 51.5732 42.244C52.1485 41.8344 52.733 41.4385 53.3268 41.0611C54.4958 40.3109 55.7063 39.6205 56.9443 38.9946C57.5795 38.6724 58.2192 38.3687 58.8682 38.0787C59.0293 38.0051 59.195 37.936 59.3561 37.8624C59.3561 37.8624 59.3561 37.8624 59.3653 37.8624C59.3837 37.8532 59.4067 37.844 59.4251 37.8394C59.7795 37.6921 60.1339 37.554 60.4929 37.4159C61.8138 36.9143 63.1577 36.477 64.5201 36.1088C65.9284 35.7314 67.3552 35.4231 68.7912 35.1929C68.9707 35.1653 69.1548 35.1377 69.3343 35.1101C69.3941 35.1009 69.454 35.0917 69.5046 35.0825C69.8636 35.0318 70.2318 34.995 70.5908 34.9536C71.3042 34.88 72.0222 34.8247 72.7402 34.7879C73.4904 34.7465 74.2452 34.7281 75 34.7281C76.8042 34.7281 78.6084 34.8431 80.3987 35.0733C80.4908 35.0871 80.7393 35.1193 80.813 35.1331C81.0339 35.1653 81.2594 35.2021 81.4803 35.239C81.9222 35.3126 82.364 35.3954 82.8058 35.4829C83.6803 35.6578 84.5502 35.8649 85.4155 36.095C87.123 36.5507 88.7891 37.1306 90.4322 37.7887C90.4598 37.798 90.5335 37.8302 90.5795 37.8486C90.6255 37.867 90.6715 37.89 90.7176 37.9084C90.9201 37.9959 91.118 38.0833 91.3159 38.1754C91.7163 38.3549 92.1075 38.5436 92.5033 38.7323C93.2858 39.1143 94.0544 39.5239 94.8138 39.9519C95.6745 40.4444 96.5213 40.9645 97.3452 41.5122C97.4925 41.6088 97.6305 41.7101 97.7778 41.8113L93.5803 46.0088L87.215 52.3741L79.7222 59.867C79.6623 59.821 79.6025 59.7841 79.5381 59.7473C79.5197 59.7381 79.5012 59.7243 79.4828 59.7151C79.4 59.6691 79.3171 59.6277 79.2297 59.5954C79.1515 59.5632 79.0686 59.5402 78.9858 59.5172C78.9581 59.5126 78.9351 59.5034 78.9075 59.4988C78.7188 59.4574 78.5301 59.439 78.3322 59.4574H70.7749C69.8452 59.4574 69.0443 60.1063 68.7774 60.9762C67.4611 65.2795 66.1448 69.5875 64.8284 73.8908C64.6996 74.3097 64.5707 74.7285 64.4418 75.1473L62.3155 77.2737L56.5117 83.0775V68.4783H61.6527C62.4581 68.4783 63.5305 67.8431 63.6502 66.9595C63.8711 65.3348 64.092 63.7055 64.313 62.0808C64.405 61.395 64.382 60.8427 63.9402 60.2766C63.5443 59.7657 62.969 59.462 62.3155 59.462H40.4996C39.3812 59.462 38.4284 60.4101 38.4284 61.5331V66.4118C38.4284 67.5302 39.3766 68.4829 40.4996 68.4829H45.9904V88.4808C45.9904 89.5992 46.9385 90.5519 48.0615 90.5519C48.3837 90.5519 48.7105 90.5519 49.0326 90.5611L47.4954 92.0984C45.8707 93.7231 44.246 95.3477 42.6213 96.9724L42.6259 96.9632Z" fill="#FF0DF5"/>
<path d="M111.737 50.1235C111.249 49.4055 110.738 48.706 110.209 48.0202C109.795 47.4817 109.39 47.1227 108.695 47.0306C108.051 46.9432 107.425 47.1319 106.955 47.6014L105.377 49.18L101.055 53.5018C98.9331 55.6235 96.8113 57.7453 94.6895 59.867C92.0891 62.4675 89.4887 65.0679 86.8883 67.6683C84.969 69.5875 83.0498 71.5068 81.1305 73.426C78.8661 75.6905 76.6017 77.9549 74.3372 80.2193C74.0105 80.5461 73.6837 80.8729 73.3569 81.1997L69.7992 84.7574L67.7879 86.7687L67.5762 86.9804L67.5439 87.0127C65.6155 88.9411 63.6824 90.8742 61.754 92.8026L54.9883 99.5683L50.1188 104.438C49.3456 105.211 48.5586 105.97 47.7992 106.757C47.7669 106.79 47.7347 106.822 47.6979 106.859C47.2285 107.328 47.0397 107.954 47.1272 108.598C47.2192 109.293 47.5782 109.698 48.1167 110.113C53.9251 114.591 60.9071 117.596 68.1653 118.678C70.4297 119.014 72.7033 119.212 74.9908 119.216C81.2318 119.203 87.3669 117.872 93.0741 115.355C98.4544 112.98 103.365 109.454 107.369 105.151C111.479 100.737 114.651 95.5319 116.708 89.8616C118.876 83.8875 119.704 77.3704 119.129 71.0465C118.452 63.5859 115.949 56.3323 111.728 50.1281L111.737 50.1235ZM103.407 63.5951H105.248C103.756 66.1725 102.265 68.7453 100.779 71.3227C100.484 71.829 100.19 72.3398 99.8996 72.8461C99.7477 73.1131 99.6648 73.4122 99.6418 73.7206C99.6418 73.762 99.6418 73.8034 99.6418 73.8449C99.6418 73.9277 99.6418 74.0106 99.6464 74.0934C99.651 74.1486 99.6603 74.2039 99.6695 74.2591C99.6833 74.3419 99.6971 74.4202 99.7201 74.503C99.7339 74.5444 99.7477 74.5859 99.7661 74.6319C99.7983 74.7193 99.8305 74.8068 99.872 74.885C99.8812 74.9034 99.8858 74.9219 99.895 74.9403C101.943 78.7603 103.991 82.585 106.039 86.4051H103.945C102.716 83.7541 101.492 81.103 100.263 78.452C100.061 78.0147 99.8582 77.5821 99.6603 77.1449C99.0343 75.7963 96.7054 75.7825 96.0841 77.1449C94.7218 80.1365 93.3548 83.1327 91.9925 86.1244C91.951 86.2164 91.9096 86.3131 91.8636 86.4051H89.8753C90.9339 84.426 91.9971 82.4424 93.0556 80.4633C93.8933 78.8938 94.7356 77.329 95.5732 75.7595C96.0335 74.9034 96.3649 74.1164 95.8586 73.1085C95.5732 72.5378 95.2326 71.9901 94.9243 71.4332C94.2155 70.1629 93.5021 68.888 92.7933 67.6177L93.9301 66.4808C94.6711 68.0641 95.4167 69.6428 96.1577 71.226C96.7975 72.5884 99.0895 72.57 99.7339 71.226C100.958 68.6855 102.178 66.1403 103.402 63.5997L103.407 63.5951ZM81.554 86.4051C81.2042 84.9737 80.8544 83.5424 80.5046 82.111C80.3941 81.6645 80.1042 81.2825 79.7314 81.011C79.6854 80.9742 79.6347 80.9419 79.5841 80.9097C79.5703 80.9005 79.5519 80.8867 79.5381 80.8775L81.623 78.7926C82.4008 81.3285 83.1741 83.8691 83.9519 86.4051H81.5494H81.554ZM87.7858 72.6252L89.751 70.6599C90.4092 71.8336 91.0628 73.0118 91.7209 74.1855C90.1975 77.0298 88.6787 79.8695 87.1552 82.7139C86.4741 80.4863 85.7929 78.2541 85.1071 76.0265C85.0519 75.8424 84.992 75.6583 84.9368 75.4742L87.7812 72.6298L87.7858 72.6252ZM115.019 78.5118C114.991 78.857 114.954 79.1976 114.918 79.5428C114.899 79.7269 114.876 79.911 114.853 80.0951C114.844 80.1687 114.835 80.2424 114.826 80.316C114.826 80.3206 114.826 80.3252 114.826 80.3298C114.715 81.057 114.6 81.7796 114.462 82.4976C114.19 83.8967 113.845 85.2775 113.431 86.6444C113.026 87.9792 112.566 89.3185 112.009 90.598C111.99 90.644 111.963 90.6947 111.94 90.7545C111.871 90.9156 111.797 91.0813 111.723 91.2424C111.567 91.5875 111.406 91.9327 111.24 92.2779C110.941 92.8947 110.628 93.5022 110.301 94.1005C109.625 95.3386 108.884 96.5444 108.087 97.7089C107.705 98.2704 107.305 98.8181 106.895 99.3612C106.868 99.398 106.836 99.4348 106.808 99.4762C106.697 99.6097 106.592 99.7524 106.481 99.8905C106.26 100.167 106.039 100.434 105.809 100.705C104.01 102.831 102.003 104.778 99.8213 106.513C99.7293 106.587 99.605 106.684 99.5682 106.711C99.4762 106.785 99.3795 106.854 99.2874 106.928C99.0067 107.139 98.7213 107.347 98.436 107.549C97.8607 107.959 97.2761 108.354 96.6824 108.732C95.5134 109.482 94.3029 110.172 93.0649 110.798C92.4297 111.121 91.79 111.424 91.141 111.714C90.9799 111.788 90.8142 111.857 90.6531 111.931C90.6531 111.931 90.6531 111.931 90.6439 111.931C90.6255 111.94 90.6025 111.949 90.5841 111.958C90.2297 112.106 89.8753 112.244 89.5163 112.382C88.1954 112.883 86.8515 113.321 85.4891 113.689C84.0807 114.066 82.654 114.375 81.218 114.605C81.0385 114.632 80.8544 114.66 80.6749 114.688C80.6151 114.697 80.5552 114.706 80.5092 114.715C80.1502 114.766 79.782 114.803 79.423 114.844C78.7096 114.918 77.9916 114.973 77.2736 115.01C76.5234 115.051 75.7686 115.07 75.0138 115.07C73.205 115.07 71.4008 114.954 69.6059 114.724C69.5138 114.711 69.2653 114.674 69.1916 114.665C68.9661 114.632 68.7452 114.595 68.5197 114.559C68.0778 114.485 67.6314 114.402 67.1895 114.315C66.3105 114.14 65.4406 113.933 64.5799 113.703C62.8678 113.242 61.1971 112.667 59.5586 112.004C59.531 111.99 59.4527 111.963 59.4067 111.944C59.3607 111.926 59.3146 111.908 59.2732 111.885C59.0707 111.797 58.8728 111.71 58.6703 111.618C58.2699 111.438 57.8741 111.249 57.4828 111.056C56.7004 110.674 55.9272 110.265 55.1724 109.832C54.2105 109.284 53.2715 108.69 52.3556 108.069C53.7502 106.675 55.1448 105.28 56.5393 103.885L62.9046 97.5202L70.0707 90.3541C70.2134 90.2896 70.3423 90.2068 70.4619 90.1009C70.6184 90.0089 70.7427 89.8846 70.8347 89.7281C70.9406 89.6131 71.0234 89.4796 71.0879 89.3369L75.695 84.7298H76.8962C77.246 86.1612 77.5958 87.5926 77.9456 89.0239C78.1619 89.903 79.0548 90.5428 79.9431 90.5428H93.2029C93.8749 90.5428 94.6987 90.1608 94.9933 89.5164C95.9644 87.3854 96.9356 85.2545 97.9067 83.1235C98.6937 84.8172 99.4761 86.5156 100.263 88.2093C100.466 88.6465 100.668 89.0792 100.866 89.5164C101.165 90.1608 101.98 90.5428 102.656 90.5428H109.519C111.134 90.5428 112.041 88.7938 111.309 87.4269C109.026 83.1696 106.744 78.9076 104.461 74.6503C104.332 74.411 104.203 74.1716 104.074 73.9277C105.97 70.6461 107.871 67.3691 109.767 64.0875C110.062 63.5813 110.356 63.0704 110.646 62.5641C111.433 61.2064 110.435 59.4482 108.856 59.4482H102.127C101.441 59.4482 100.65 59.8302 100.337 60.4746L97.9849 65.3624C97.672 64.6997 97.359 64.0323 97.0506 63.3696L102.61 57.8097L107.48 52.9403C107.715 52.7055 107.954 52.4708 108.193 52.2407C109.638 54.367 110.89 56.6223 111.926 58.9788C111.963 59.0616 112.11 59.416 112.096 59.37C112.151 59.508 112.211 59.6461 112.267 59.7842C112.441 60.2214 112.607 60.6633 112.768 61.1051C113.067 61.9382 113.344 62.7804 113.587 63.6319C114.08 65.321 114.462 67.0424 114.738 68.7821C114.775 69.0076 114.803 69.2285 114.839 69.4541C114.839 69.4587 114.839 69.4587 114.839 69.4633C114.853 69.5645 114.867 69.6658 114.876 69.7716C114.931 70.2227 114.977 70.6783 115.019 71.134C115.102 72.0499 115.152 72.975 115.171 73.8955C115.208 75.4327 115.162 76.9746 115.028 78.5072L115.019 78.5118Z" fill="#FF0DF5"/>
<path d="M127.368 64.2532C126.286 58.9327 124.371 53.7779 121.73 49.0373C119.125 44.3565 115.806 40.067 111.931 36.3666C108.051 32.6616 103.614 29.5319 98.8136 27.1431C93.9028 24.6992 88.6191 23.0147 83.1973 22.1862C80.4864 21.772 77.7479 21.5649 75.0048 21.5603C69.4036 21.5695 63.8023 22.4302 58.4726 24.1653C53.3316 25.836 48.4484 28.2984 44.0438 31.4327C39.6852 34.5394 35.8099 38.2858 32.5513 42.5293C29.2789 46.7913 26.6693 51.5411 24.8145 56.5808C22.8906 61.8047 21.8136 67.3369 21.5927 72.8967C21.3718 78.521 22.0346 84.1913 23.5718 89.6084C25.0492 94.8231 27.3366 99.8122 30.3145 104.336C33.2601 108.805 36.8684 112.837 41.0015 116.239C45.1576 119.663 49.8061 122.447 54.7906 124.491C59.8902 126.585 65.3166 127.855 70.812 128.283C76.45 128.725 82.1618 128.274 87.6525 126.939C92.9362 125.66 98.022 123.552 102.671 120.735C107.245 117.96 111.411 114.49 114.964 110.485C118.531 106.467 121.499 101.916 123.713 97.0185C125.982 91.9925 127.455 86.649 128.095 81.172C128.748 75.5431 128.5 69.8084 127.368 64.2532ZM125.43 89.3323C123.98 94.4411 121.748 99.3105 118.835 103.752C115.958 108.134 112.419 112.069 108.387 115.415C104.332 118.775 99.7479 121.531 94.8693 123.524C89.8295 125.582 84.4676 126.857 79.0366 127.266C73.5136 127.68 67.9354 127.243 62.5551 125.927C57.3818 124.666 52.4157 122.608 47.8592 119.847C43.3764 117.127 39.3124 113.735 35.8237 109.818C32.3258 105.887 29.4308 101.432 27.2492 96.6411C25.017 91.7348 23.5534 86.4557 22.9412 81.0984C22.3107 75.5846 22.5316 69.9695 23.6408 64.5339C24.7132 59.2733 26.591 54.1875 29.2099 49.4975C31.7689 44.9134 35.0136 40.7298 38.8061 37.103C42.6078 33.4716 46.9433 30.4201 51.6471 28.0729C56.4521 25.6749 61.6253 24.0365 66.932 23.208C69.6015 22.7938 72.3032 22.5959 75.0048 22.5913C80.4956 22.6005 85.9588 23.4427 91.1873 25.1365C96.2224 26.7657 101 29.1775 105.317 32.2381C109.593 35.2666 113.417 38.9532 116.607 43.1093C119.833 47.316 122.429 52.0151 124.247 56.9996C126.116 62.1222 127.174 67.5256 127.381 72.9795C127.589 78.4934 126.94 84.0256 125.435 89.3369L125.43 89.3323Z" fill="white"/>
<path d="M54.3674 88.8812C54.5469 88.7892 54.6804 88.6465 54.777 88.4716L62.1135 81.1352L66.6377 76.6109C67.8758 75.3729 69.1139 74.1348 70.3519 72.8967L70.6189 72.6298L72.957 70.2917C73.3942 69.8545 73.9143 69.431 74.3009 68.9478L75.2766 67.972L79.2072 64.0415L79.4557 63.7929L87.2524 55.9963L94.0227 49.226L98.8967 44.3519C99.6699 43.5787 100.466 42.8239 101.216 42.0323C101.249 42.0001 101.281 41.9678 101.318 41.931C101.497 41.7515 101.539 41.3695 101.318 41.1992C95.5277 36.7072 88.6653 33.6971 81.4072 32.6201C79.2854 32.3026 77.1453 32.1461 75.0005 32.1415C69.0218 32.1507 63.0984 33.398 57.6306 35.8189C52.3653 38.1524 47.5879 41.5812 43.6666 45.8017C39.736 50.036 36.68 55.0528 34.7285 60.4929C32.6068 66.4026 31.8335 72.7909 32.4411 79.0411C33.1406 86.2394 35.6766 93.2168 39.7913 99.1678C40.2745 99.8674 40.7808 100.544 41.3009 101.216C41.4712 101.437 41.8532 101.395 42.0327 101.216C42.5574 100.691 43.0867 100.162 43.6114 99.6373C45.0519 98.1967 46.4925 96.7561 47.9331 95.3155C50.0549 93.1938 52.1766 91.072 54.2984 88.9503L54.3582 88.8904L54.3674 88.8812ZM48.062 65.8871H41.0155V62.044H61.7268C61.5519 63.3235 61.3817 64.6076 61.2068 65.8871H54.4411C54.2984 65.8871 54.1925 65.9423 54.1143 66.016C54.1005 66.0252 54.0913 66.0344 54.0775 66.0436C54.0683 66.0528 54.0637 66.0666 54.0545 66.0758C53.9808 66.1586 53.9256 66.2645 53.9256 66.4072V87.8641L53.8289 87.9607H48.5821V66.4072C48.5821 66.1264 48.3427 65.8917 48.0666 65.8917L48.062 65.8871ZM71.1574 62.044H78.1302C78.2545 62.4536 78.3833 62.8678 78.5076 63.2775L75.1984 66.5867C75.1478 66.3842 75.0971 66.177 75.0465 65.9745C74.9268 65.4821 74.1674 65.4821 74.0478 65.9745C73.9465 66.3842 73.8452 66.7938 73.7486 67.2034C73.6796 67.4842 73.6105 67.7649 73.5415 68.0457C73.5231 68.1193 73.4955 68.2022 73.4817 68.2804C73.2147 68.5289 72.4691 69.3114 72.4093 69.3712C70.7294 71.0511 69.054 72.7264 67.3741 74.4063C68.4879 70.7611 69.6063 67.1114 70.7201 63.4662C70.8674 62.9921 71.0101 62.5134 71.1574 62.0394V62.044ZM73.5323 68.2344C73.5461 68.2114 73.5599 68.1975 73.5737 68.2068C73.5737 68.2068 73.5553 68.216 73.5323 68.2344ZM43.7218 98.0586C43.0729 98.7076 42.3273 99.3427 41.7013 100.038C37.5867 94.5883 34.8436 88.1586 33.7758 81.4068C32.7909 75.1934 33.2465 68.7545 35.0737 62.739C36.7122 57.3494 39.4599 52.2959 43.1005 47.9971C46.7134 43.726 51.1687 40.1913 56.1578 37.6599C61.2988 35.0503 66.9829 33.536 72.7406 33.2369C73.4909 33.1955 74.2457 33.177 75.0005 33.177C82.208 33.1955 89.3281 35.0411 95.5967 38.608C97.1846 39.5101 98.708 40.518 100.162 41.618L99.0026 42.7779C97.562 44.2185 96.1214 45.6591 94.6808 47.0996C92.5591 49.2214 90.4373 51.3432 88.3155 53.4649L80.5097 61.2708L79.3314 62.449C79.221 62.0946 79.1151 61.7402 79.0047 61.3858C78.977 61.2984 78.9356 61.234 78.885 61.1787C78.8758 61.1649 78.8574 61.1557 78.8482 61.1419C78.8298 61.1281 78.816 61.1143 78.7976 61.1051C78.7193 61.0498 78.6273 61.0038 78.503 61.0038H70.7662C70.5314 61.0038 70.3335 61.1649 70.2691 61.3858C68.9528 65.6892 67.6365 69.9971 66.3201 74.3005C66.1499 74.8574 65.9796 75.4143 65.8093 75.9712L63.4114 78.3691C60.7281 81.0524 58.0448 83.7356 55.3662 86.4143L54.998 86.7825C54.9842 86.4741 54.9611 86.1888 54.9611 85.9678V66.9181H61.6578C61.8603 66.9181 62.1273 66.757 62.1549 66.536C62.3758 64.9114 62.5967 63.2821 62.8176 61.6574C62.8637 61.3306 62.6888 61.0038 62.3206 61.0038H40.5047C40.2239 61.0038 39.9892 61.2432 39.9892 61.5193V66.398C39.9892 66.6787 40.2285 66.9134 40.5047 66.9134H47.5511V88.467C47.5511 88.7478 47.7904 88.9825 48.0666 88.9825H50.8281C51.4632 88.9825 52.1168 89.0101 52.7611 89.0193L48.6005 93.18L43.7264 98.054L43.7218 98.0586Z" fill="white"/>
<path d="M110.393 50.9059C109.905 50.1879 109.395 49.4883 108.865 48.8025C108.667 48.5448 108.313 48.4389 108.051 48.6967C107.526 49.2213 106.997 49.7506 106.472 50.2753L102.15 54.5971L95.785 60.9623L94.1787 62.5686L89.8523 66.895L87.9837 68.7636L82.226 74.5213L79.4783 77.269L75.4327 81.3146L74.4523 82.295L70.8946 85.8527L68.8833 87.864L68.6716 88.0757L68.6394 88.1079L62.8494 93.8979L56.0837 100.664L51.2143 105.533C50.441 106.306 49.6448 107.061 48.8946 107.853C48.8624 107.885 48.8302 107.917 48.7933 107.954C48.5356 108.212 48.6414 108.566 48.8992 108.769C54.6201 113.178 61.4318 116.114 68.5795 117.177C70.7059 117.495 72.8461 117.656 74.9908 117.661C80.9419 117.651 86.8423 116.418 92.2917 114.011C97.5615 111.687 102.348 108.267 106.274 104.051C110.195 99.8397 113.251 94.8552 115.212 89.4473C117.339 83.5883 118.139 77.2506 117.578 71.0418C116.929 63.8527 114.448 56.8753 110.389 50.9059H110.393ZM98.3992 70.4389C99.7431 67.6406 101.092 64.8423 102.436 62.0439H107.94C105.998 65.3992 104.056 68.7544 102.118 72.1096C101.823 72.6159 101.529 73.1268 101.239 73.6331C101.156 73.7803 101.147 73.923 101.193 74.0473C101.202 74.0841 101.221 74.1209 101.239 74.1577C103.522 78.4151 105.805 82.677 108.087 86.9343C108.272 87.2749 108.456 87.6201 108.64 87.9607H102.969C101.621 85.0519 100.277 82.1477 98.9285 79.2389C98.726 78.8017 98.5235 78.369 98.3255 77.9318C98.1691 77.5958 97.5846 77.5912 97.4327 77.9318C96.0703 80.9234 94.7034 83.9197 93.341 86.9113C93.1799 87.2611 93.0235 87.6109 92.8624 87.9607H87.2887C88.7661 85.1992 90.2435 82.4423 91.721 79.6808C92.5586 78.1113 93.4009 76.5464 94.2385 74.977C94.4226 74.6318 94.6988 74.2912 94.5239 73.8908C94.2753 73.3155 93.8933 72.7632 93.5896 72.2155C92.6829 70.5954 91.7762 68.9707 90.8741 67.3506C92.0477 66.177 93.226 64.9987 94.3996 63.8251C95.4352 66.0297 96.4707 68.2389 97.5063 70.4435C97.6674 70.7841 98.2381 70.7795 98.3992 70.4435V70.4389ZM80.3343 87.9561C79.8925 86.1427 79.4507 84.3339 79.0088 82.5205C78.9674 82.3456 78.8615 82.2397 78.7327 82.1891C78.7327 82.1891 78.7235 82.1891 78.7189 82.1845C78.6728 82.1661 78.6222 82.1569 78.5716 82.1523C78.5486 82.1523 78.5348 82.1385 78.5117 82.1385H76.077C78.0469 80.1686 80.0168 78.1987 81.9866 76.2289C82.1109 76.1046 82.2352 75.9803 82.3594 75.8561C83.4871 79.5427 84.6147 83.2293 85.7423 86.9159C85.8481 87.2611 85.954 87.6063 86.0599 87.9515H80.3389L80.3343 87.9561ZM90.1101 68.11C91.2377 70.1305 92.3653 72.151 93.4929 74.1715C91.3067 78.254 89.1251 82.3364 86.9389 86.4188C86.8791 86.5247 86.8239 86.6351 86.764 86.741C85.7147 83.3075 84.6653 79.8741 83.6113 76.4406C83.4687 75.9711 83.326 75.5017 83.1833 75.0368L86.6904 71.5297C87.8318 70.3883 88.9686 69.2515 90.1101 68.11ZM114.927 87.054C113.288 92.4435 110.541 97.4971 106.9 101.796C103.287 106.067 98.8318 109.602 93.8427 112.133C88.7017 114.743 83.0176 116.257 77.2599 116.556C76.5097 116.597 75.7548 116.616 75 116.616C67.7833 116.597 60.6494 114.743 54.3762 111.167C52.8435 110.292 51.3707 109.312 49.9578 108.258L51.113 107.103C52.5536 105.662 53.9942 104.221 55.4348 102.781C57.5565 100.659 59.6783 98.5372 61.8 96.4155L69.2331 88.9824C69.2653 88.9778 69.3021 88.9732 69.3343 88.9686C69.4034 88.9548 69.4586 88.9226 69.5092 88.8766C69.5461 88.8536 69.5783 88.8213 69.6013 88.7845C69.6473 88.7339 69.6795 88.6741 69.6933 88.6096C69.7025 88.5682 69.7117 88.5314 69.7209 88.49C71.4929 86.718 73.2649 84.946 75.0368 83.1741H78.1021C78.544 84.9874 78.9858 86.7962 79.4276 88.6096C79.4829 88.8305 79.7038 88.9916 79.9247 88.9916H93.1845C93.3502 88.9916 93.5573 88.895 93.631 88.7339C94.9933 85.7423 96.3603 82.746 97.7226 79.7544C97.7732 79.6439 97.8239 79.5335 97.8745 79.423C99.1126 82.0925 100.346 84.7619 101.584 87.4314C101.787 87.8686 101.989 88.3013 102.187 88.7385C102.261 88.8996 102.463 88.9962 102.633 88.9962H109.496C109.901 88.9962 110.126 88.559 109.942 88.2184C107.659 83.9611 105.377 79.6992 103.094 75.4418C102.818 74.931 102.546 74.4201 102.27 73.9092C104.313 70.3791 106.357 66.849 108.4 63.3188L109.28 61.7954C109.477 61.4548 109.224 61.0176 108.833 61.0176H102.104C101.934 61.0176 101.736 61.1142 101.658 61.2753C100.42 63.8435 99.1862 66.4163 97.9481 68.9891C97.0184 67.01 96.0933 65.0356 95.1636 63.0565C97.2716 60.9485 99.3795 58.8406 101.487 56.7326L106.357 51.8632C107.006 51.2142 107.751 50.5837 108.373 49.8887C112.428 55.3289 115.143 61.6803 116.211 68.3908C117.196 74.6088 116.745 81.0477 114.918 87.0678L114.927 87.054Z" fill="white"/>
</g>
</g>
<defs>
<linearGradient id="paint0_linear_2012_1837" x1="0" y1="135.217" x2="150" y2="135.217" gradientUnits="userSpaceOnUse">
<stop stop-color="#080715" stop-opacity="0"/>
<stop offset="0.495" stop-color="#FF0DF5"/>
<stop offset="1" stop-color="#080715" stop-opacity="0"/>
</linearGradient>
<linearGradient id="paint1_linear_2012_1837" x1="0" y1="111.739" x2="150" y2="111.739" gradientUnits="userSpaceOnUse">
<stop stop-color="#080715" stop-opacity="0"/>
<stop offset="0.495" stop-color="#FF0DF5"/>
<stop offset="1" stop-color="#080715" stop-opacity="0"/>
</linearGradient>
<linearGradient id="paint2_linear_2012_1837" x1="0" y1="88.2609" x2="150" y2="88.2609" gradientUnits="userSpaceOnUse">
<stop stop-color="#080715" stop-opacity="0"/>
<stop offset="0.495" stop-color="#FF0DF5"/>
<stop offset="1" stop-color="#080715" stop-opacity="0"/>
</linearGradient>
<linearGradient id="paint3_linear_2012_1837" x1="0" y1="64.7826" x2="150" y2="64.7826" gradientUnits="userSpaceOnUse">
<stop stop-color="#080715" stop-opacity="0"/>
<stop offset="0.495" stop-color="#FF0DF5"/>
<stop offset="1" stop-color="#080715" stop-opacity="0"/>
</linearGradient>
<linearGradient id="paint4_linear_2012_1837" x1="0" y1="40.9783" x2="150" y2="40.9783" gradientUnits="userSpaceOnUse">
<stop stop-color="#080715" stop-opacity="0"/>
<stop offset="0.495" stop-color="#FF0DF5"/>
<stop offset="1" stop-color="#080715" stop-opacity="0"/>
</linearGradient>
<clipPath id="clip0_2012_1837">
<rect width="150" height="150" fill="white"/>
</clipPath>
<clipPath id="clip1_2012_1837">
<rect width="110" height="110" fill="white" transform="translate(20 20)"/>
</clipPath>
</defs>
</svg>
