<svg width="150" height="150" viewBox="0 0 150 150" fill="none" xmlns="http://www.w3.org/2000/svg">
<g clip-path="url(#clip0_2012_1782)">
<g opacity="0.6">
<rect y="131.304" width="150" height="7.82609" fill="url(#paint0_linear_2012_1782)"/>
<rect y="108.478" width="150" height="6.52174" fill="url(#paint1_linear_2012_1782)"/>
<rect y="85.6521" width="150" height="5.21739" fill="url(#paint2_linear_2012_1782)"/>
<rect y="62.8262" width="150" height="3.91304" fill="url(#paint3_linear_2012_1782)"/>
<rect y="40" width="150" height="1.95652" fill="url(#paint4_linear_2012_1782)"/>
</g>
<g clip-path="url(#clip1_2012_1782)">
<path d="M124.142 64.7811V57.9823C124.142 57.4021 124.163 56.8218 124.091 56.2467C123.809 53.9051 122.592 51.8614 120.573 50.6033C118.899 49.5609 117.071 49.4992 115.218 49.5095C116.809 48.1898 118.175 46.5928 119.202 44.7134C120.671 42.0277 121.292 39.0237 120.835 35.9889C120.409 33.1749 118.797 30.592 116.568 28.8461C113.395 26.3607 109.456 25.3696 105.487 25.0975C100.798 24.774 95.8533 25.3645 91.4166 26.9358C84.6486 29.3339 79.0822 34.13 75.765 40.5078C75.3388 41.3242 74.9382 42.1664 74.5685 43.0342C74.4555 42.7672 74.3477 42.5002 74.2296 42.2383C71.5645 36.1892 66.8351 31.0541 60.8322 28.2144C56.5239 26.1553 51.8254 25.2002 47.06 25.0359C42.8904 24.8921 38.5153 25.4107 34.7821 27.3877C31.9835 28.8717 29.7909 31.2801 28.7536 34.2789C27.8498 36.903 28.0193 39.9326 28.9898 42.5104C30.0579 45.3398 31.8243 47.6814 34.0324 49.5044C33.5908 49.5044 33.1492 49.5044 32.7024 49.5044C30.176 49.5095 27.9063 50.6084 26.412 52.6573C24.9999 54.5932 25.0358 56.7859 25.0358 59.0402V66.3782C25.0358 68.1087 24.892 69.9162 25.1693 71.6313C25.652 74.6456 28.0706 76.9101 30.9411 77.5572V111.813C30.9411 113.662 30.936 115.515 30.9411 117.364C30.9565 121.606 34.2738 124.974 38.5307 124.995C42.2382 125.01 45.9457 124.995 49.6532 124.995H109.466C109.867 124.995 110.267 124.995 110.668 124.995C112.701 124.984 114.689 124.23 116.116 122.756C117.539 121.287 118.232 119.356 118.237 117.328C118.237 116.671 118.237 116.019 118.237 115.361V77.5726C121.626 76.8177 124.122 73.8188 124.142 70.2089C124.153 68.4014 124.142 66.5938 124.142 64.7863V64.7811ZM119.495 56.4162C119.495 56.4162 119.5 56.4624 119.505 56.524C119.495 56.4675 119.485 56.4162 119.495 56.4162ZM118.858 55.117C118.817 55.0708 118.781 55.04 118.858 55.117ZM118.514 54.7678C118.648 54.8551 118.591 54.8192 118.514 54.7678ZM109.466 54.1311H115.839C116.183 54.1311 116.532 54.1208 116.876 54.1311C116.907 54.1311 116.979 54.1311 117.051 54.1311C117.076 54.1362 117.097 54.1413 117.133 54.1516C117.328 54.2029 117.523 54.2492 117.713 54.3108C117.739 54.3211 117.78 54.3313 117.816 54.3416C117.831 54.3519 117.852 54.3673 117.867 54.3775C118.052 54.4905 118.237 54.5932 118.422 54.7113C118.489 54.7729 118.561 54.8346 118.627 54.8962C118.663 54.927 118.797 55.0656 118.884 55.1529C118.899 55.1683 118.91 55.1837 118.915 55.194C118.976 55.2864 119.038 55.3789 119.1 55.4764C119.156 55.574 119.208 55.6767 119.264 55.7743C119.295 55.8308 119.315 55.8564 119.326 55.8718C119.367 56.0002 119.398 56.144 119.423 56.257C119.449 56.3597 119.469 56.4675 119.495 56.5702C119.5 56.7243 119.51 56.9399 119.51 56.9913C119.51 57.1761 119.51 57.3661 119.51 57.551V69.8597C119.51 70.0035 119.51 70.1473 119.51 70.2911C119.51 70.3527 119.51 70.4194 119.51 70.4811C119.51 70.5119 119.51 70.5838 119.51 70.6556C119.505 70.6813 119.5 70.7019 119.49 70.7378C119.449 70.9073 119.413 71.0716 119.356 71.241C119.346 71.277 119.331 71.3386 119.31 71.4002C119.295 71.4208 119.285 71.4413 119.264 71.4773C119.166 71.6467 119.069 71.8162 118.961 71.9856C118.951 72.0062 118.935 72.0216 118.92 72.0421C118.899 72.0678 118.874 72.0935 118.858 72.114C118.73 72.2321 118.535 72.381 118.437 72.5248C118.391 72.5556 118.35 72.5916 118.304 72.6172C118.237 72.6583 118.073 72.7764 117.929 72.8586C117.913 72.8586 117.898 72.8689 117.872 72.874C117.765 72.9099 117.657 72.951 117.549 72.9818C117.462 73.0075 117.318 73.064 117.184 73.0999C117.154 73.0999 117.112 73.0999 117.046 73.0999C116.928 73.0999 116.804 73.1102 116.686 73.1102H88.7002V54.1105H109.456L109.466 54.1311ZM117.005 73.1359C117.035 73.1359 117.087 73.1359 117.133 73.1307C117.082 73.141 117.041 73.141 117.005 73.1359ZM117.723 72.9562C117.723 72.9562 117.842 72.9151 117.913 72.8843C117.836 72.9253 117.77 72.9562 117.723 72.9562ZM118.946 72.0318C119.023 71.924 118.997 71.9702 118.946 72.0318ZM83.447 73.1307H65.0892V54.1311H84.0889V73.1307H83.447ZM49.5659 49.5095C49.073 49.5095 48.5851 49.4376 48.0922 49.4222C48.8676 49.4479 48.1538 49.4222 47.9484 49.3863C47.6814 49.3349 47.4195 49.2733 47.1627 49.2014C47.0549 49.1706 46.4028 48.8933 46.1101 48.8163C46.2538 48.8728 46.4079 49.0011 46.0946 48.8471C46.0587 48.8317 46.0279 48.8163 45.9919 48.8009C45.9868 48.8009 45.9714 48.8009 45.9714 48.8009C45.9714 48.8009 45.9817 48.8009 45.9868 48.8009C45.9509 48.7855 45.9201 48.7701 45.8841 48.7547C45.6633 48.6468 45.4476 48.5287 45.2371 48.4055C45.0625 48.3028 44.8879 48.1949 44.7236 48.082C44.6876 48.0563 44.6517 48.0357 44.6209 48.0101C44.6363 48.0255 44.6517 48.0409 44.6671 48.0614C44.6466 48.0409 44.626 48.0203 44.6055 47.9998C44.5695 47.9741 44.5387 47.9485 44.5028 47.9279C44.3847 47.8509 44.3436 47.7687 44.4052 47.8047C44.1793 47.6095 43.9328 47.4247 43.7325 47.2141C43.6144 47.0909 43.5014 46.9625 43.3885 46.8341C43.3628 46.8033 43.3371 46.7674 43.3114 46.7366C43.1112 46.4387 42.9161 46.1512 42.7466 45.8328C42.6901 45.725 42.6388 45.6171 42.5874 45.5093C42.5771 45.4836 42.5669 45.458 42.5566 45.4323C42.4385 45.0985 42.3563 44.7545 42.2793 44.4053C42.269 44.2718 42.2588 44.1382 42.2588 43.9996C42.2588 43.825 42.269 43.6555 42.2742 43.4861C42.2742 43.4861 42.2742 43.4861 42.2742 43.4758C42.3255 43.2139 42.4077 42.9726 42.4898 42.721C42.5052 42.685 42.5207 42.6542 42.5412 42.6183C42.6234 42.4591 42.7158 42.305 42.8185 42.151C42.8288 42.1356 42.8442 42.115 42.8596 42.0996C42.952 41.9969 43.0444 41.8891 43.142 41.7915C43.255 41.6786 43.3731 41.581 43.486 41.4783C43.5425 41.4372 43.5939 41.4013 43.6504 41.3602C43.7993 41.2626 44.6158 40.9186 44.7082 40.7953C44.7544 40.7799 44.7955 40.7594 44.8417 40.744C45.083 40.6618 45.3244 40.5848 45.5709 40.518C45.7865 40.4615 46.0074 40.4102 46.2282 40.364C46.3668 40.3383 46.5003 40.3075 46.639 40.287C46.6287 40.287 46.6184 40.287 46.603 40.287C46.6184 40.287 46.639 40.287 46.6595 40.287C46.7314 40.2767 46.7982 40.2767 46.8444 40.287C47.019 40.2664 47.209 40.2253 47.363 40.2151C47.6865 40.1894 48.01 40.174 48.3387 40.1688C48.9908 40.1586 49.6481 40.1791 50.3003 40.2253C50.5981 40.2459 50.8959 40.2818 51.1886 40.3075C51.2092 40.3075 51.2194 40.3075 51.2348 40.3075C51.2451 40.3075 51.2502 40.3075 51.2605 40.3075C51.4248 40.3332 51.5943 40.3588 51.7586 40.3897C52.8781 40.5899 53.977 40.8878 55.0348 41.3037C55.0348 41.3037 55.0296 41.2986 55.0245 41.2934C55.0245 41.2934 55.0399 41.2986 55.045 41.3037C55.1015 41.3242 55.1477 41.355 55.1888 41.3807C55.2659 41.4115 55.348 41.4372 55.4096 41.468C55.615 41.5656 55.8204 41.6683 56.0258 41.7761C56.452 42.0021 56.8731 42.2537 57.2737 42.5207C57.4842 42.6645 57.6896 42.8134 57.895 42.9623C57.9053 42.9726 57.9155 42.9726 57.9207 42.9829C57.9566 43.0188 57.9874 43.0496 58.008 43.065C58.3623 43.3577 58.6961 43.671 59.0196 43.9996C59.302 44.2872 59.569 44.585 59.8258 44.8931C59.8515 44.9188 59.872 44.9496 59.8925 44.9804C59.9747 45.1653 60.1801 45.3604 60.2879 45.5247C60.7244 46.1563 61.1095 46.8239 61.4485 47.512C61.5306 47.6814 61.6128 47.856 61.6949 48.0306C61.7103 48.0614 61.7257 48.0974 61.736 48.1282C61.8541 48.426 61.9722 48.729 62.0749 49.0319C62.1314 49.1911 62.1776 49.3555 62.229 49.5146H49.5454L49.5659 49.5095ZM87.3188 48.3644C87.6321 47.7174 87.9197 47.0755 88.2791 46.4542C88.4588 46.1512 88.6437 45.8585 88.8388 45.5658C88.921 45.4425 89.0083 45.3244 89.0956 45.2012C89.0802 45.2115 89.0699 45.2269 89.0545 45.2371C89.0853 45.2115 89.111 45.1755 89.1367 45.1447C89.1623 45.1088 89.188 45.0728 89.2188 45.0317C89.2445 44.9907 89.2702 44.9701 89.2907 44.9547C89.3061 44.9342 89.3215 44.9085 89.3421 44.888C89.8915 44.2255 90.5026 43.6093 91.1599 43.0599C91.1804 43.0445 91.2061 43.0137 91.242 42.9829C91.2523 42.9726 91.2626 42.9675 91.278 42.9572C91.468 42.8237 91.6528 42.685 91.848 42.5515C92.269 42.2691 92.7055 42.0072 93.1523 41.771C93.3525 41.6631 93.5579 41.5604 93.7685 41.4629C93.8301 41.4372 93.9123 41.4064 93.9893 41.3756C94.0252 41.3499 94.0714 41.3242 94.1331 41.2986C94.1382 41.2986 94.1485 41.2934 94.1536 41.2883C94.1536 41.2883 94.1485 41.2934 94.1433 41.2986C94.6517 41.0983 95.1703 40.9237 95.6941 40.7799C96.2641 40.6207 96.8392 40.4924 97.4195 40.3897C97.5941 40.3588 98.4465 40.1637 97.82 40.3178C98.1538 40.2356 98.5441 40.2356 98.883 40.2151C99.5351 40.1688 100.187 40.1432 100.845 40.1586C101.117 40.1637 101.389 40.174 101.661 40.1945C101.856 40.2099 102.092 40.2613 102.313 40.2818C102.359 40.2715 102.436 40.2715 102.524 40.2818C102.544 40.2818 102.56 40.2818 102.58 40.2818C102.565 40.2818 102.56 40.2818 102.544 40.2818C102.657 40.3024 102.775 40.3229 102.888 40.3434C103.13 40.3897 103.371 40.4461 103.612 40.5129C103.818 40.5694 104.023 40.631 104.223 40.6978C104.306 40.7234 104.388 40.7542 104.47 40.7851C104.47 40.7799 104.46 40.7748 104.46 40.7696C104.46 40.7696 104.47 40.7799 104.475 40.7851C104.506 40.7953 104.542 40.8107 104.573 40.821C104.947 40.9545 104.634 40.9083 104.506 40.821C104.691 40.9699 105.399 41.2626 105.533 41.3499C105.559 41.3653 105.584 41.3859 105.605 41.4013C105.589 41.3859 105.579 41.3704 105.564 41.355C105.579 41.3756 105.6 41.391 105.62 41.4115C105.661 41.4423 105.707 41.4732 105.749 41.4988C105.836 41.5553 105.867 41.6067 105.862 41.6169C105.913 41.658 105.969 41.6991 106.01 41.7453C106.129 41.8634 106.236 41.9867 106.349 42.1099C106.354 42.1202 106.36 42.1304 106.37 42.1407C106.452 42.264 106.534 42.3923 106.606 42.5258C106.637 42.5772 106.663 42.6337 106.688 42.685C106.765 42.9418 106.858 43.1883 106.909 43.4501C106.919 43.6145 106.93 43.7737 106.93 43.938C106.93 44.0869 106.919 44.2358 106.909 44.3847C106.837 44.7339 106.755 45.0728 106.637 45.4117C106.627 45.4425 106.616 45.4734 106.601 45.5042C106.524 45.6634 106.447 45.8277 106.354 45.9817C106.257 46.1512 106.159 46.3206 106.052 46.485C106.016 46.5363 105.98 46.5877 105.949 46.639C105.646 46.9163 105.399 47.286 105.096 47.5633C104.968 47.6814 104.829 47.7944 104.696 47.9125C104.624 47.9639 104.547 48.0203 104.475 48.0717C104.105 48.3233 103.715 48.5493 103.315 48.7444C103.227 48.7855 103.135 48.8265 103.048 48.8676C103.037 48.8676 103.027 48.8728 103.012 48.8779C102.786 48.9549 102.56 49.0422 102.334 49.109C101.866 49.2476 101.394 49.3401 100.916 49.4325C100.803 49.4428 100.696 49.453 100.583 49.4633C100.264 49.489 99.9511 49.4992 99.6327 49.4992H86.944C87.0107 49.2836 87.0775 49.073 87.1545 48.8625C87.2059 48.7136 87.2624 48.5698 87.3188 48.4209C87.3651 48.2976 87.4986 48.0152 87.5191 47.9741C87.5088 47.9998 87.4575 48.1076 87.3394 48.3541L87.3188 48.3644ZM91.2677 42.9572C91.3293 42.8956 91.4012 42.8339 91.4423 42.8288C91.4423 42.8288 91.3447 42.8956 91.2677 42.9572ZM105.918 46.6698C105.918 46.6698 105.887 46.716 105.872 46.7366C105.687 47.0139 105.805 46.8085 105.918 46.6698ZM91.4423 31.8398C91.7299 31.7114 91.4834 31.8244 91.3499 31.8809C91.3807 31.8655 91.4115 31.8552 91.4423 31.8398ZM78.3736 45.9817C78.466 45.725 78.5636 45.4682 78.6612 45.2166C78.7074 45.0934 78.7587 44.9701 78.8101 44.8469C78.8203 44.8212 78.8306 44.7955 78.8409 44.7699C79.3544 43.6196 79.9038 42.495 80.5509 41.4115C80.9103 40.8056 81.2954 40.2099 81.7011 39.6348C81.8757 39.3832 82.0606 39.1367 82.2454 38.8902C82.2762 38.8543 82.3019 38.8183 82.3327 38.7824C82.4611 38.6232 82.5946 38.464 82.7281 38.3048C83.7294 37.1135 84.8438 36.0146 86.0505 35.0287C86.0864 34.9979 86.2148 34.8951 86.3124 34.8233C86.4048 34.7514 86.5332 34.6589 86.5743 34.6281C86.9389 34.3611 87.3034 34.1095 87.6834 33.863C88.4126 33.3906 89.1623 32.9541 89.9326 32.5587C90.3434 32.3482 90.7645 32.1479 91.1907 31.9579C91.2318 31.9374 91.278 31.922 91.319 31.9014C91.5758 31.8449 91.8582 31.6806 92.1047 31.5882C93.029 31.239 93.9687 30.9412 94.9187 30.6895C95.9457 30.4174 96.983 30.2017 98.0306 30.0323C98.2103 30.0014 99.0678 29.9552 98.4362 29.9655C98.7238 29.9604 99.0216 29.8936 99.3092 29.8628C99.91 29.796 100.511 29.7498 101.117 29.7139C102.282 29.642 103.453 29.6215 104.619 29.6677C105.096 29.6882 105.574 29.7139 106.052 29.7601C106.303 29.7806 106.56 29.8063 106.812 29.8371C106.904 29.8474 107.017 29.8782 107.109 29.8731C107.099 29.8731 107.089 29.8731 107.079 29.8731C107.977 30.0117 108.871 30.2017 109.744 30.4585C110.124 30.5714 110.504 30.6947 110.873 30.8333C110.884 30.8333 111.012 30.8898 111.135 30.9412C111.048 30.8949 111.007 30.8693 111.207 30.9617C111.248 30.9822 111.284 30.9976 111.325 31.0182C111.356 31.0285 111.377 31.0387 111.382 31.0336C111.382 31.0336 111.371 31.0336 111.361 31.0336C111.433 31.0644 111.505 31.1003 111.577 31.1312C112.198 31.429 112.804 31.773 113.369 32.1684C113.415 32.1992 113.472 32.2455 113.523 32.2917C113.487 32.2557 113.451 32.2249 113.4 32.1736C113.518 32.2865 113.662 32.3841 113.79 32.4919C114.037 32.7025 114.273 32.9284 114.499 33.1595C114.684 33.3546 114.853 33.5652 115.028 33.7654C115.028 33.7654 115.028 33.7706 115.033 33.7757C115.141 33.9246 115.238 34.0735 115.336 34.2327C115.479 34.4587 115.613 34.6949 115.736 34.9362C115.788 35.0389 115.839 35.1468 115.885 35.2495C115.895 35.27 115.901 35.2905 115.911 35.3111C116.111 35.8451 116.26 36.3946 116.352 36.9594C116.352 36.9594 116.352 36.9594 116.352 36.9646C116.363 37.0621 116.373 37.1597 116.378 37.2573C116.399 37.5654 116.409 37.8735 116.404 38.1816C116.399 38.4486 116.383 38.7156 116.358 38.9827C116.358 38.9981 116.358 39.0083 116.358 39.0237C116.337 39.147 116.316 39.2702 116.296 39.3935C116.183 39.9789 116.019 40.5591 115.818 41.1188C115.772 41.2421 115.726 41.3653 115.68 41.4886C115.536 41.7915 115.392 42.0894 115.233 42.3821C114.925 42.9418 114.571 43.4656 114.201 43.9893C114.103 44.1126 114.001 44.2307 113.898 44.3539C113.677 44.6158 113.441 44.8674 113.205 45.1088C112.958 45.3553 112.707 45.5966 112.445 45.8277C112.337 45.9201 112.234 46.0125 112.126 46.105C111.931 46.2693 111.356 46.5774 112.008 46.2128C111.659 46.4079 111.33 46.6441 111.002 46.8855C112.085 43.7788 111.474 40.2151 108.763 38.0429C106.77 36.4408 104.342 35.7886 101.825 35.5935C99.0987 35.383 96.1922 35.7219 93.6042 36.6051C89.4345 38.0275 85.9632 40.9237 83.9143 44.8366C83.1492 46.3001 82.5278 47.8868 82.1479 49.5198H77.3517C77.5109 48.8471 77.6804 48.1795 77.8806 47.5222C78.0347 47.0087 78.2041 46.5004 78.389 45.9971L78.3736 45.9817ZM33.5394 41.5142C33.5394 41.5142 33.5292 41.4886 33.524 41.4783C33.4727 41.3396 33.4162 41.201 33.3649 41.0623C33.1646 40.4975 33.0054 39.9224 32.8924 39.337C32.8719 39.2291 32.8565 39.1264 32.8359 39.0186C32.8103 38.7054 32.7846 38.3973 32.7846 38.084C32.7846 37.817 32.7846 37.5551 32.8051 37.2932C32.8103 37.1854 32.8257 37.0775 32.8359 36.9646C32.8359 36.944 32.8411 36.9235 32.8462 36.903C32.9438 36.3432 33.0978 35.7886 33.2981 35.2597C33.2981 35.2597 33.2981 35.2546 33.2981 35.2495C33.3494 35.1416 33.4008 35.0287 33.4521 34.9208C33.5857 34.6538 33.7397 34.3919 33.8989 34.1403C33.9708 34.0273 34.0478 33.9092 34.13 33.8014C34.13 33.7962 34.1402 33.786 34.1454 33.7808C34.3456 33.5703 34.5254 33.329 34.7256 33.1184C34.9413 32.8976 35.1673 32.6871 35.4035 32.4817C35.4908 32.4098 35.5832 32.3379 35.6705 32.266C35.7218 32.2301 35.7732 32.1941 35.8194 32.1582C36.4202 31.7422 37.057 31.3828 37.7142 31.0747C37.7502 31.0593 37.7861 31.0439 37.8221 31.0285H37.8067C37.8067 31.0285 37.8169 31.0285 37.8272 31.0285C37.858 31.0131 37.894 30.9976 37.9248 30.9822C38.1405 30.8795 38.1302 30.8949 38.0583 30.936C38.1456 30.9001 38.2277 30.8641 38.2534 30.8539C38.6642 30.6998 39.0802 30.5612 39.5012 30.4379C40.3537 30.1914 41.2266 30.0066 42.1047 29.8679C42.0944 29.8679 42.0893 29.8679 42.0739 29.8679C42.1663 29.8679 42.2844 29.8423 42.3717 29.832C42.6234 29.8012 42.8801 29.7755 43.1317 29.755C43.6606 29.7087 44.1947 29.6779 44.7287 29.6574C45.9047 29.6163 47.0806 29.642 48.2514 29.719C48.7905 29.755 49.3349 29.8012 49.874 29.8577C50.1 29.8833 50.3311 29.9039 50.557 29.9347C50.5827 29.9347 50.6032 29.9398 50.6443 29.9501C50.8138 29.9758 50.9832 30.0014 51.1475 30.0271C53.217 30.3609 55.2556 30.8847 57.212 31.6395C57.3969 31.7114 57.5818 31.7884 57.7666 31.8603C57.8385 31.8911 57.9155 31.9271 57.9874 31.9579C58.4136 32.1479 58.8296 32.3482 59.2455 32.5587C60.0363 32.9644 60.8066 33.4111 61.5512 33.8989C61.8901 34.1198 62.2238 34.3508 62.5525 34.5922C62.6295 34.6487 62.7219 34.7103 62.8092 34.7668C62.8298 34.7873 62.8555 34.813 62.8811 34.8335C62.9941 34.926 63.1071 35.0133 63.22 35.1057C63.826 35.6038 64.4062 36.1327 64.9608 36.6821C65.4949 37.2111 66.0032 37.7656 66.4859 38.3408C66.604 38.4846 66.7273 38.6283 66.8454 38.7772C66.8659 38.8081 66.8916 38.8337 66.9122 38.8645C67.1227 39.147 67.3332 39.4294 67.5386 39.7221C68.3037 40.821 68.9918 41.9764 69.5926 43.1729C69.8751 43.7377 70.1267 44.318 70.3886 44.8931C69.9932 44.0458 70.4091 44.9547 70.4964 45.1704C70.6043 45.4528 70.7121 45.7352 70.8148 46.0177C71.1537 46.9574 71.4464 47.9176 71.6929 48.883C71.7442 49.0884 71.7905 49.2938 71.8418 49.5044H67.0611C65.9057 44.3591 62.3933 39.6091 57.6177 37.4165C54.9629 36.1943 52.1181 35.6089 49.2014 35.537C46.7006 35.4754 44.1074 35.84 41.8736 37.0313C38.351 38.9108 36.7334 43.0702 38.1559 46.8239C38.1661 46.8547 38.1815 46.8804 38.1918 46.9112C38.1353 46.8752 38.0737 46.8393 38.0172 46.8033C37.8786 46.7109 37.7451 46.6185 37.6115 46.526C37.5602 46.4901 37.5037 46.449 37.4524 46.4079C37.4626 46.4182 37.4678 46.4233 37.4729 46.4336C37.4626 46.4233 37.4524 46.4131 37.4421 46.4028C37.4267 46.3925 37.4061 46.3771 37.3907 46.3669C37.288 46.2898 37.1956 46.1769 37.2007 46.1666C36.8105 45.802 36.3535 45.4785 35.9837 45.1036C35.7424 44.8572 35.5113 44.6055 35.2905 44.3488C35.1929 44.2358 35.0954 44.1177 34.9978 43.9996C34.9927 43.9945 34.9875 43.9893 34.9824 43.9842C34.9773 43.9739 34.967 43.9637 34.9619 43.9534C34.5819 43.4193 34.2224 42.875 33.9143 42.2948C33.7808 42.0431 33.6524 41.7864 33.5292 41.5245L33.5394 41.5142ZM30.3198 55.117C30.3968 55.04 30.3608 55.0708 30.3198 55.117ZM30.7049 72.5145C30.7049 72.5145 30.6844 72.494 30.669 72.4735C30.5406 72.3399 30.4019 72.1654 30.2581 72.0524C30.2273 72.0062 30.1965 71.9651 30.1657 71.9189C30.1144 71.8367 29.9757 71.6621 29.8987 71.5132C29.8987 71.4875 29.8884 71.4567 29.8782 71.4105C29.8473 71.3027 29.8063 71.1948 29.7755 71.0819C29.76 71.0254 29.7087 70.7789 29.6779 70.6659C29.6779 70.5478 29.6676 70.4246 29.6676 70.3065C29.6676 70.2962 29.6676 70.2911 29.6676 70.2808C29.6676 70.1062 29.6676 69.9316 29.6676 69.7621V57.4226C29.6676 57.2737 29.6676 57.1197 29.6676 56.9707C29.6676 56.904 29.6676 56.8526 29.6676 56.7756C29.6676 56.7089 29.6779 56.6421 29.6779 56.5753C29.7292 56.3905 29.76 56.1953 29.8217 56.0105C29.8371 55.9694 29.8525 55.9078 29.8679 55.8462C29.8782 55.8308 29.8936 55.8051 29.9141 55.7743C30.0271 55.5791 30.14 55.384 30.2633 55.194C30.2633 55.1889 30.2736 55.1786 30.2838 55.1683C30.3198 55.1324 30.3608 55.0913 30.3763 55.0759C30.4995 54.9527 30.6381 54.8346 30.7614 54.7113C30.8487 54.6548 30.9308 54.5932 31.0181 54.5419C31.0592 54.5162 31.1773 54.4494 31.2749 54.3981C31.3262 54.3878 31.6395 54.2594 31.7114 54.2389C31.7987 54.2132 31.886 54.1978 31.9733 54.1721C31.963 54.1721 31.9527 54.167 31.9527 54.1567C31.9527 54.1567 32.0092 54.1516 32.0811 54.1465C32.2095 54.1105 32.1992 54.1259 32.1427 54.1465C32.2916 54.1413 32.4765 54.1311 32.4868 54.1311C32.5689 54.1311 32.6511 54.1311 32.7332 54.1311C33.3186 54.1311 33.9092 54.1311 34.4946 54.1311H60.4728V73.1307H43.4552C40.1072 73.1307 36.7437 73.0537 33.3957 73.1307C33.3494 73.1307 33.3032 73.1307 33.257 73.1307C33.0722 73.1307 32.8924 73.1307 32.7076 73.1307C32.6049 73.1307 32.497 73.1307 32.3943 73.1307C32.307 73.1307 32.2146 73.1205 32.1273 73.1205C32.0554 73.1205 32.0143 73.1205 31.9835 73.1205C31.8551 73.0845 31.7165 73.028 31.6241 73.0024C31.5162 72.9716 31.4084 72.9253 31.3006 72.8945C31.2698 72.8843 31.2492 72.8791 31.2338 72.874C31.0952 72.7918 30.9411 72.6789 30.8692 72.6326C30.8127 72.5967 30.7614 72.5608 30.71 72.5197L30.7049 72.5145ZM31.2543 72.8791C31.3262 72.9048 31.4597 72.951 31.4546 72.951C31.4033 72.951 31.3314 72.9202 31.2543 72.8791ZM32.04 73.1307C32.0914 73.1307 32.1427 73.1359 32.1735 73.141C32.1324 73.141 32.0862 73.141 32.04 73.1307ZM35.7527 118.627C35.7527 118.627 35.7681 118.668 35.7732 118.689C35.7629 118.663 35.7578 118.648 35.7527 118.627ZM39.871 120.373C39.4396 120.373 39.0083 120.373 38.5821 120.373C38.5204 120.373 38.4537 120.373 38.3921 120.373C38.2483 120.373 37.9967 120.409 37.8529 120.348C37.9402 120.358 38.0275 120.368 38.1199 120.383C38.0069 120.363 37.894 120.342 37.781 120.312C37.6115 120.271 37.4524 120.214 37.288 120.163C37.2778 120.163 37.2726 120.163 37.2624 120.158C37.247 120.147 37.2367 120.137 37.2161 120.127C37.0724 120.039 36.9183 119.968 36.7797 119.875C36.7489 119.855 36.7129 119.829 36.6821 119.808C36.7797 119.865 36.4151 119.567 36.338 119.49C36.2918 119.444 36.1737 119.295 36.1275 119.244C36.0762 119.172 36.0248 119.1 35.9837 119.028C35.9478 118.971 35.8708 118.858 35.8091 118.751C35.7989 118.725 35.7937 118.699 35.7835 118.658C35.7321 118.494 35.6756 118.329 35.6345 118.165C35.6243 118.119 35.5986 118.057 35.5781 118.001C35.5575 117.857 35.5781 117.672 35.5729 117.549C35.5729 117.431 35.5729 117.308 35.5729 117.189V77.7574H63.4306V116.876C63.4306 118.042 63.41 119.213 63.41 120.378H39.871V120.373ZM68.0419 120.373V81.2544C68.0419 80.0939 68.0727 78.9179 68.0829 77.7523H81.1362V116.871C81.1362 118.032 81.1054 119.208 81.0952 120.373H68.0419ZM111.818 120.199C111.885 120.173 111.952 120.142 112.018 120.116C111.941 120.163 111.864 120.199 111.818 120.199ZM113.39 118.689C113.39 118.689 113.379 118.709 113.364 118.725C113.277 118.869 113.205 119.023 113.112 119.161C113.076 119.218 112.984 119.326 112.927 119.382C112.82 119.495 112.712 119.603 112.604 119.716C112.588 119.731 112.583 119.736 112.573 119.747C112.47 119.819 112.368 119.891 112.26 119.957C112.208 119.988 112.116 120.055 112.024 120.106C111.926 120.142 111.828 120.178 111.726 120.209C111.561 120.26 111.392 120.296 111.223 120.342C111.171 120.358 111.14 120.363 111.11 120.373C110.991 120.373 110.863 120.368 110.776 120.373C110.704 120.373 110.637 120.373 110.565 120.373C106.786 120.383 103.006 120.373 99.227 120.373H85.7475V81.2544C85.7475 80.0887 85.7681 78.9179 85.7681 77.7523H105.718C108.342 77.7523 110.976 77.7985 113.605 77.7831V117.236C113.605 117.338 113.605 117.446 113.605 117.549C113.605 117.611 113.605 117.569 113.605 117.734C113.605 117.795 113.6 117.852 113.595 117.914C113.569 118.181 113.574 118.15 113.615 117.826C113.672 118.057 113.467 118.458 113.384 118.699L113.39 118.689Z" fill="#FF0DF5"/>
<path d="M32.1426 54.1414C32.1426 54.1414 32.1015 54.1414 32.081 54.1414C32.0656 54.1414 32.0604 54.1414 32.045 54.1516C32.0194 54.1568 31.9988 54.1619 31.9731 54.167C32.0142 54.1773 32.0964 54.1568 32.1477 54.1362L32.1426 54.1414Z" fill="#FF0DF5"/>
<path d="M111.31 31.0079C111.263 30.9925 111.192 30.9617 111.12 30.936C111.197 30.972 111.304 31.0233 111.346 31.0285C111.335 31.0233 111.32 31.0182 111.31 31.0131V31.0079Z" fill="#FF0DF5"/>
<path d="M113.508 32.2815C113.765 32.5228 113.657 32.4099 113.508 32.2815Z" fill="#FF0DF5"/>
<path d="M107.063 29.8629C106.873 29.8321 106.488 29.8783 107.063 29.8629Z" fill="#FF0DF5"/>
<path d="M104.501 40.8262C104.501 40.8262 104.475 40.8006 104.47 40.7903C104.48 40.8006 104.49 40.816 104.506 40.8262H104.501Z" fill="#FF0DF5"/>
<path d="M89.2906 44.9599C89.2444 45.0266 89.193 45.0882 89.1417 45.1499C89.1263 45.1704 89.116 45.1858 89.1006 45.2063C89.3368 44.9958 89.3471 44.9188 89.2906 44.9599Z" fill="#FF0DF5"/>
<path d="M94.1329 41.3037C94.1329 41.3037 94.1329 41.3037 94.1277 41.3037C94.0867 41.3345 94.0353 41.3551 93.984 41.3807C93.8556 41.468 93.871 41.5297 94.138 41.3037H94.1329Z" fill="#FF0DF5"/>
<path d="M105.856 41.6273C105.774 41.5605 105.687 41.4938 105.615 41.4219C105.615 41.4219 105.605 41.4168 105.6 41.4116C105.749 41.5965 105.841 41.6478 105.851 41.6273H105.856Z" fill="#FF0DF5"/>
<path d="M102.539 40.2869C102.534 40.2869 102.529 40.2869 102.519 40.2869C102.452 40.292 102.38 40.292 102.308 40.2869C102.226 40.3023 102.257 40.3279 102.544 40.2869H102.539Z" fill="#FF0DF5"/>
<path d="M37.2109 46.1616C37.2931 46.2386 37.3753 46.3156 37.4523 46.3978C37.4523 46.3978 37.4574 46.3978 37.4626 46.4029C37.2828 46.2026 37.2109 46.1462 37.2109 46.1564V46.1616Z" fill="#FF0DF5"/>
<path d="M42.1201 29.8629C42.6901 29.8783 42.3152 29.8321 42.1201 29.8629Z" fill="#FF0DF5"/>
<path d="M38.0687 30.9309C37.9763 30.972 37.8787 31.0079 37.8377 31.0233C37.8377 31.0233 37.8377 31.0233 37.8325 31.0233C37.8736 31.0233 38.002 30.9669 38.0687 30.9309Z" fill="#FF0DF5"/>
<path d="M45.9814 48.7958C45.9814 48.7958 45.9814 48.7958 45.9866 48.7958C46.0123 48.7958 46.0482 48.7958 46.1047 48.8112C46.0585 48.7907 46.0123 48.7855 45.9814 48.7907V48.7958Z" fill="#FF0DF5"/>
<path d="M44.3999 47.7944C44.4718 47.8561 44.5385 47.9228 44.6002 47.9896C44.6002 47.9896 44.6104 47.9947 44.6156 47.9998C44.5077 47.8766 44.4358 47.815 44.3999 47.7944Z" fill="#FF0DF5"/>
<path d="M55.1992 41.3807C55.1427 41.3602 55.0914 41.3345 55.0554 41.3037C55.0554 41.3037 55.0554 41.3037 55.0503 41.3037C55.3173 41.5297 55.3327 41.468 55.2043 41.3807H55.1992Z" fill="#FF0DF5"/>
<path d="M46.8494 40.2766C46.7827 40.2818 46.7211 40.2869 46.6646 40.2766C46.6594 40.2766 46.6492 40.2766 46.644 40.2766C46.9573 40.3177 46.9624 40.2818 46.8546 40.2715L46.8494 40.2766Z" fill="#FF0DF5"/>
<path d="M122.412 64.7811V57.9823C122.412 57.4072 122.437 56.8218 122.36 56.2467C122.145 54.5419 121.159 53.0116 119.7 52.0976C118.011 51.0449 116.019 51.2451 114.124 51.2451H108.619C112.398 49.9203 115.731 47.4503 117.708 43.8353C118.935 41.5861 119.541 38.998 119.166 36.4459C118.792 33.8938 117.374 31.6395 115.346 30.0682C112.552 27.9012 108.958 27.0642 105.492 26.828C100.942 26.5147 96.1871 27.0796 91.8839 28.6047C85.5318 30.8539 80.3763 35.4086 77.2695 41.3756C76.1809 43.4655 75.3336 45.6839 74.738 47.9638C74.6969 48.1282 74.6507 48.2976 74.6096 48.4671C74.1577 46.6185 73.4953 44.8058 72.7456 43.1061C70.1832 37.2932 65.7414 32.4355 59.9696 29.7036C55.9385 27.7985 51.5019 26.9255 47.0652 26.7766C43.2087 26.6431 39.1212 27.0591 35.6602 28.8923C33.2724 30.1555 31.316 32.1684 30.4276 34.7514C29.6111 37.1135 29.7909 39.7426 30.6638 42.0637C32.3481 46.5414 36.1583 49.6841 40.5488 51.2554H37.8272C36.1224 51.2554 34.4175 51.2554 32.7076 51.2554C30.8179 51.2554 29.0668 52.0205 27.9114 53.5508C26.6636 55.2145 26.7714 57.1094 26.7714 59.0556V66.3935C26.7714 67.9597 26.6071 69.6286 26.8433 71.1846C27.2644 73.9934 29.7292 76.0012 32.5278 76.032C32.5792 76.032 32.6254 76.032 32.6768 76.032V111.828C32.6768 113.677 32.6716 115.531 32.6768 117.379C32.687 120.681 35.2186 123.264 38.5358 123.275C42.2434 123.29 45.9509 123.275 49.6584 123.275H109.471C109.872 123.275 110.273 123.275 110.673 123.275C112.26 123.269 113.78 122.694 114.899 121.544C116.008 120.399 116.512 118.91 116.512 117.338C116.512 116.681 116.512 116.029 116.512 115.372V76.032H116.707C119.911 75.9756 122.402 73.408 122.417 70.2192C122.427 68.4116 122.417 66.6041 122.417 64.7965L122.412 64.7811ZM92.7261 51.24H84.7308C84.7667 51.0295 84.7975 50.8241 84.8438 50.6135C85.0697 49.5454 85.3983 48.4928 85.8245 47.4863C87.1134 44.4309 89.3266 41.8377 92.2742 40.2767C94.3076 39.1983 96.5927 38.6489 98.8778 38.4794C101.024 38.3202 103.33 38.3972 105.333 39.2753C106.622 39.8402 107.782 40.7902 108.316 42.1253C108.804 43.332 108.727 44.6723 108.296 45.879C107.032 49.4273 103.176 51.2195 99.6173 51.2349H92.7261V51.24ZM83.447 74.8612H63.3587V52.3954H85.8245V74.8612H83.4522H83.447ZM49.5659 51.24C46.2487 51.2195 42.8493 49.7354 41.2472 46.7006C39.9839 44.2974 40.4358 41.4013 42.7774 39.8659C44.4103 38.7926 46.4284 38.4691 48.3438 38.4281C50.7778 38.3818 53.2478 38.7413 55.5175 39.6348C58.8193 40.934 61.4074 43.4758 62.9684 46.6339C63.5436 47.7995 63.9749 49.0371 64.2727 50.3003C64.3446 50.6135 64.4011 50.9268 64.4525 51.24H49.5659ZM77.326 43.938C79.683 38.4435 83.7038 33.8065 89.0545 31.0644C92.7774 29.1542 96.9419 28.2247 101.106 27.9731C104.896 27.7471 108.958 27.9628 112.44 29.6266C114.694 30.7049 116.681 32.4509 117.569 34.8387C118.381 37.0211 118.252 39.3986 117.472 41.5656C115.613 46.7366 110.519 50.0435 105.261 50.9524C106.76 50.1206 108.044 48.9241 108.891 47.363C110.37 44.6363 110.052 41.2421 107.53 39.2497C105.913 37.971 103.838 37.4627 101.815 37.3086C99.227 37.1135 96.5106 37.4216 94.0509 38.2586C90.2972 39.5372 87.2316 42.1818 85.3983 45.6942C84.51 47.3887 83.8116 49.3092 83.56 51.2349H75.2463C75.3285 50.6752 75.4261 50.1206 75.5493 49.566C75.9601 47.6403 76.5609 45.7404 77.3363 43.9277L77.326 43.938ZM32.4251 43.1626C31.3365 41.1342 30.7717 38.7362 31.1773 36.4459C31.5933 34.0735 32.9849 32.0349 34.9516 30.6639C37.7861 28.692 41.3499 28.0347 44.739 27.9217C49.1141 27.7728 53.5867 28.3942 57.6793 29.9655C63.5795 32.2352 68.2627 36.6821 71.0921 42.305C72.0729 44.2563 72.8329 46.3155 73.372 48.4311C73.5518 49.1398 73.711 49.8535 73.8342 50.5776C73.8753 50.7984 73.9061 51.0243 73.942 51.2451H65.6233C64.9762 46.0485 61.4844 41.0983 56.7499 38.9159C54.3878 37.8273 51.7997 37.3394 49.2065 37.2727C47.019 37.2213 44.7133 37.4832 42.7569 38.5308C39.8761 40.0713 38.6642 43.3166 39.835 46.3668C40.6155 48.3901 42.0893 49.9152 43.8917 50.9268C39.1675 50.0795 34.7616 47.5068 32.4251 43.1626ZM28.3376 72.2064C27.6598 70.7378 27.9268 68.7557 27.9268 67.1792V59.9131C27.9268 58.3212 27.6649 56.3648 28.4147 54.9013C29.2619 53.2427 30.9206 52.4005 32.7332 52.3954C33.3186 52.3954 33.9092 52.3954 34.4946 52.3954H62.2084V74.8612H43.4552C40.1072 74.8612 36.7386 74.7483 33.3957 74.8612C33.3494 74.8612 33.3032 74.8612 33.257 74.8612C33.0722 74.8612 32.8924 74.8612 32.7076 74.8612C30.8487 74.8612 29.1387 73.9369 28.3376 72.2064ZM39.871 122.104C38.1199 122.104 36.4613 122.104 35.1056 120.707C33.5857 119.136 33.8321 117.03 33.8321 115.038V76.0115H65.156V120.728C65.156 121.179 65.1303 121.642 65.1354 122.099H39.871V122.104ZM77.4133 122.104H66.3113V77.3877C66.3113 76.9666 66.373 76.4737 66.3576 76.0166H82.8719V120.733C82.8719 121.154 82.8103 121.647 82.8257 122.104H77.4133ZM115.351 111.443V117.231C115.351 119.998 113.384 122.093 110.575 122.104C106.796 122.114 103.017 122.104 99.2373 122.104H84.0273V77.3877C84.0273 76.9358 84.053 76.4737 84.0478 76.0166H105.733C108.932 76.0166 112.152 76.1142 115.351 76.0269V111.443ZM121.256 69.8648C121.256 70.7327 121.174 71.5697 120.769 72.3605C119.983 73.901 118.417 74.8356 116.696 74.8664H86.9748V52.4005H115.834C116.178 52.4005 116.527 52.3903 116.871 52.4005C118.632 52.4673 120.245 53.597 120.912 55.2299C121.22 55.9848 121.246 56.7602 121.246 57.5613V69.87L121.256 69.8648Z" fill="white"/>
</g>
</g>
<defs>
<linearGradient id="paint0_linear_2012_1782" x1="0" y1="135.217" x2="150" y2="135.217" gradientUnits="userSpaceOnUse">
<stop stop-color="#080715" stop-opacity="0"/>
<stop offset="0.495" stop-color="#FF0DF5"/>
<stop offset="1" stop-color="#080715" stop-opacity="0"/>
</linearGradient>
<linearGradient id="paint1_linear_2012_1782" x1="0" y1="111.739" x2="150" y2="111.739" gradientUnits="userSpaceOnUse">
<stop stop-color="#080715" stop-opacity="0"/>
<stop offset="0.495" stop-color="#FF0DF5"/>
<stop offset="1" stop-color="#080715" stop-opacity="0"/>
</linearGradient>
<linearGradient id="paint2_linear_2012_1782" x1="0" y1="88.2608" x2="150" y2="88.2608" gradientUnits="userSpaceOnUse">
<stop stop-color="#080715" stop-opacity="0"/>
<stop offset="0.495" stop-color="#FF0DF5"/>
<stop offset="1" stop-color="#080715" stop-opacity="0"/>
</linearGradient>
<linearGradient id="paint3_linear_2012_1782" x1="0" y1="64.7827" x2="150" y2="64.7827" gradientUnits="userSpaceOnUse">
<stop stop-color="#080715" stop-opacity="0"/>
<stop offset="0.495" stop-color="#FF0DF5"/>
<stop offset="1" stop-color="#080715" stop-opacity="0"/>
</linearGradient>
<linearGradient id="paint4_linear_2012_1782" x1="0" y1="40.9783" x2="150" y2="40.9783" gradientUnits="userSpaceOnUse">
<stop stop-color="#080715" stop-opacity="0"/>
<stop offset="0.495" stop-color="#FF0DF5"/>
<stop offset="1" stop-color="#080715" stop-opacity="0"/>
</linearGradient>
<clipPath id="clip0_2012_1782">
<rect width="150" height="150" fill="white"/>
</clipPath>
<clipPath id="clip1_2012_1782">
<rect width="99.1476" height="100" fill="white" transform="translate(25 25)"/>
</clipPath>
</defs>
</svg>
