<svg width="150" height="150" viewBox="0 0 150 150" fill="none" xmlns="http://www.w3.org/2000/svg">
<g clip-path="url(#clip0_2012_1756)">
<g opacity="0.6">
<rect y="131.304" width="150" height="7.82609" fill="url(#paint0_linear_2012_1756)"/>
<rect y="108.478" width="150" height="6.52174" fill="url(#paint1_linear_2012_1756)"/>
<rect y="85.6521" width="150" height="5.21739" fill="url(#paint2_linear_2012_1756)"/>
<rect y="62.8262" width="150" height="3.91304" fill="url(#paint3_linear_2012_1756)"/>
<rect y="40" width="150" height="1.95652" fill="url(#paint4_linear_2012_1756)"/>
</g>
<g clip-path="url(#clip1_2012_1756)">
<path d="M114.601 69.1528C113.934 67.5877 113.173 66.0719 112.33 64.5998C112.314 64.5724 112.292 64.5506 112.276 64.5287C112.073 64.1949 111.805 63.9048 111.444 63.7188C111.395 63.6914 111.345 63.6804 111.296 63.6586C111.252 63.6367 111.208 63.6203 111.165 63.6038C111.094 63.5765 111.017 63.5436 110.946 63.5218C110.289 63.3083 109.556 63.3357 108.959 63.7188C108.921 63.7461 108.888 63.7735 108.85 63.8008C108.543 63.9978 108.275 64.2605 108.073 64.5998C107.515 65.5629 106.918 66.4987 106.289 67.4126C105.971 67.8668 105.643 68.3155 105.315 68.7588C105.276 68.8135 105.244 68.8518 105.222 68.8792C105.162 68.9558 105.107 69.027 105.047 69.1036C104.877 69.3115 104.707 69.5249 104.538 69.7274C104.609 64.1894 103.876 58.6349 102.086 53.3924C100.012 47.3181 96.6465 41.7965 92.2686 37.1012C88.5529 33.1173 84.1367 29.7573 79.425 27.0375C75.7257 24.8978 71.802 23.1302 67.7743 21.7129C65.9684 21.0781 64.1133 20.4433 62.2308 20.0712C62.2035 20.0712 62.1761 20.0602 62.1487 20.0548C61.109 19.8359 59.8941 20.1861 59.3688 21.1875C58.8817 22.1069 58.9091 23.4476 59.7518 24.17C59.9762 24.3615 60.1951 24.5695 60.3976 24.7884C60.4742 24.8704 60.5453 24.958 60.622 25.0456C60.6001 25.0127 60.5836 24.9854 60.5618 24.9471C60.6001 25.0127 60.6493 25.0729 60.6986 25.1331C60.715 25.1495 60.7314 25.1714 60.7478 25.1878C60.7916 25.2371 60.819 25.2863 60.8244 25.3137C61.2294 25.8938 61.5796 26.5067 61.8861 27.1469C61.9025 27.1853 61.9517 27.2673 62.001 27.3549C62.001 27.3658 62.0065 27.3932 62.0338 27.4589C62.0721 27.5628 62.1159 27.6668 62.1542 27.7708C62.3129 28.1812 62.4497 28.6026 62.5756 29.024C62.8328 29.8886 63.0134 30.7696 63.1666 31.6562C63.1666 31.6288 63.1666 31.6124 63.1666 31.5796C63.1666 31.6233 63.1721 31.6726 63.1775 31.7218C63.1775 31.7383 63.183 31.7547 63.1885 31.7766C63.1885 31.7985 63.194 31.8258 63.194 31.8477C63.194 31.8641 63.194 31.8751 63.1994 31.8915C63.2268 32.1542 63.2542 32.4168 63.276 32.6795C63.3144 33.1611 63.3362 33.6481 63.3417 34.1297C63.3472 34.6277 63.3362 35.1257 63.3089 35.6236C63.2925 35.9027 63.2706 36.1873 63.2432 36.4664C63.2323 36.5813 63.2213 36.6907 63.2104 36.8057C63.2049 36.8659 63.2049 36.937 63.2104 36.9972C63.2049 37.4405 63.0243 37.9713 62.9368 38.3817C62.8164 38.9344 62.6741 39.4817 62.5154 40.0234C62.3567 40.5488 62.1816 41.0686 61.9846 41.583C61.9353 41.7034 61.8861 41.8238 61.8423 41.9497C61.711 42.2397 61.5796 42.5243 61.4428 42.8034C60.8901 43.9252 60.2389 44.9978 59.5056 46.0047C59.4673 46.054 59.429 46.1032 59.3961 46.1525C59.3797 46.1744 59.3524 46.2127 59.3195 46.251C59.2976 46.2783 59.2812 46.3057 59.2593 46.3276C59.2757 46.3057 59.2867 46.2893 59.3031 46.2674C59.2867 46.2893 59.2757 46.3057 59.2648 46.3166C59.0404 46.5848 58.8215 46.8584 58.5917 47.1211C58.1375 47.641 57.6614 48.1335 57.1634 48.6096C54.9307 50.7657 52.895 53.179 51.3791 55.8987C49.0424 60.1015 47.9917 64.9227 48.4295 69.7165C48.5773 71.3472 48.8783 72.9233 49.2613 74.4774C48.5335 73.8426 47.8276 73.1859 47.149 72.5019C46.5525 71.8999 45.9724 71.2816 45.4142 70.6468C45.1461 70.3403 44.8834 70.0339 44.6262 69.7219C44.4839 69.5523 44.3471 69.3827 44.2103 69.2075C44.1665 69.1528 44.0407 68.9941 43.986 68.923C42.9298 67.5439 41.9721 66.0883 41.0966 64.5889C40.1717 62.9964 37.7639 62.9855 36.8445 64.5889C30.3269 75.9221 29.123 90.0189 33.9387 102.195C38.0047 112.467 45.8411 121.086 55.8774 125.797C66.264 130.673 78.44 131.395 89.2588 127.472C99.6727 123.696 108.511 116.013 113.496 106.091C119.28 94.572 119.647 81.006 114.607 69.1473L114.601 69.1528ZM113.118 89.8548C113.069 90.4732 113.036 91.1189 112.921 91.7318C113.047 91.0423 112.872 92.0547 112.85 92.1915C112.79 92.5581 112.73 92.9302 112.659 93.2969C112.183 95.858 111.466 98.3807 110.508 100.805C110.448 100.964 110.07 101.943 110.306 101.308C110.202 101.593 110.065 101.867 109.939 102.14C109.665 102.742 109.375 103.344 109.074 103.935C108.5 105.057 107.87 106.151 107.192 107.219C106.869 107.722 106.541 108.22 106.196 108.713C106.026 108.959 105.851 109.2 105.676 109.44C105.572 109.583 105.463 109.73 105.353 109.873C105.32 109.916 105.287 109.955 105.26 109.993C104.477 110.984 103.662 111.947 102.797 112.866C101.916 113.802 100.997 114.694 100.034 115.542C99.5852 115.936 99.131 116.325 98.6658 116.697C98.5619 116.784 97.9873 117.222 98.1733 117.085C97.9325 117.266 97.6972 117.446 97.4564 117.622C95.366 119.137 93.1333 120.456 90.7966 121.551C90.5229 121.677 90.2493 121.802 89.9702 121.928C89.8608 121.978 89.7459 122.027 89.6364 122.076C89.62 122.082 89.6145 122.087 89.5981 122.092C89.5817 122.098 89.5708 122.103 89.5543 122.109C88.936 122.355 88.3121 122.601 87.6828 122.826C86.4734 123.258 85.2421 123.63 83.9944 123.942C82.7029 124.27 81.395 124.528 80.0762 124.725C79.9503 124.741 79.8245 124.763 79.6931 124.779C79.6603 124.779 79.6329 124.785 79.6111 124.79C79.2663 124.834 78.9215 124.872 78.5768 124.905C77.8818 124.971 77.1868 125.02 76.4918 125.053C75.1511 125.113 73.8049 125.113 72.4587 125.042C71.8239 125.009 71.1946 124.965 70.5652 124.905C70.2533 124.872 69.9414 124.84 69.6295 124.801L69.531 124.79C69.4653 124.747 69.0494 124.725 68.9837 124.714C66.3679 124.314 63.785 123.663 61.2951 122.766C60.7259 122.558 60.1568 122.339 59.5931 122.109C59.5822 122.109 59.5767 122.103 59.5713 122.098C59.4399 122.038 59.3086 121.983 59.1772 121.928C58.8434 121.781 58.5151 121.633 58.1867 121.474C57.043 120.932 55.9267 120.336 54.8431 119.69C53.7104 119.017 52.6104 118.289 51.5488 117.512C51.3299 117.353 51.111 117.189 50.8976 117.025C50.7607 116.916 50.6239 116.806 50.4817 116.697C49.9727 116.286 49.4693 115.859 48.9768 115.422C47.1435 113.791 45.4744 111.996 43.9531 110.075C43.8656 109.955 43.5865 109.594 43.5263 109.512C43.3293 109.249 43.1377 108.981 42.9517 108.707C42.5741 108.165 42.2074 107.618 41.8572 107.06C41.1841 105.993 40.5603 104.893 39.9911 103.771C39.7175 103.235 39.4548 102.687 39.2086 102.14C39.0882 101.872 38.9569 101.604 38.8529 101.33C38.8365 101.287 38.82 101.248 38.8146 101.226C38.7434 101.057 38.6778 100.887 38.6121 100.717C38.136 99.4971 37.7146 98.2494 37.3589 96.9907C36.9978 95.7157 36.6968 94.4187 36.4615 93.1108C36.4067 92.8044 36.352 92.4979 36.3082 92.1915C36.2809 92.0218 36.1112 91.0478 36.2371 91.7318C36.1112 91.0532 36.0784 90.3473 36.0237 89.6632C35.9142 88.2568 35.8759 86.8395 35.9087 85.4276C35.9306 84.5739 35.9744 83.7202 36.051 82.8666C36.0893 82.4233 36.1331 81.9855 36.1878 81.5422C36.1988 81.4328 36.2152 81.3234 36.2261 81.2139C36.2261 81.203 36.2973 80.7214 36.3082 80.6503C36.5709 78.9702 36.943 77.3066 37.4137 75.6704C37.6325 74.9207 37.8679 74.1764 38.1305 73.4377C38.2619 73.071 38.3932 72.7044 38.5355 72.3432C38.6176 72.1243 38.7051 71.9109 38.7927 71.692C38.8146 71.6427 38.9076 71.4129 38.9514 71.3144C39.0335 71.1174 39.1265 70.9259 39.2141 70.7343C42.7602 75.6321 47.3022 79.7856 52.5174 82.8775C54.285 83.9282 56.8405 82.1716 56.1346 80.0975C55.6312 78.6255 55.0949 77.1644 54.6407 75.6813C54.3725 74.8112 54.1317 73.9357 53.9238 73.0491C53.8198 72.6059 53.7268 72.1626 53.6392 71.7194C53.6009 71.5169 53.5626 71.3144 53.5298 71.1119C53.5079 70.9861 53.486 70.8547 53.4696 70.7289C53.4641 70.6905 53.4477 70.5756 53.4367 70.4771C53.4203 70.3239 53.393 70.105 53.3875 70.0503C53.3601 69.8095 53.3382 69.5687 53.3218 69.3279C53.2835 68.8081 53.2616 68.2937 53.2561 67.7738C53.2561 67.2703 53.2616 66.7669 53.2945 66.2634C53.3109 65.9788 53.3328 65.6943 53.3601 65.4097C53.3711 65.2948 53.3875 65.1799 53.3984 65.065C53.3984 65.0485 53.3984 65.0376 53.3984 65.0267C53.5845 63.8829 53.8362 62.7556 54.1919 61.6557C54.2795 61.3821 54.378 61.1139 54.4765 60.8403C54.5148 60.7363 54.7118 60.2602 54.7118 60.2493C54.9635 59.6856 55.2262 59.1329 55.5217 58.5911C55.8336 58.022 56.1674 57.4638 56.5177 56.9221C56.6818 56.6704 56.8515 56.4241 57.0211 56.1778C57.1306 56.0191 57.2455 55.8659 57.3604 55.7127C57.4151 55.6361 57.4699 55.5595 57.5301 55.4883C57.5355 55.4774 57.541 55.4774 57.5465 55.4664C58.5425 54.257 59.5931 53.1297 60.715 52.0353C62.6686 50.1309 64.3705 47.9036 65.6018 45.4684C67.7032 41.3149 68.6554 36.543 68.1246 31.9024C67.9276 30.206 67.5828 28.4001 67.0027 26.6818C68.0096 27.0484 69.0111 27.4315 70.0016 27.8365C70.0563 27.8584 70.111 27.8802 70.1603 27.9076C70.4065 28.0116 70.6528 28.121 70.8936 28.2305C71.3697 28.4439 71.8458 28.6628 72.3219 28.8872C73.3124 29.3578 74.2919 29.8503 75.2605 30.3702C77.3947 31.5194 79.4688 32.789 81.4498 34.1899C81.9806 34.562 82.5005 34.9505 83.0149 35.3391C83.0258 35.3445 83.0258 35.35 83.0368 35.3555C83.1407 35.4376 83.2392 35.5142 83.3432 35.5963C83.6168 35.8152 83.8904 36.0341 84.1641 36.2584C85.2093 37.1231 86.2217 38.026 87.1958 38.9727C88.1863 39.9359 89.133 40.9428 90.0304 41.988C90.4846 42.5133 90.917 43.0551 91.3493 43.5969C91.3657 43.6188 91.3821 43.6407 91.3985 43.6571C91.5025 43.7939 91.601 43.9307 91.705 44.0675C91.9348 44.3794 92.1592 44.6968 92.3781 45.0142C93.2208 46.2236 93.9979 47.4768 94.7038 48.7683C95.076 49.4414 95.4262 50.1254 95.7545 50.8204C95.9132 51.1542 96.0665 51.488 96.2142 51.8218C96.2799 51.9751 96.3455 52.1283 96.4167 52.2815C96.4495 52.3581 96.4824 52.4402 96.5152 52.5168C97.7793 55.6306 98.6549 58.8976 99.1638 62.2193C99.1912 62.3999 99.1966 62.6188 99.2459 62.7994C99.224 62.6626 99.1857 62.2905 99.2295 62.6626C99.235 62.7118 99.2404 62.7611 99.2459 62.8103C99.2459 62.8213 99.2459 62.8322 99.2514 62.8432C99.2514 62.8432 99.2514 62.8268 99.2459 62.8158C99.2514 62.8705 99.2623 62.9253 99.2678 62.98C99.3225 63.4342 99.3718 63.8884 99.4155 64.3481C99.5031 65.2839 99.5633 66.2251 99.5961 67.1663C99.6673 69.1364 99.6235 71.1065 99.4812 73.071C99.4046 74.1327 99.3006 75.1888 99.1693 76.245C99.0544 77.1972 99.8862 78.1603 100.685 78.4941C101.632 78.8936 102.617 78.6528 103.378 77.9852C105.829 75.8236 108.035 73.3775 109.95 70.7289C109.961 70.7507 109.966 70.7672 109.977 70.7891C110.005 70.8438 110.202 71.298 110.234 71.3801C110.847 72.8521 111.373 74.368 111.805 75.9057C112.259 77.5036 112.609 79.1344 112.861 80.7761C112.861 80.8035 112.921 81.1811 112.927 81.2358C112.938 81.3398 112.954 81.4437 112.965 81.5477C113.014 81.9472 113.053 82.3467 113.091 82.7516C113.168 83.6436 113.222 84.5356 113.239 85.4331C113.272 86.9106 113.228 88.3882 113.107 89.8602L113.118 89.8548Z" fill="#FF0DF5"/>
<path d="M63.1665 31.6616C63.1665 32.072 63.2048 31.9954 63.1993 31.8532C63.1939 31.8094 63.1884 31.7711 63.1829 31.7273C63.1829 31.7054 63.172 31.6835 63.172 31.6616H63.1665Z" fill="#FF0DF5"/>
<path d="M60.6987 25.1386C60.6713 25.1112 60.6494 25.0784 60.6221 25.051C60.7808 25.3137 60.8355 25.3575 60.8245 25.3192C60.8027 25.2863 60.7862 25.2535 60.7644 25.2207C60.7425 25.1933 60.7206 25.1659 60.6987 25.1386Z" fill="#FF0DF5"/>
<path d="M59.3854 46.158C59.3854 46.158 59.3854 46.158 59.2979 46.2784C59.2979 46.2729 59.3088 46.2619 59.3143 46.2565C59.3416 46.2236 59.3635 46.1908 59.3909 46.158H59.3854Z" fill="#FF0DF5"/>
<path d="M86.238 85.2087C85.3187 83.8187 84.2625 82.5163 83.2337 81.2029C83.1899 81.1482 83.1297 81.0551 83.075 80.9676C83.1024 81.0114 83.1297 81.0551 83.168 81.1208C83.075 80.9676 82.9382 80.8198 82.8287 80.6775C82.577 80.3437 82.3308 80.0099 82.0845 79.6761C81.6029 79.003 81.1378 78.3189 80.7109 77.6075C80.2841 76.8961 79.9229 76.1519 79.5617 75.4077C79.5398 75.3529 79.518 75.2982 79.4961 75.2435C79.4304 75.0738 79.3647 74.9042 79.3045 74.7291C79.1404 74.2694 78.9981 73.7988 78.8777 73.3227C78.7628 72.8739 78.6697 72.4252 78.5931 71.971C78.5877 71.9327 78.5822 71.8889 78.5712 71.8506C78.5931 71.577 78.5001 71.2268 78.4837 70.9531C78.4125 69.8915 78.4399 68.8244 78.5439 67.7628C78.5548 67.6424 78.5712 67.522 78.5822 67.4016C78.5822 67.3906 78.5822 67.3852 78.5822 67.3742C78.626 67.1061 78.6643 66.8379 78.7135 66.5643C78.8339 65.8967 78.9817 65.24 79.1513 64.5888C79.1787 64.4793 79.1896 64.3699 79.2006 64.2604C79.2881 63.7242 79.2115 63.166 78.9051 62.6899C78.8668 62.6297 78.8175 62.5804 78.7792 62.5257C78.4673 62.0551 78.0131 61.6884 77.433 61.5571C77.3345 61.5352 77.236 61.5297 77.1375 61.5188C76.6067 61.4258 76.043 61.5024 75.5341 61.8088C72.2069 63.8117 69.405 66.9747 67.2544 70.1487C62.1979 77.613 61.0433 86.7956 62.6576 95.5405C63.079 97.8334 63.6536 100.148 65.0107 102.091C66.1928 103.782 67.7305 105.221 69.5856 106.146C73.2904 107.996 77.5807 108.05 81.3403 106.343C83.2446 105.478 84.8207 104.077 86.0574 102.408C87.4693 100.498 88.1534 98.1782 88.4926 95.8579C88.8046 93.7291 88.925 91.6879 88.323 89.592C87.8743 88.0379 87.1245 86.5603 86.2326 85.2141L86.238 85.2087ZM78.5548 71.7521C78.5548 71.7521 78.5494 71.7029 78.5439 71.681C78.4946 71.38 78.5329 71.5934 78.5548 71.7521ZM72.4805 102.096C72.4805 102.096 72.4805 102.096 72.486 102.096C72.486 102.096 72.486 102.096 72.4805 102.096ZM82.8452 98.211C82.8287 98.2548 82.8233 98.2712 82.8452 98.211ZM83.8575 93.2476C83.8521 93.4336 83.8411 93.6142 83.8247 93.8003C83.8083 93.9754 83.7864 94.145 83.77 94.3201C83.7645 94.3858 83.759 94.4351 83.7536 94.4734C83.7536 94.4898 83.7481 94.5172 83.7426 94.5445C83.6222 95.2942 83.4909 96.0439 83.2994 96.7827C83.1954 97.1931 83.0586 97.5926 82.9163 97.9976C82.8671 98.0797 82.8342 98.2001 82.7959 98.2821C82.681 98.5229 82.5551 98.7582 82.4238 98.9881C82.3308 99.1522 82.2268 99.3109 82.1228 99.4696C82.09 99.5189 81.9586 99.694 81.882 99.8035C81.7999 99.902 81.696 100.028 81.6631 100.066C81.5099 100.236 81.3567 100.4 81.1925 100.559C81.0338 100.717 80.8642 100.86 80.6945 101.007C80.6726 101.024 80.6672 101.035 80.6507 101.046C80.2896 101.286 79.9393 101.533 79.5563 101.741C79.403 101.823 79.2443 101.905 79.0856 101.981C79.0309 102.009 78.9762 102.031 78.9215 102.058C78.5548 102.178 78.2046 102.315 77.8325 102.414C77.7559 102.436 77.1648 102.545 76.8584 102.611C77.0171 102.594 77.1867 102.6 76.8748 102.627C76.8201 102.627 76.7708 102.638 76.7161 102.644C76.6942 102.649 76.6723 102.655 76.6723 102.655C76.6723 102.655 76.6833 102.649 76.6887 102.644C76.6395 102.644 76.5957 102.655 76.5465 102.655C76.3276 102.671 76.1087 102.682 75.8898 102.687C75.4958 102.693 75.1018 102.687 74.7132 102.649C74.6804 102.649 74.6476 102.644 74.6093 102.638C74.4177 102.589 74.1879 102.572 74.0018 102.534C73.6188 102.452 73.2357 102.348 72.8636 102.228C72.6775 102.168 72.4914 102.091 72.3054 102.025C72.2999 102.025 72.2999 102.025 72.289 102.025C72.2342 101.998 72.1795 101.971 72.1686 101.96C71.8129 101.784 71.4626 101.593 71.1288 101.379C70.9756 101.281 70.8278 101.177 70.6801 101.073C70.6144 101.024 70.5323 100.953 70.505 100.931C70.1985 100.668 69.903 100.384 69.6294 100.083C69.5747 100.022 69.5254 99.9567 69.4707 99.8855C69.4543 99.8855 69.405 99.8472 69.3613 99.7761C69.3394 99.7433 69.3175 99.7104 69.2956 99.6831C69.2737 99.6612 69.2518 99.6283 69.2299 99.6119C69.2463 99.6283 69.2573 99.6393 69.2737 99.6502C69.2244 99.5791 69.1697 99.5079 69.1259 99.4368C68.8852 99.0811 68.6717 98.7035 68.4802 98.3204C68.4419 98.2384 68.4036 98.1563 68.3598 98.0687C68.2777 97.8389 68.1847 97.609 68.1081 97.3737C67.7414 96.2191 67.5171 95.0042 67.3091 93.8112C67.2489 93.4665 67.1997 93.1162 67.1395 92.766C67.134 92.7332 67.1231 92.673 67.1176 92.6182C67.1066 92.5416 67.0957 92.4705 67.0902 92.3939C67.0081 91.7317 66.9479 91.0696 66.9042 90.4019C66.8275 89.2418 66.8057 88.0816 66.8494 86.9215C66.8659 86.4181 66.8987 85.9146 66.937 85.4111C66.9589 85.1211 66.9862 84.8365 67.0191 84.5465C67.03 84.4316 67.0464 84.3221 67.0574 84.2072C67.0574 84.1963 67.0574 84.1908 67.0574 84.1799C67.3474 82.2645 67.7907 80.3766 68.4419 78.5488C68.5896 78.1384 68.7429 77.7334 68.907 77.3285C68.918 77.3011 68.9289 77.2792 68.9344 77.2573C68.9399 77.2409 68.9508 77.2245 68.9618 77.2026C69.0657 76.9727 69.1697 76.7374 69.2792 76.5076C69.6185 75.7852 69.9906 75.0738 70.3901 74.3843C70.7841 73.7057 71.2054 73.0381 71.6542 72.3924C71.8567 72.1023 72.0591 71.8178 72.2725 71.5387C72.2835 71.5277 72.289 71.5168 72.2999 71.5004C72.3929 71.3855 72.486 71.2651 72.579 71.1502C72.88 70.778 73.2029 70.4169 73.5257 70.0557C73.5531 72.2008 73.8924 74.3351 74.6585 76.3653C75.9171 79.7144 78.0021 82.4725 80.1856 85.2634C80.2841 85.3892 80.3826 85.5151 80.4811 85.6464C80.492 85.6629 80.503 85.6738 80.5139 85.6848C80.5194 85.6957 80.5249 85.7012 80.5358 85.7121C80.7492 85.9912 80.9627 86.2758 81.1761 86.5603C81.6084 87.1459 82.0188 87.7478 82.3964 88.3662C82.5715 88.6508 82.7357 88.9463 82.8944 89.2418C82.9656 89.3731 83.0312 89.5045 83.0969 89.6358C83.1242 89.6905 83.2118 89.893 83.2665 90.0134C83.2939 90.0736 83.3158 90.1338 83.3267 90.1612C83.376 90.298 83.4252 90.4402 83.469 90.577C83.5839 90.9273 83.677 91.2885 83.7536 91.6496C83.7755 91.7591 83.7919 91.874 83.8138 91.9834C83.8138 92.0272 83.8247 92.071 83.8247 92.1203C83.8575 92.4924 83.863 92.87 83.8466 93.2421L83.8575 93.2476Z" fill="#FF0DF5"/>
<path d="M69.29 99.6448C69.29 99.6448 69.3065 99.6667 69.3119 99.6776C69.3721 99.7433 69.4323 99.809 69.4925 99.8801C69.5144 99.8801 69.4761 99.8089 69.29 99.6448Z" fill="#FF0DF5"/>
<path d="M76.7271 102.633C76.7599 102.627 76.8037 102.616 76.8639 102.6C76.7927 102.605 76.7271 102.616 76.6997 102.633C76.7107 102.633 76.7161 102.633 76.7271 102.633Z" fill="#FF0DF5"/>
<path d="M83.0751 80.9676C82.9766 80.8089 82.9109 80.694 83.0751 80.9676Z" fill="#FF0DF5"/>
<path d="M113.009 70.0831C112.341 68.518 111.586 67.0021 110.738 65.5301C110.606 65.3002 110.404 65.2181 110.201 65.2346C110.004 65.2236 109.802 65.3057 109.676 65.5301C107.7 68.9175 105.26 71.9929 102.425 74.6908C103.104 67.7026 102.589 60.5666 100.307 53.8903C98.3372 48.1279 95.114 42.869 90.9659 38.4145C87.3487 34.5401 83.0803 31.2895 78.4944 28.6409C74.9319 26.5832 71.1615 24.8704 67.2815 23.5023C65.5085 22.8785 63.6096 22.1506 61.738 21.8606C61.7107 21.8606 61.6833 21.8496 61.656 21.8442C61.1032 21.7293 60.556 22.4407 61.0595 22.873C63.4399 24.9087 64.518 28.2961 64.9722 31.2895C65.607 35.4977 64.9175 39.9249 63.035 43.7391C61.8858 46.0594 60.3262 48.1334 58.4656 49.9338C56.3368 51.9914 54.416 54.257 52.9713 56.8509C50.7824 60.7855 49.8685 65.2564 50.2789 69.7328C50.5854 73.06 51.5704 76.1902 52.632 79.3204C47.2472 75.8181 42.738 71.0955 39.4983 65.5355C39.2685 65.1361 38.6665 65.1361 38.4367 65.5355C32.1435 76.4638 31.0764 89.9696 35.7169 101.708C39.6078 111.536 47.2253 119.712 56.8074 124.205C66.7562 128.873 78.4287 129.442 88.766 125.693C98.7367 122.076 107.137 114.645 111.898 105.161C117.359 94.2873 117.77 81.285 113.009 70.0831ZM91.7321 123.143C82.1062 127.663 70.8057 128.139 60.8077 124.539C51.149 121.058 43.0499 113.846 38.4093 104.701C33.0464 94.1451 32.6305 81.378 37.3094 70.4935C37.8129 69.3279 38.371 68.1842 38.9785 67.0678C42.5738 72.8959 47.5482 77.7936 53.4474 81.285C53.8907 81.5477 54.5309 81.1099 54.3503 80.59C53.2504 77.3613 52.0738 74.1545 51.6142 70.7562C51.0067 66.236 51.7346 61.672 53.9235 57.6499C55.3518 55.0286 57.2781 52.7959 59.4068 50.7218C61.2565 48.9214 62.838 46.8365 64.0036 44.5271C65.9627 40.6527 66.7671 36.2091 66.2746 31.8914C65.9518 29.0732 65.12 25.8992 63.3524 23.5351C64.1678 23.765 64.9777 24.0222 65.7766 24.2848C69.372 25.4724 72.8634 26.9718 76.196 28.7667C80.6669 31.1746 84.8588 34.1132 88.5034 37.6593C92.6843 41.7307 96.099 46.5957 98.2989 52.0188C101.002 58.6841 101.845 65.9186 101.331 73.0655C101.254 74.1271 101.15 75.1833 101.019 76.2395C100.948 76.8141 101.714 76.9892 102.069 76.6773C105.232 73.8918 107.963 70.6467 110.174 67.0623C115.838 77.531 116.648 90.1885 112.286 101.292C108.521 110.869 101.035 118.771 91.7321 123.138V123.143Z" fill="white"/>
<path d="M84.6399 86.139C82.9052 83.5232 80.7326 81.2303 79.1128 78.5379C77.1373 75.249 76.311 71.588 76.694 67.7628C76.8144 66.5261 77.0607 65.3057 77.3726 64.0963C77.4383 63.8391 77.3453 63.6312 77.192 63.4998C77.0333 63.3357 76.798 63.2536 76.5463 63.3685C76.4806 63.3904 76.4204 63.4232 76.3657 63.4725C73.3559 65.3167 70.8058 68.1951 68.8521 71.0791C64.0802 78.1275 62.9146 86.7738 64.4414 95.048C64.8409 97.1987 65.3334 99.3384 66.6085 101.161C67.6099 102.594 68.9561 103.771 70.5212 104.554C73.5912 106.086 77.2851 106.162 80.4153 104.751C82.0241 104.023 83.4141 102.89 84.4703 101.478C85.8055 99.6886 86.402 97.5489 86.7194 95.3654C86.9821 93.576 87.0532 91.8358 86.5498 90.0846C86.1448 88.6727 85.4498 87.3648 84.6454 86.1445L84.6399 86.139ZM85.0832 97.2698C84.6399 99.0046 83.7917 100.602 82.5002 101.856C80.1635 104.127 76.6831 104.986 73.5255 104.313C70.1381 103.59 67.391 101.183 66.3403 97.8663C65.5851 95.4858 65.2404 92.8919 65.0762 90.4075C64.9285 88.1747 64.9832 85.9201 65.2951 83.7038C65.8095 80.0975 66.9915 76.6062 68.8138 73.4486C70.16 71.1174 71.8346 68.9886 73.7773 67.128C74.4723 66.4604 75.1289 65.9022 75.8239 65.3714C75.1454 68.8737 75.1782 72.4909 76.4478 75.8729C77.586 78.8936 79.5287 81.4383 81.4988 83.9556C83.1897 86.1226 84.9792 88.4046 85.5374 91.1681C85.9423 93.1765 85.5757 95.3217 85.0777 97.2753L85.0832 97.2698Z" fill="white"/>
</g>
</g>
<defs>
<linearGradient id="paint0_linear_2012_1756" x1="0" y1="135.217" x2="150" y2="135.217" gradientUnits="userSpaceOnUse">
<stop stop-color="#080715" stop-opacity="0"/>
<stop offset="0.495" stop-color="#FF0DF5"/>
<stop offset="1" stop-color="#080715" stop-opacity="0"/>
</linearGradient>
<linearGradient id="paint1_linear_2012_1756" x1="0" y1="111.739" x2="150" y2="111.739" gradientUnits="userSpaceOnUse">
<stop stop-color="#080715" stop-opacity="0"/>
<stop offset="0.495" stop-color="#FF0DF5"/>
<stop offset="1" stop-color="#080715" stop-opacity="0"/>
</linearGradient>
<linearGradient id="paint2_linear_2012_1756" x1="0" y1="88.2608" x2="150" y2="88.2608" gradientUnits="userSpaceOnUse">
<stop stop-color="#080715" stop-opacity="0"/>
<stop offset="0.495" stop-color="#FF0DF5"/>
<stop offset="1" stop-color="#080715" stop-opacity="0"/>
</linearGradient>
<linearGradient id="paint3_linear_2012_1756" x1="0" y1="64.7827" x2="150" y2="64.7827" gradientUnits="userSpaceOnUse">
<stop stop-color="#080715" stop-opacity="0"/>
<stop offset="0.495" stop-color="#FF0DF5"/>
<stop offset="1" stop-color="#080715" stop-opacity="0"/>
</linearGradient>
<linearGradient id="paint4_linear_2012_1756" x1="0" y1="40.9783" x2="150" y2="40.9783" gradientUnits="userSpaceOnUse">
<stop stop-color="#080715" stop-opacity="0"/>
<stop offset="0.495" stop-color="#FF0DF5"/>
<stop offset="1" stop-color="#080715" stop-opacity="0"/>
</linearGradient>
<clipPath id="clip0_2012_1756">
<rect width="150" height="150" fill="white"/>
</clipPath>
<clipPath id="clip1_2012_1756">
<rect width="87.131" height="110" fill="white" transform="translate(31 20)"/>
</clipPath>
</defs>
</svg>
