<svg width="150" height="150" viewBox="0 0 150 150" fill="none" xmlns="http://www.w3.org/2000/svg">
<g clip-path="url(#clip0_2012_1730)">
<g opacity="0.6">
<rect y="131.304" width="150" height="7.82609" fill="url(#paint0_linear_2012_1730)"/>
<rect y="108.478" width="150" height="6.52174" fill="url(#paint1_linear_2012_1730)"/>
<rect y="85.6521" width="150" height="5.21739" fill="url(#paint2_linear_2012_1730)"/>
<rect y="62.8262" width="150" height="3.91304" fill="url(#paint3_linear_2012_1730)"/>
<rect y="40" width="150" height="1.95652" fill="url(#paint4_linear_2012_1730)"/>
</g>
<g clip-path="url(#clip1_2012_1730)">
<path d="M108.724 77.7093H122.948C123.144 78.3946 123.426 79.0637 123.807 79.7001C125.733 82.9201 129.421 84.4323 133.059 83.7741C137.09 83.0507 139.94 79.254 139.995 75.2561C139.946 71.5411 137.639 68.359 134.185 67.0536C130.933 65.8298 126.913 66.8959 124.705 69.5829C123.91 70.5457 123.339 71.6498 122.997 72.803H108.724V57.4967L118.977 47.2436C119.254 46.9662 119.526 46.6942 119.804 46.4168H122.953C123.149 47.1021 123.432 47.7712 123.813 48.4076C125.738 51.6277 129.426 53.1398 133.065 52.4816C137.095 51.7582 139.946 47.9616 140 43.9636C139.951 40.2486 137.645 37.0666 134.191 35.7611C130.938 34.5373 126.918 35.6034 124.71 38.2904C123.916 39.2532 123.345 40.3574 123.002 41.5105H119.695C118.694 41.5105 117.846 41.5159 117.019 42.2666C116.714 42.544 116.431 42.854 116.143 43.1423C113.674 45.6118 111.199 48.0867 108.729 50.5561V50.208C108.729 49.6749 108.539 49.1745 108.234 48.7666C108.169 48.6687 108.098 48.5708 108.011 48.4783C107.533 47.9398 106.983 47.4503 106.477 46.9444L102.73 43.1967C99.6021 40.0691 96.4745 36.9415 93.3469 33.8139C92.2536 32.7206 91.1602 31.6272 90.0669 30.5339C89.8059 30.2729 89.5611 30.0335 89.3109 29.8159C88.8594 29.321 88.2176 28.9946 87.5159 28.9946H87.2711C83.6648 28.9348 80.0531 28.9946 76.4469 28.9946H49.1686C44.8335 29.0708 41.3414 32.5411 41.2816 36.8816C41.2816 37.2243 41.2816 37.567 41.2816 37.9097V50.5507C40.3841 49.6532 39.4812 48.7503 38.5837 47.8528C37.1368 46.4059 35.6845 44.9536 34.2377 43.5067C33.8623 43.1314 33.4925 42.7452 33.1063 42.3754C32.4808 41.7716 31.7192 41.4996 30.8598 41.4996H27.0523C26.8565 40.8143 26.5736 40.1452 26.1929 39.5088C24.2674 36.2888 20.5795 34.7766 16.9406 35.4348C12.9046 36.1963 10.0544 39.9875 10 43.9854C10.049 47.7005 12.3552 50.8825 15.8092 52.1879C19.0619 53.4118 23.0816 52.3457 25.29 49.6586C26.0841 48.6959 26.6552 47.5917 26.9979 46.4385H30.1962C33.6121 49.8544 37.028 53.2703 40.4494 56.6917C40.7268 56.9691 40.9987 57.2411 41.2761 57.5185V72.8247H27.0523C26.8565 72.1394 26.5736 71.4703 26.1929 70.8339C24.2674 67.6139 20.5795 66.1017 16.9406 66.7599C12.91 67.4833 10.0598 71.28 10.0054 75.2779C10.0544 78.9929 12.3607 82.175 15.8146 83.4804C19.0674 84.7042 23.087 83.6381 25.2954 80.9511C26.0895 79.9883 26.6607 78.8842 27.0033 77.731H41.2761V93.0373L31.023 103.29C30.7456 103.568 30.4736 103.84 30.1962 104.117H27.0469C26.851 103.432 26.5682 102.763 26.1874 102.126C24.2619 98.9063 20.5741 97.3942 16.9351 98.0524C12.9046 98.7758 10.0544 102.572 10 106.57C10.049 110.285 12.3552 113.467 15.8092 114.773C19.0619 115.997 23.0816 114.931 25.29 112.244C26.0841 111.281 26.6552 110.177 26.9979 109.023H30.305C31.3059 109.023 32.1544 109.018 32.9812 108.267C33.2858 107.99 33.5686 107.68 33.8569 107.392C36.3264 104.922 38.8013 102.447 41.2707 99.9779V109.328C41.2707 110.759 41.2544 112.184 41.2707 113.614C41.3142 117.144 43.664 120.364 47.118 121.273C48.1297 121.539 49.1251 121.539 50.1531 121.539H98.128C98.9439 121.539 99.7598 121.539 100.576 121.539C103.306 121.539 105.705 120.343 107.315 118.129C108.92 115.926 108.718 113.321 108.718 110.77V99.9779L111.416 102.676L115.762 107.022C116.138 107.397 116.508 107.783 116.894 108.153C117.519 108.757 118.281 109.029 119.14 109.029H122.948C123.144 109.714 123.426 110.383 123.807 111.02C125.733 114.24 129.421 115.752 133.059 115.094C137.09 114.37 139.94 110.574 139.995 106.576C139.946 102.861 137.639 99.6787 134.185 98.3733C130.933 97.1494 126.913 98.2155 124.705 100.903C123.91 101.865 123.339 102.97 122.997 104.123H119.798C116.382 100.707 112.967 97.2909 109.545 93.8695C109.268 93.5921 108.996 93.3201 108.718 93.0427V77.7365L108.724 77.7093ZM128.218 77.5352C128.218 77.5352 128.295 77.6712 128.344 77.731C128.267 77.6494 128.213 77.5733 128.218 77.5352ZM129.714 78.7699C129.785 78.7971 129.894 78.8352 129.91 78.8298C129.877 78.8461 129.807 78.8134 129.714 78.7699ZM131.743 79.0637C131.792 79.0582 131.868 79.0473 131.993 79.031C131.955 79.0637 131.846 79.0691 131.743 79.0637ZM134.746 76.9314C134.746 76.9314 134.789 76.8498 134.827 76.7737C134.805 76.8444 134.778 76.9097 134.746 76.9314ZM135.083 75.9197C135.088 75.8273 135.105 75.6369 135.105 75.6423C135.132 75.6749 135.115 75.7892 135.083 75.9197ZM127.783 73.7549C127.783 73.7549 127.794 73.7385 127.8 73.7277C127.881 73.5862 127.952 73.4394 128.033 73.298C128.104 73.1783 128.18 73.0695 128.256 72.9553C128.295 72.8954 128.316 72.8574 128.327 72.8302C128.479 72.667 128.73 72.4494 128.779 72.4059C128.838 72.3461 129.121 71.9871 128.904 72.2808C128.703 72.5528 128.953 72.2482 129.051 72.1829C129.181 72.0959 129.796 71.639 129.91 71.6988C129.915 71.6988 129.323 71.9055 129.785 71.7532C129.943 71.6988 130.1 71.6444 130.258 71.6009C130.367 71.5683 130.476 71.5411 130.585 71.5193C130.585 71.5193 130.601 71.5193 130.612 71.5139C130.595 71.5247 130.9 71.4703 130.949 71.4703C131.096 71.4649 131.237 71.4595 131.384 71.4595C131.531 71.4595 131.672 71.4758 131.819 71.4812C131.825 71.4812 131.83 71.4812 131.841 71.4867C132.156 71.5683 132.467 71.6498 132.777 71.7478C132.923 71.8511 133.108 71.9164 133.261 72.0088C133.353 72.0632 133.446 72.1231 133.538 72.1829C133.571 72.2047 133.603 72.2264 133.636 72.2482C133.652 72.2645 133.663 72.2754 133.69 72.2971C133.881 72.4875 134.077 72.6833 134.267 72.8737C134.278 72.8846 134.283 72.89 134.294 72.9009C134.381 73.0369 134.474 73.162 134.555 73.3034C134.642 73.4448 134.708 73.5917 134.789 73.7331C134.795 73.744 134.8 73.7494 134.805 73.7603C134.909 74.0812 134.99 74.3967 135.072 74.7231C135.088 74.7938 135.105 74.8319 135.11 74.8427C135.11 75.0059 135.094 75.1908 135.099 75.267C135.099 75.4411 135.083 75.6151 135.077 75.7892C135.077 75.8762 135.077 75.9197 135.077 75.9469C135.023 76.1482 134.936 76.3929 134.914 76.4691C134.903 76.5126 134.882 76.6051 134.854 76.6975C134.838 76.7193 134.822 76.7574 134.795 76.8009C134.637 77.0783 134.485 77.3448 134.31 77.6059C134.213 77.6821 134.131 77.8072 134.049 77.8942C133.973 77.9703 133.897 78.0465 133.815 78.1226C133.777 78.1607 133.734 78.1934 133.696 78.2314C133.495 78.4001 133.533 78.3729 133.81 78.1553C133.723 78.3239 133.277 78.5143 133.125 78.6013C133.032 78.6557 132.929 78.6992 132.836 78.7536C132.82 78.7645 132.809 78.7699 132.793 78.7808C132.777 78.7808 132.76 78.7917 132.733 78.7971C132.467 78.8787 132.2 78.9657 131.928 79.0201C131.901 79.0256 131.874 79.031 131.846 79.0365C131.781 79.0473 131.743 79.0528 131.716 79.0582C131.656 79.0582 131.596 79.0582 131.564 79.0582C131.292 79.0691 131.025 79.0528 130.759 79.0365C130.595 78.9984 130.432 78.9657 130.269 78.9222C130.106 78.8787 129.954 78.8189 129.796 78.7699C129.714 78.7427 129.682 78.7373 129.665 78.7319C129.486 78.6285 129.268 78.4762 129.197 78.4327C129.105 78.3729 129.018 78.3076 128.926 78.2478C128.92 78.2423 128.915 78.2369 128.909 78.2314C128.844 78.1662 128.561 77.9431 128.382 77.7582C128.382 77.7582 128.371 77.7256 128.311 77.644C128.224 77.508 128.126 77.372 128.044 77.2306C127.99 77.1381 127.936 77.0402 127.881 76.9423C127.854 76.8934 127.832 76.8444 127.805 76.7955C127.691 76.5561 127.707 76.5996 127.849 76.926C127.702 76.8172 127.636 76.3005 127.593 76.1319C127.566 76.0231 127.544 75.9143 127.522 75.8001C127.522 75.7892 127.522 75.7837 127.517 75.7729C127.517 75.7457 127.517 75.7239 127.517 75.6858C127.5 75.4247 127.495 75.1637 127.511 74.9026C127.511 74.8754 127.511 74.8427 127.517 74.8155C127.538 74.7339 127.544 74.6143 127.56 74.5381C127.62 74.2662 127.713 74.0051 127.794 73.744L127.783 73.7549ZM128.218 46.259C128.218 46.259 128.295 46.395 128.344 46.4549C128.267 46.3733 128.213 46.2971 128.218 46.259ZM129.714 47.4938C129.785 47.521 129.894 47.559 129.91 47.5536C129.877 47.5699 129.807 47.5373 129.714 47.4938ZM131.743 47.7875C131.792 47.7821 131.868 47.7712 131.993 47.7549C131.955 47.7875 131.846 47.7929 131.743 47.7875ZM134.746 45.6553C134.746 45.6553 134.789 45.5737 134.827 45.4975C134.805 45.5683 134.778 45.6335 134.746 45.6553ZM135.083 44.6436C135.088 44.5511 135.105 44.3607 135.105 44.3662C135.132 44.3988 135.115 44.513 135.083 44.6436ZM127.783 42.4787C127.783 42.4787 127.794 42.4624 127.8 42.4515C127.881 42.3101 127.952 42.1632 128.033 42.0218C128.104 41.9021 128.18 41.7934 128.256 41.6791C128.295 41.6193 128.316 41.5812 128.327 41.554C128.479 41.3908 128.73 41.1733 128.779 41.1298C128.838 41.0699 129.121 40.7109 128.904 41.0047C128.703 41.2766 128.953 40.972 129.051 40.9067C129.181 40.8197 129.796 40.3628 129.91 40.4226C129.915 40.4226 129.323 40.6293 129.785 40.477C129.943 40.4226 130.1 40.3683 130.258 40.3247C130.367 40.2921 130.476 40.2649 130.585 40.2431C130.585 40.2431 130.601 40.2431 130.612 40.2377C130.595 40.2486 130.9 40.1942 130.949 40.1942C131.096 40.1888 131.237 40.1833 131.384 40.1833C131.531 40.1833 131.672 40.1996 131.819 40.2051C131.825 40.2051 131.83 40.2051 131.841 40.2105C132.156 40.2921 132.467 40.3737 132.777 40.4716C132.923 40.5749 133.108 40.6402 133.261 40.7327C133.353 40.7871 133.446 40.8469 133.538 40.9067C133.571 40.9285 133.603 40.9503 133.636 40.972C133.652 40.9883 133.663 40.9992 133.69 41.021C133.881 41.2113 134.077 41.4072 134.267 41.5975C134.278 41.6084 134.283 41.6139 134.294 41.6247C134.381 41.7607 134.474 41.8858 134.555 42.0272C134.642 42.1687 134.708 42.3155 134.789 42.457C134.795 42.4678 134.8 42.4733 134.805 42.4842C134.909 42.8051 134.99 43.1206 135.072 43.4469C135.088 43.5176 135.105 43.5557 135.11 43.5666C135.11 43.7298 135.094 43.9147 135.099 43.9908C135.099 44.1649 135.083 44.339 135.077 44.513C135.077 44.6001 135.077 44.6436 135.077 44.6708C135.023 44.872 134.936 45.1168 134.914 45.1929C134.903 45.2365 134.882 45.3289 134.854 45.4214C134.838 45.4431 134.822 45.4812 134.795 45.5247C134.637 45.8021 134.485 46.0687 134.31 46.3298C134.213 46.4059 134.131 46.531 134.049 46.618C133.973 46.6942 133.897 46.7703 133.815 46.8465C133.777 46.8846 133.734 46.9172 133.696 46.9553C133.495 47.1239 133.533 47.0967 133.81 46.8791C133.723 47.0477 133.277 47.2381 133.125 47.3252C133.032 47.3795 132.929 47.4231 132.836 47.4775C132.82 47.4883 132.809 47.4938 132.793 47.5047C132.777 47.5047 132.76 47.5155 132.733 47.521C132.467 47.6026 132.2 47.6896 131.928 47.744C131.901 47.7494 131.874 47.7549 131.846 47.7603C131.781 47.7712 131.743 47.7766 131.716 47.7821C131.656 47.7821 131.596 47.7821 131.564 47.7821C131.292 47.7929 131.025 47.7766 130.759 47.7603C130.595 47.7222 130.432 47.6896 130.269 47.6461C130.106 47.6026 129.954 47.5427 129.796 47.4938C129.714 47.4666 129.682 47.4611 129.665 47.4557C129.486 47.3524 129.268 47.2001 129.197 47.1565C129.105 47.0967 129.018 47.0314 128.926 46.9716C128.92 46.9662 128.915 46.9607 128.909 46.9553C128.844 46.89 128.561 46.667 128.382 46.4821C128.382 46.4821 128.371 46.4494 128.311 46.3678C128.224 46.2319 128.126 46.0959 128.044 45.9544C127.99 45.862 127.936 45.7641 127.881 45.6662C127.854 45.6172 127.832 45.5683 127.805 45.5193C127.691 45.28 127.707 45.3235 127.849 45.6498C127.702 45.5411 127.636 45.0243 127.593 44.8557C127.566 44.7469 127.544 44.6381 127.522 44.5239C127.522 44.513 127.522 44.5076 127.517 44.4967C127.517 44.4695 127.517 44.4477 127.517 44.4097C127.5 44.1486 127.495 43.8875 127.511 43.6264C127.511 43.5992 127.511 43.5666 127.517 43.5394C127.538 43.4578 127.544 43.3381 127.56 43.262C127.62 42.99 127.713 42.7289 127.794 42.4678L127.783 42.4787ZM21.7816 41.7118C21.7816 41.7118 21.7054 41.5758 21.6565 41.516C21.7326 41.5975 21.787 41.6737 21.7816 41.7118ZM20.2858 40.477C20.2151 40.4498 20.1063 40.4118 20.09 40.4172C20.1226 40.4009 20.1987 40.4335 20.2858 40.477ZM18.2569 40.1833C18.2079 40.1888 18.1318 40.1996 18.0067 40.216C18.0448 40.1833 18.1536 40.1779 18.2569 40.1833ZM15.2544 42.3155C15.2544 42.3155 15.2109 42.3971 15.1728 42.4733C15.1946 42.4026 15.2218 42.3373 15.2544 42.3155ZM14.9172 43.3272C14.9117 43.4197 14.8954 43.6101 14.8954 43.6047C14.8682 43.572 14.8845 43.4578 14.9172 43.3272ZM22.2167 45.4975C22.2167 45.4975 22.2059 45.5139 22.2004 45.5247C22.1188 45.6662 22.0481 45.813 21.9665 45.9544C21.8958 46.0741 21.8197 46.1829 21.7435 46.2971C21.7054 46.357 21.6837 46.395 21.6728 46.4222C21.5205 46.5854 21.2703 46.803 21.2213 46.8465C21.1615 46.9063 20.8787 47.2653 21.0962 46.9716C21.2975 46.6996 21.0473 47.0042 20.9494 47.0695C20.8188 47.1565 20.2042 47.6134 20.09 47.5536C20.0845 47.5536 20.6774 47.3469 20.2151 47.4992C20.0573 47.5536 19.8996 47.608 19.7418 47.6515C19.6331 47.6842 19.5243 47.7113 19.4155 47.7331C19.4155 47.7331 19.3992 47.7331 19.3883 47.7385C19.4046 47.7277 19.1 47.7821 19.051 47.7821C18.9042 47.7875 18.7628 47.7929 18.6159 47.7929C18.469 47.7929 18.3276 47.7766 18.1808 47.7712C18.1753 47.7712 18.1699 47.7712 18.159 47.7657C17.8435 47.6842 17.5335 47.6026 17.2234 47.5047C17.0766 47.4013 16.8916 47.336 16.7393 47.2436C16.6469 47.1892 16.5544 47.1293 16.4619 47.0695C16.4293 47.0477 16.3967 47.026 16.364 47.0042C16.3477 46.9879 16.3368 46.977 16.3096 46.9607C16.1192 46.7703 15.9234 46.5745 15.7331 46.3841C15.7167 46.3733 15.7167 46.3678 15.7059 46.357C15.6188 46.221 15.5264 46.0959 15.4448 45.9544C15.3577 45.813 15.2925 45.6662 15.2109 45.5247C15.2054 45.5139 15.2 45.5084 15.1946 45.4975C15.0912 45.1766 15.0096 44.8611 14.928 44.5348C14.9117 44.4641 14.8954 44.4314 14.89 44.4151C14.89 44.2519 14.9063 44.067 14.9008 43.9908C14.9008 43.8168 14.9172 43.6427 14.9226 43.4687C14.9226 43.3816 14.9226 43.3381 14.9226 43.3109C14.977 43.1097 15.064 42.8649 15.0858 42.7888C15.0967 42.7452 15.1184 42.6528 15.1456 42.5603C15.1619 42.5385 15.1782 42.5005 15.2054 42.457C15.3632 42.1795 15.5155 41.913 15.6895 41.6465C15.7874 41.5703 15.869 41.4452 15.9506 41.3582C16.0268 41.2821 16.1029 41.2059 16.1845 41.1298C16.2226 41.0917 16.2661 41.059 16.3042 41.021C16.5054 40.8524 16.4674 40.8795 16.19 41.0971C16.277 40.9285 16.723 40.7381 16.8753 40.6511C16.9732 40.5967 17.0711 40.5532 17.1636 40.4988C17.1799 40.4879 17.1908 40.4825 17.2071 40.4716C17.2234 40.4716 17.2397 40.4607 17.2669 40.4553C17.5335 40.3737 17.8 40.2867 18.072 40.2323C18.0992 40.2268 18.1264 40.2214 18.1536 40.216C18.2188 40.2051 18.2569 40.1996 18.2841 40.1942C18.3439 40.1942 18.4038 40.1942 18.4364 40.1942C18.7084 40.1833 18.9749 40.1996 19.2414 40.216C19.4046 40.254 19.5678 40.2867 19.731 40.3302C19.8941 40.3737 20.0464 40.4335 20.2042 40.4825C20.2858 40.5097 20.3184 40.5151 20.3347 40.5206C20.5142 40.6239 20.7318 40.7762 20.8025 40.8197C20.895 40.8795 20.982 40.9448 21.0745 41.0047C21.0799 41.0101 21.0854 41.0155 21.0908 41.021C21.1561 41.0862 21.4389 41.3093 21.6184 41.4942C21.6184 41.4942 21.6293 41.5268 21.6891 41.6084C21.7762 41.7444 21.8741 41.8804 21.9556 42.0218C22.01 42.1143 22.0644 42.2122 22.1188 42.3101C22.146 42.359 22.1678 42.408 22.195 42.457C22.3092 42.6963 22.2929 42.6528 22.1515 42.3264C22.2983 42.4352 22.3636 42.9519 22.4071 43.1206C22.4343 43.2293 22.4561 43.3381 22.4778 43.4524C22.4778 43.4632 22.4778 43.4687 22.4833 43.4795C22.4833 43.5067 22.4833 43.5285 22.4833 43.5666C22.4996 43.8277 22.505 44.0888 22.4887 44.3498C22.4887 44.377 22.4887 44.4097 22.4833 44.4369C22.4615 44.5185 22.4561 44.6381 22.4397 44.7143C22.3799 44.9862 22.2874 45.2473 22.2059 45.5084L22.2167 45.4975ZM21.7816 72.9879C21.7816 72.9879 21.7054 72.8519 21.6565 72.7921C21.7326 72.8737 21.787 72.9498 21.7816 72.9879ZM20.2858 71.7532C20.2151 71.726 20.1063 71.6879 20.09 71.6934C20.1226 71.677 20.1987 71.7097 20.2858 71.7532ZM18.2569 71.4595C18.2079 71.4649 18.1318 71.4758 18.0067 71.4921C18.0448 71.4595 18.1536 71.454 18.2569 71.4595ZM15.2544 73.5917C15.2544 73.5917 15.2109 73.6733 15.1728 73.7494C15.1946 73.6787 15.2218 73.6134 15.2544 73.5917ZM14.9172 74.6034C14.9117 74.6959 14.8954 74.8862 14.8954 74.8808C14.8682 74.8482 14.8845 74.7339 14.9172 74.6034ZM22.2167 76.7737C22.2167 76.7737 22.2059 76.79 22.2004 76.8009C22.1188 76.9423 22.0481 77.0892 21.9665 77.2306C21.8958 77.3503 21.8197 77.4591 21.7435 77.5733C21.7054 77.6331 21.6837 77.6712 21.6728 77.6984C21.5205 77.8616 21.2703 78.0791 21.2213 78.1226C21.1615 78.1825 20.8787 78.5415 21.0962 78.2478C21.2975 77.9758 21.0473 78.2804 20.9494 78.3457C20.8188 78.4327 20.2042 78.8896 20.09 78.8298C20.0845 78.8298 20.6774 78.6231 20.2151 78.7754C20.0573 78.8298 19.8996 78.8842 19.7418 78.9277C19.6331 78.9603 19.5243 78.9875 19.4155 79.0093C19.4155 79.0093 19.3992 79.0093 19.3883 79.0147C19.4046 79.0038 19.1 79.0582 19.051 79.0582C18.9042 79.0637 18.7628 79.0691 18.6159 79.0691C18.469 79.0691 18.3276 79.0528 18.1808 79.0473C18.1753 79.0473 18.1699 79.0473 18.159 79.0419C17.8435 78.9603 17.5335 78.8787 17.2234 78.7808C17.0766 78.6775 16.8916 78.6122 16.7393 78.5197C16.6469 78.4653 16.5544 78.4055 16.4619 78.3457C16.4293 78.3239 16.3967 78.3021 16.364 78.2804C16.3477 78.2641 16.3368 78.2532 16.3096 78.2369C16.1192 78.0465 15.9234 77.8507 15.7331 77.6603C15.7167 77.6494 15.7167 77.644 15.7059 77.6331C15.6188 77.4971 15.5264 77.372 15.4448 77.2306C15.3577 77.0892 15.2925 76.9423 15.2109 76.8009C15.2054 76.79 15.2 76.7846 15.1946 76.7737C15.0912 76.4528 15.0096 76.1373 14.928 75.8109C14.9117 75.7402 14.8954 75.7076 14.89 75.6913C14.89 75.5281 14.9063 75.3431 14.9008 75.267C14.9008 75.0929 14.9172 74.9189 14.9226 74.7448C14.9226 74.6578 14.9226 74.6143 14.9226 74.5871C14.977 74.3858 15.064 74.1411 15.0858 74.0649C15.0967 74.0214 15.1184 73.9289 15.1456 73.8365C15.1619 73.8147 15.1782 73.7766 15.2054 73.7331C15.3632 73.4557 15.5155 73.1892 15.6895 72.9226C15.7874 72.8465 15.869 72.7214 15.9506 72.6344C16.0268 72.5582 16.1029 72.4821 16.1845 72.4059C16.2226 72.3678 16.2661 72.3352 16.3042 72.2971C16.5054 72.1285 16.4674 72.1557 16.19 72.3733C16.277 72.2047 16.723 72.0143 16.8753 71.9272C16.9732 71.8729 17.0711 71.8293 17.1636 71.7749C17.1799 71.7641 17.1908 71.7586 17.2071 71.7478C17.2234 71.7478 17.2397 71.7369 17.2669 71.7314C17.5335 71.6498 17.8 71.5628 18.072 71.5084C18.0992 71.503 18.1264 71.4975 18.1536 71.4921C18.2188 71.4812 18.2569 71.4758 18.2841 71.4703C18.3439 71.4703 18.4038 71.4703 18.4364 71.4703C18.7084 71.4595 18.9749 71.4758 19.2414 71.4921C19.4046 71.5302 19.5678 71.5628 19.731 71.6063C19.8941 71.6498 20.0464 71.7097 20.2042 71.7586C20.2858 71.7858 20.3184 71.7913 20.3347 71.7967C20.5142 71.9001 20.7318 72.0524 20.8025 72.0959C20.895 72.1557 20.982 72.221 21.0745 72.2808C21.0799 72.2862 21.0854 72.2917 21.0908 72.2971C21.1561 72.3624 21.4389 72.5854 21.6184 72.7703C21.6184 72.7703 21.6293 72.803 21.6891 72.8846C21.7762 73.0206 21.8741 73.1565 21.9556 73.298C22.01 73.3904 22.0644 73.4883 22.1188 73.5862C22.146 73.6352 22.1678 73.6842 22.195 73.7331C22.3092 73.9724 22.2929 73.9289 22.1515 73.6026C22.2983 73.7114 22.3636 74.2281 22.4071 74.3967C22.4343 74.5055 22.4561 74.6143 22.4778 74.7285C22.4778 74.7394 22.4778 74.7448 22.4833 74.7557C22.4833 74.7829 22.4833 74.8047 22.4833 74.8427C22.4996 75.1038 22.505 75.3649 22.4887 75.626C22.4887 75.6532 22.4887 75.6858 22.4833 75.713C22.4615 75.7946 22.4561 75.9143 22.4397 75.9904C22.3799 76.2624 22.2874 76.5235 22.2059 76.7846L22.2167 76.7737ZM21.7816 104.264C21.7816 104.264 21.7054 104.128 21.6565 104.068C21.7326 104.15 21.787 104.226 21.7816 104.264ZM20.2858 103.029C20.2151 103.002 20.1063 102.964 20.09 102.97C20.1226 102.953 20.1987 102.986 20.2858 103.029ZM18.2569 102.736C18.2079 102.741 18.1318 102.752 18.0067 102.768C18.0448 102.736 18.1536 102.73 18.2569 102.736ZM15.2544 104.868C15.2544 104.868 15.2109 104.949 15.1728 105.026C15.1946 104.955 15.2218 104.89 15.2544 104.868ZM14.9172 105.88C14.9117 105.972 14.8954 106.162 14.8954 106.157C14.8682 106.124 14.8845 106.01 14.9172 105.88ZM22.2167 108.05C22.2167 108.05 22.2059 108.066 22.2004 108.077C22.1188 108.218 22.0481 108.365 21.9665 108.507C21.8958 108.626 21.8197 108.735 21.7435 108.849C21.7054 108.909 21.6837 108.947 21.6728 108.975C21.5205 109.138 21.2703 109.355 21.2213 109.399C21.1615 109.459 20.8787 109.818 21.0962 109.524C21.2975 109.252 21.0473 109.557 20.9494 109.622C20.8188 109.709 20.2042 110.166 20.09 110.106C20.0845 110.106 20.6774 109.899 20.2151 110.052C20.0573 110.106 19.8996 110.16 19.7418 110.204C19.6331 110.236 19.5243 110.264 19.4155 110.285C19.4155 110.285 19.3992 110.285 19.3883 110.291C19.4046 110.28 19.1 110.334 19.051 110.334C18.9042 110.34 18.7628 110.345 18.6159 110.345C18.469 110.345 18.3276 110.329 18.1808 110.323C18.1753 110.323 18.1699 110.323 18.159 110.318C17.8435 110.236 17.5335 110.155 17.2234 110.057C17.0766 109.954 16.8916 109.888 16.7393 109.796C16.6469 109.741 16.5544 109.682 16.4619 109.622C16.4293 109.6 16.3967 109.578 16.364 109.557C16.3477 109.54 16.3368 109.529 16.3096 109.513C16.1192 109.323 15.9234 109.127 15.7331 108.936C15.7167 108.926 15.7167 108.92 15.7059 108.909C15.6188 108.773 15.5264 108.648 15.4448 108.507C15.3577 108.365 15.2925 108.218 15.2109 108.077C15.2054 108.066 15.2 108.061 15.1946 108.05C15.0912 107.729 15.0096 107.413 14.928 107.087C14.9117 107.016 14.8954 106.984 14.89 106.967C14.89 106.804 14.9063 106.619 14.9008 106.543C14.9008 106.369 14.9172 106.195 14.9226 106.021C14.9226 105.934 14.9226 105.89 14.9226 105.863C14.977 105.662 15.064 105.417 15.0858 105.341C15.0967 105.298 15.1184 105.205 15.1456 105.113C15.1619 105.091 15.1782 105.053 15.2054 105.009C15.3632 104.732 15.5155 104.465 15.6895 104.199C15.7874 104.123 15.869 103.998 15.9506 103.911C16.0268 103.834 16.1029 103.758 16.1845 103.682C16.2226 103.644 16.2661 103.611 16.3042 103.573C16.5054 103.405 16.4674 103.432 16.19 103.649C16.277 103.481 16.723 103.29 16.8753 103.203C16.9732 103.149 17.0711 103.105 17.1636 103.051C17.1799 103.04 17.1908 103.035 17.2071 103.024C17.2234 103.024 17.2397 103.013 17.2669 103.008C17.5335 102.926 17.8 102.839 18.072 102.785C18.0992 102.779 18.1264 102.774 18.1536 102.768C18.2188 102.757 18.2569 102.752 18.2841 102.746C18.3439 102.746 18.4038 102.746 18.4364 102.746C18.7084 102.736 18.9749 102.752 19.2414 102.768C19.4046 102.806 19.5678 102.839 19.731 102.882C19.8941 102.926 20.0464 102.986 20.2042 103.035C20.2858 103.062 20.3184 103.067 20.3347 103.073C20.5142 103.176 20.7318 103.329 20.8025 103.372C20.895 103.432 20.982 103.497 21.0745 103.557C21.0799 103.562 21.0854 103.568 21.0908 103.573C21.1561 103.639 21.4389 103.862 21.6184 104.046C21.6184 104.046 21.6293 104.079 21.6891 104.161C21.7762 104.297 21.8741 104.433 21.9556 104.574C22.01 104.667 22.0644 104.764 22.1188 104.862C22.146 104.911 22.1678 104.96 22.195 105.009C22.3092 105.249 22.2929 105.205 22.1515 104.879C22.2983 104.987 22.3636 105.504 22.4071 105.673C22.4343 105.782 22.4561 105.89 22.4778 106.005C22.4778 106.016 22.4778 106.021 22.4833 106.032C22.4833 106.059 22.4833 106.081 22.4833 106.119C22.4996 106.38 22.505 106.641 22.4887 106.902C22.4887 106.929 22.4887 106.962 22.4833 106.989C22.4615 107.071 22.4561 107.19 22.4397 107.267C22.3799 107.539 22.2874 107.8 22.2059 108.061L22.2167 108.05ZM128.218 108.811C128.218 108.811 128.295 108.947 128.344 109.007C128.267 108.926 128.213 108.849 128.218 108.811ZM129.714 110.046C129.785 110.073 129.894 110.111 129.91 110.106C129.877 110.122 129.807 110.09 129.714 110.046ZM131.743 110.34C131.792 110.334 131.868 110.323 131.993 110.307C131.955 110.34 131.846 110.345 131.743 110.34ZM134.746 108.208C134.746 108.208 134.789 108.126 134.827 108.05C134.805 108.121 134.778 108.186 134.746 108.208ZM135.083 107.196C135.088 107.103 135.105 106.913 135.105 106.918C135.132 106.951 135.115 107.065 135.083 107.196ZM127.783 105.031C127.783 105.031 127.794 105.015 127.8 105.004C127.881 104.862 127.952 104.716 128.033 104.574C128.104 104.454 128.18 104.346 128.256 104.231C128.295 104.172 128.316 104.134 128.327 104.106C128.479 103.943 128.73 103.726 128.779 103.682C128.838 103.622 129.121 103.263 128.904 103.557C128.703 103.829 128.953 103.524 129.051 103.459C129.181 103.372 129.796 102.915 129.91 102.975C129.915 102.975 129.323 103.182 129.785 103.029C129.943 102.975 130.1 102.921 130.258 102.877C130.367 102.844 130.476 102.817 130.585 102.795C130.585 102.795 130.601 102.795 130.612 102.79C130.595 102.801 130.9 102.746 130.949 102.746C131.096 102.741 131.237 102.736 131.384 102.736C131.531 102.736 131.672 102.752 131.819 102.757C131.825 102.757 131.83 102.757 131.841 102.763C132.156 102.844 132.467 102.926 132.777 103.024C132.923 103.127 133.108 103.193 133.261 103.285C133.353 103.339 133.446 103.399 133.538 103.459C133.571 103.481 133.603 103.503 133.636 103.524C133.652 103.541 133.663 103.552 133.69 103.573C133.881 103.764 134.077 103.959 134.267 104.15C134.278 104.161 134.283 104.166 134.294 104.177C134.381 104.313 134.474 104.438 134.555 104.58C134.642 104.721 134.708 104.868 134.789 105.009C134.795 105.02 134.8 105.026 134.805 105.036C134.909 105.357 134.99 105.673 135.072 105.999C135.088 106.07 135.105 106.108 135.11 106.119C135.11 106.282 135.094 106.467 135.099 106.543C135.099 106.717 135.083 106.891 135.077 107.065C135.077 107.152 135.077 107.196 135.077 107.223C135.023 107.424 134.936 107.669 134.914 107.745C134.903 107.789 134.882 107.881 134.854 107.974C134.838 107.995 134.822 108.034 134.795 108.077C134.637 108.354 134.485 108.621 134.31 108.882C134.213 108.958 134.131 109.083 134.049 109.17C133.973 109.246 133.897 109.323 133.815 109.399C133.777 109.437 133.734 109.47 133.696 109.508C133.495 109.676 133.533 109.649 133.81 109.431C133.723 109.6 133.277 109.79 133.125 109.877C133.032 109.932 132.929 109.975 132.836 110.03C132.82 110.041 132.809 110.046 132.793 110.057C132.777 110.057 132.76 110.068 132.733 110.073C132.467 110.155 132.2 110.242 131.928 110.296C131.901 110.302 131.874 110.307 131.846 110.313C131.781 110.323 131.743 110.329 131.716 110.334C131.656 110.334 131.596 110.334 131.564 110.334C131.292 110.345 131.025 110.329 130.759 110.313C130.595 110.275 130.432 110.242 130.269 110.198C130.106 110.155 129.954 110.095 129.796 110.046C129.714 110.019 129.682 110.013 129.665 110.008C129.486 109.905 129.268 109.752 129.197 109.709C129.105 109.649 129.018 109.584 128.926 109.524C128.92 109.518 128.915 109.513 128.909 109.508C128.844 109.442 128.561 109.219 128.382 109.034C128.382 109.034 128.371 109.002 128.311 108.92C128.224 108.784 128.126 108.648 128.044 108.507C127.99 108.414 127.936 108.316 127.881 108.218C127.854 108.17 127.832 108.121 127.805 108.072C127.691 107.832 127.707 107.876 127.849 108.202C127.702 108.093 127.636 107.577 127.593 107.408C127.566 107.299 127.544 107.19 127.522 107.076C127.522 107.065 127.522 107.06 127.517 107.049C127.517 107.022 127.517 107 127.517 106.962C127.5 106.701 127.495 106.44 127.511 106.179C127.511 106.152 127.511 106.119 127.517 106.092C127.538 106.01 127.544 105.89 127.56 105.814C127.62 105.542 127.713 105.281 127.794 105.02L127.783 105.031ZM92.1393 39.5632L100.369 47.7929H93.3904C93.2435 47.7929 93.0966 47.7929 92.9498 47.7929C92.8247 47.7929 92.6941 47.7821 92.569 47.7821C92.4929 47.7821 92.4494 47.7821 92.4167 47.7821C92.2481 47.7385 92.0577 47.6624 91.949 47.6298C91.9054 47.6134 91.8402 47.5971 91.7803 47.5808C91.7586 47.5645 91.7368 47.5536 91.6987 47.5318C91.492 47.4122 91.2908 47.2762 91.0841 47.1565C91.0134 47.0695 90.91 46.9988 90.8339 46.9226C90.7469 46.8411 90.6381 46.7051 90.5891 46.6561C90.4912 46.5147 90.3879 46.3678 90.3063 46.2155C90.2954 46.1992 90.2519 46.1285 90.2084 46.0524C90.1757 45.9708 90.1485 45.8892 90.1213 45.8076C90.0615 45.6118 90.0234 45.4105 89.969 45.2147C89.969 45.1113 89.9527 45.008 89.9527 44.9047C89.9527 44.8339 89.9527 44.7632 89.9527 44.6925C89.9418 42.5113 89.9527 40.3247 89.9527 38.1436V37.3875L92.1339 39.5687L92.1393 39.5632ZM92.6071 47.7984C92.569 47.7984 92.5255 47.7984 92.4766 47.7929C92.5255 47.7929 92.5745 47.7984 92.6071 47.7984ZM90.192 46.0088C90.1648 45.9599 90.1431 45.9109 90.1431 45.8892C90.1648 45.9381 90.1757 45.9708 90.192 46.0088ZM46.4272 35.636C46.4 35.7122 46.3565 35.8318 46.3565 35.8264C46.3565 35.7829 46.3837 35.7067 46.4272 35.636ZM46.1879 36.4628C46.1879 36.3975 46.1987 36.3431 46.1987 36.3431C46.2096 36.3431 46.1987 36.3975 46.1879 36.4628ZM46.1987 114.175C46.1987 114.175 46.1933 114.126 46.1879 114.055C46.1987 114.115 46.2096 114.175 46.1987 114.175ZM46.3565 114.697C46.3565 114.697 46.3728 114.74 46.3891 114.789C46.3674 114.751 46.351 114.718 46.3565 114.697ZM47.9121 116.361C47.9611 116.377 48.01 116.394 48.0427 116.405C48.0046 116.405 47.9611 116.388 47.9121 116.361ZM101.925 116.416C101.925 116.416 101.968 116.399 102.017 116.383C101.979 116.405 101.941 116.421 101.925 116.416ZM103.605 114.778C103.584 114.844 103.578 114.876 103.573 114.898C103.502 115.023 103.399 115.159 103.344 115.241C103.236 115.415 102.86 115.757 103.257 115.393C103.127 115.513 103.018 115.659 102.893 115.785C102.833 115.844 102.746 115.899 102.697 115.964C102.697 115.964 102.697 115.964 102.697 115.97C102.55 116.062 102.403 116.16 102.251 116.247C102.218 116.263 102.153 116.307 102.093 116.345C101.925 116.399 101.756 116.459 101.582 116.508C101.479 116.535 101.37 116.552 101.267 116.579C101.033 116.579 100.793 116.6 100.559 116.6H54.0368C52.3561 116.6 50.6644 116.66 48.9837 116.6C48.913 116.6 48.8423 116.59 48.7715 116.59C48.6029 116.546 48.4289 116.513 48.2657 116.464C48.1787 116.437 48.0916 116.41 48.0046 116.383C47.9448 116.367 47.9067 116.35 47.8741 116.345C47.7435 116.269 47.6075 116.165 47.5368 116.122C47.4715 116.078 47.4063 116.035 47.341 115.991C47.2322 115.882 47.1071 115.785 46.9983 115.67C46.9385 115.611 46.8841 115.54 46.8243 115.475C46.7209 115.295 46.6013 115.121 46.4925 114.947C46.4816 114.931 46.4598 114.893 46.4381 114.854C46.3782 114.659 46.3075 114.468 46.2586 114.267C46.2368 114.185 46.2259 114.098 46.2042 114.017C46.1987 113.859 46.1879 113.652 46.1879 113.614C46.1879 113.593 46.1879 113.571 46.1879 113.549C46.1879 113.081 46.1879 112.613 46.1879 112.146V41.1733C46.1879 39.7699 46.1715 38.3666 46.1879 36.9632C46.1879 36.8816 46.1879 36.8055 46.1879 36.7239C46.1879 36.7021 46.1933 36.6097 46.1987 36.5172C46.2477 36.3486 46.2749 36.1691 46.3238 36.0005C46.3565 35.8862 46.4054 35.772 46.4381 35.6578C46.449 35.6306 46.449 35.6143 46.4544 35.6034C46.5305 35.4729 46.6339 35.3369 46.6665 35.277C46.7155 35.2009 46.9494 34.918 46.9004 34.9561C46.982 34.8745 47.0854 34.7712 47.1234 34.7331C47.1996 34.657 47.2812 34.5917 47.3247 34.5536C47.4444 34.472 47.564 34.385 47.6946 34.3143C47.7218 34.298 47.8088 34.249 47.8904 34.2055C47.9502 34.1946 48.2766 34.0586 48.3527 34.0369C48.3799 34.0314 48.5703 33.9879 48.7172 33.9607C48.6301 33.9607 48.5812 33.939 48.7987 33.939C48.8096 33.939 48.8151 33.939 48.8259 33.939C48.864 33.9281 48.8967 33.9226 48.8967 33.9172C48.8967 33.9226 48.8858 33.9281 48.8803 33.9335C48.9782 33.9335 49.0816 33.9226 49.1795 33.9226H85.0791C85.0791 37.4691 85.0736 41.021 85.0791 44.5674C85.09 48.995 88.5004 52.6285 92.9824 52.6883C95.082 52.7155 97.187 52.6883 99.292 52.6883H103.845V112.902C103.845 113.103 103.845 113.304 103.845 113.511C103.845 113.544 103.845 113.576 103.845 113.609C103.845 113.674 103.845 113.685 103.845 113.805C103.845 113.864 103.839 113.924 103.834 113.984C103.796 114.153 103.714 114.506 103.709 114.523C103.682 114.61 103.654 114.697 103.627 114.784L103.605 114.778ZM103.823 113.941C103.823 113.941 103.828 113.897 103.834 113.897C103.834 113.897 103.834 113.913 103.823 113.941Z" fill="#FF0DF5"/>
<path d="M48.8639 33.9334C48.8639 33.9334 48.8258 33.9334 48.8095 33.9334C48.7768 33.9389 48.7442 33.9497 48.7007 33.9552C48.7605 33.9552 48.8312 33.9552 48.8639 33.928V33.9334Z" fill="#FF0DF5"/>
<path d="M93.7658 97.8347H56.2345C54.9562 97.8347 53.7269 98.9607 53.7868 100.282C53.8466 101.61 54.8638 102.73 56.2345 102.73H93.7658C95.0441 102.73 96.2734 101.604 96.2135 100.282C96.1537 98.9552 95.1366 97.8347 93.7658 97.8347Z" fill="#FF0DF5"/>
<path d="M93.7658 85.3242H56.2345C54.9562 85.3242 53.7269 86.4502 53.7868 87.7719C53.8466 89.0991 54.8638 90.2196 56.2345 90.2196H93.7658C95.0441 90.2196 96.2734 89.0937 96.2135 87.7719C96.1537 86.4447 95.1366 85.3242 93.7658 85.3242Z" fill="#FF0DF5"/>
<path d="M93.7658 72.814H56.2345C54.9562 72.814 53.7269 73.9399 53.7868 75.2617C53.8466 76.5889 54.8638 77.7094 56.2345 77.7094H93.7658C95.0441 77.7094 96.2734 76.5834 96.2135 75.2617C96.1537 73.9345 95.1366 72.814 93.7658 72.814Z" fill="#FF0DF5"/>
<path d="M93.7658 60.3035H56.2345C54.9562 60.3035 53.7269 61.4294 53.7868 62.7512C53.8466 64.0784 54.8638 65.1989 56.2345 65.1989H93.7658C95.0441 65.1989 96.2734 64.0729 96.2135 62.7512C96.1537 61.424 95.1366 60.3035 93.7658 60.3035Z" fill="#FF0DF5"/>
<path d="M106.885 75.876H124.471C124.558 76.8823 124.857 77.8777 125.395 78.7752C126.87 81.2447 129.758 82.512 132.575 82.0062C135.812 81.4242 138.118 78.5032 138.167 75.2614C138.129 72.4057 136.383 69.8493 133.707 68.8321C131.014 67.8041 127.832 68.6635 126.01 70.8882C125.124 71.976 124.607 73.2924 124.482 74.6467H106.891V56.7459C110.486 53.1505 114.082 49.5551 117.683 45.9543C118.139 45.4974 118.591 45.0459 119.048 44.589H124.482C124.569 45.5953 124.868 46.5907 125.406 47.4882C126.88 49.9576 129.769 51.225 132.586 50.7191C135.823 50.1371 138.129 47.2162 138.178 43.9744C138.14 41.1187 136.394 38.5622 133.718 37.5451C131.025 36.517 127.843 37.3765 126.021 39.6011C125.134 40.689 124.618 42.0053 124.493 43.3597H119.706C119.238 43.3597 118.705 43.2618 118.33 43.5773C118.02 43.8438 117.742 44.1647 117.454 44.453L108.583 53.3246L106.907 54.9999V51.3936C106.907 51.0727 106.967 50.6321 106.907 50.2568V50.2187C106.907 50.0719 106.847 49.9413 106.755 49.8325C106.744 49.8162 106.739 49.7999 106.728 49.7836C106.293 49.2288 105.689 48.7447 105.194 48.2497L101.446 44.502L92.0633 35.1191C90.97 34.0258 89.8767 32.9325 88.7834 31.8392C88.5168 31.5727 88.2829 31.279 88.0001 31.0832C87.8859 30.9363 87.7172 30.8384 87.5269 30.8384H87.2821C83.6758 30.784 80.0641 30.8384 76.4578 30.8384H49.1796C45.8507 30.8982 43.1746 33.5526 43.1311 36.8924C43.1311 37.235 43.1311 37.5777 43.1311 37.9204V54.9945L37.3001 49.1635C35.8532 47.7166 34.4009 46.2643 32.9541 44.8175C32.5788 44.4421 32.2034 44.056 31.8227 43.6861C31.5398 43.4087 31.2679 43.3488 30.8762 43.3488H25.5457C25.4587 42.3426 25.1595 41.3472 24.621 40.4497C23.147 37.9802 20.2587 36.7129 17.4411 37.2187C14.2047 37.8007 11.8984 40.7216 11.8495 43.9635C11.8875 46.8191 13.6336 49.3756 16.3097 50.3928C19.0022 51.4208 22.1842 50.5614 24.0064 48.3367C24.893 47.2488 25.4097 45.9325 25.5348 44.5781H30.9687C34.5641 48.1735 38.1595 51.7689 41.7603 55.3698C42.2172 55.8267 42.6687 56.2781 43.1256 56.735V74.6359H25.5294C25.4423 73.6296 25.1432 72.6342 24.6047 71.7367C23.1306 69.2673 20.2423 67.9999 17.4248 68.5057C14.1884 69.0878 11.8821 72.0087 11.8331 75.2505C11.8712 78.1062 13.6172 80.6626 16.2934 81.6798C18.9859 82.7078 22.1679 81.8484 23.99 79.6237C24.8767 78.5359 25.3934 77.2196 25.5185 75.8652H43.1093V93.766C39.5139 97.3614 35.9185 100.957 32.3177 104.558C31.8608 105.015 31.4093 105.466 30.9524 105.923H25.5185C25.4315 104.917 25.1323 103.921 24.5938 103.024C23.1198 100.554 20.2315 99.2869 17.4139 99.7928C14.1775 100.375 11.8712 103.296 11.8223 106.538C11.8603 109.393 13.6064 111.95 16.2825 112.967C18.975 113.995 22.157 113.135 23.9792 110.911C24.8658 109.823 25.3825 108.507 25.5076 107.152H30.2942C30.762 107.152 31.2951 107.25 31.6704 106.935C31.9804 106.668 32.2578 106.347 32.5461 106.059C35.5051 103.1 38.4641 100.141 41.4177 97.1873C41.9779 96.6271 42.5327 96.0723 43.093 95.512V109.29C43.093 110.72 43.0767 112.145 43.093 113.576C43.1256 116.301 44.926 118.765 47.5967 119.467C48.4398 119.69 49.2829 119.668 50.1424 119.668H98.1172C98.9331 119.668 99.749 119.668 100.565 119.668C102.605 119.668 104.492 118.841 105.716 117.166C107.114 115.262 106.869 112.951 106.869 110.737V95.512C108.811 97.4539 110.758 99.4011 112.7 101.343C114.147 102.79 115.599 104.242 117.046 105.689C117.421 106.064 117.797 106.451 118.178 106.82C118.46 107.098 118.732 107.158 119.124 107.158H124.454C124.542 108.164 124.841 109.159 125.379 110.057C126.853 112.526 129.742 113.794 132.559 113.288C135.795 112.706 138.102 109.785 138.151 106.543C138.113 103.687 136.367 101.131 133.69 100.114C130.998 99.0857 127.816 99.9451 125.994 102.17C125.107 103.258 124.59 104.574 124.465 105.928H119.031L108.24 95.1367C107.783 94.6798 107.331 94.2283 106.875 93.7714V75.8706L106.885 75.876ZM126.451 72.3677C127.647 70.366 130.035 69.2727 132.331 69.7133C134.996 70.2246 136.9 72.5635 136.938 75.2614C136.905 77.6112 135.453 79.7706 133.217 80.5702C130.976 81.3752 128.431 80.6681 126.919 78.8296C125.428 77.0129 125.249 74.3748 126.451 72.3622V72.3677ZM126.451 41.0915C127.647 39.0898 130.035 37.9965 132.331 38.4371C134.996 38.9484 136.9 41.2873 136.938 43.9852C136.905 46.335 135.453 48.4945 133.217 49.294C130.976 50.0991 128.431 49.3919 126.919 47.5534C125.428 45.7367 125.249 43.0986 126.451 41.0861V41.0915ZM23.5495 46.879C22.3528 48.8806 19.9649 49.9739 17.6695 49.5334C15.0043 49.0221 13.1005 46.6832 13.0624 43.9852C13.0951 41.6355 14.5474 39.476 16.7829 38.6765C19.0239 37.8714 21.5695 38.5786 23.0817 40.417C24.5721 42.2338 24.7516 44.8719 23.5495 46.8844V46.879ZM23.5495 78.1551C22.3528 80.1568 19.9649 81.2501 17.6695 80.8095C15.0043 80.2982 13.1005 77.9593 13.0624 75.2614C13.0951 72.9116 14.5474 70.7522 16.7829 69.9526C19.0239 69.1476 21.5695 69.8547 23.0817 71.6932C24.5721 73.5099 24.7516 76.148 23.5495 78.1606V78.1551ZM23.5495 109.431C22.3528 111.433 19.9649 112.526 17.6695 112.086C15.0043 111.574 13.1005 109.235 13.0624 106.538C13.0951 104.188 14.5474 102.028 16.7829 101.229C19.0239 100.424 21.5695 101.131 23.0817 102.969C24.5721 104.786 24.7516 107.424 23.5495 109.437V109.431ZM126.451 103.644C127.647 101.642 130.035 100.549 132.331 100.989C134.996 101.501 136.9 103.84 136.938 106.538C136.905 108.887 135.453 111.047 133.217 111.846C130.976 112.651 128.431 111.944 126.919 110.106C125.428 108.289 125.249 105.651 126.451 103.638V103.644ZM93.434 38.2631C96.7955 41.6246 100.152 44.9806 103.513 48.3421L104.797 49.6258H93.385C92.1938 49.6258 91.0733 49.4137 90.0834 48.6903C88.7942 47.7493 88.1252 46.2589 88.1143 44.6815C88.1034 42.5003 88.1143 40.3137 88.1143 38.1325V32.9543C89.8875 34.7275 91.6553 36.4953 93.4285 38.2685L93.434 38.2631ZM105.667 64.943V112.902C105.667 113.837 105.64 114.74 105.232 115.621C104.372 117.481 102.539 118.433 100.549 118.433H54.026C52.3453 118.433 50.6537 118.493 48.9729 118.433C46.3457 118.335 44.3603 116.122 44.3386 113.543C44.3386 113.076 44.3386 112.608 44.3386 112.14V41.1731C44.3386 39.7698 44.3223 38.3664 44.3386 36.9631C44.3712 34.2815 46.4762 32.1384 49.1687 32.0894H86.9068C86.9068 36.2505 86.8959 40.4116 86.9068 44.5727C86.9122 47.9995 89.4905 50.8116 92.9771 50.8551C95.0767 50.8823 97.1817 50.8551 99.2867 50.8551H105.678V64.9484L105.667 64.943Z" fill="white"/>
<path d="M93.766 99.6731H56.2346C55.4459 99.6731 55.4459 100.897 56.2346 100.897H93.766C94.5547 100.897 94.5547 99.6731 93.766 99.6731Z" fill="white"/>
<path d="M93.766 87.1626H56.2346C55.4459 87.1626 55.4459 88.3864 56.2346 88.3864H93.766C94.5547 88.3864 94.5547 87.1626 93.766 87.1626Z" fill="white"/>
<path d="M93.766 74.6521H56.2346C55.4459 74.6521 55.4459 75.8759 56.2346 75.8759H93.766C94.5547 75.8759 94.5547 74.6521 93.766 74.6521Z" fill="white"/>
<path d="M93.766 62.1418H56.2346C55.4459 62.1418 55.4459 63.3657 56.2346 63.3657H93.766C94.5547 63.3657 94.5547 62.1418 93.766 62.1418Z" fill="white"/>
</g>
</g>
<defs>
<linearGradient id="paint0_linear_2012_1730" x1="0" y1="135.217" x2="150" y2="135.217" gradientUnits="userSpaceOnUse">
<stop stop-color="#080715" stop-opacity="0"/>
<stop offset="0.495" stop-color="#FF0DF5"/>
<stop offset="1" stop-color="#080715" stop-opacity="0"/>
</linearGradient>
<linearGradient id="paint1_linear_2012_1730" x1="0" y1="111.739" x2="150" y2="111.739" gradientUnits="userSpaceOnUse">
<stop stop-color="#080715" stop-opacity="0"/>
<stop offset="0.495" stop-color="#FF0DF5"/>
<stop offset="1" stop-color="#080715" stop-opacity="0"/>
</linearGradient>
<linearGradient id="paint2_linear_2012_1730" x1="0" y1="88.2608" x2="150" y2="88.2608" gradientUnits="userSpaceOnUse">
<stop stop-color="#080715" stop-opacity="0"/>
<stop offset="0.495" stop-color="#FF0DF5"/>
<stop offset="1" stop-color="#080715" stop-opacity="0"/>
</linearGradient>
<linearGradient id="paint3_linear_2012_1730" x1="0" y1="64.7827" x2="150" y2="64.7827" gradientUnits="userSpaceOnUse">
<stop stop-color="#080715" stop-opacity="0"/>
<stop offset="0.495" stop-color="#FF0DF5"/>
<stop offset="1" stop-color="#080715" stop-opacity="0"/>
</linearGradient>
<linearGradient id="paint4_linear_2012_1730" x1="0" y1="40.9783" x2="150" y2="40.9783" gradientUnits="userSpaceOnUse">
<stop stop-color="#080715" stop-opacity="0"/>
<stop offset="0.495" stop-color="#FF0DF5"/>
<stop offset="1" stop-color="#080715" stop-opacity="0"/>
</linearGradient>
<clipPath id="clip0_2012_1730">
<rect width="150" height="150" fill="white"/>
</clipPath>
<clipPath id="clip1_2012_1730">
<rect width="130" height="92.4958" fill="white" transform="translate(10 29)"/>
</clipPath>
</defs>
</svg>
